<?xml version="1.0" encoding="UTF-8" standalone="yes"?>
<!DOCTYPE svg PUBLIC "-//W3C//DTD SVG 1.1//EN" "http://www.w3.org/Graphics/SVG/1.1/DTD/svg11.dtd">

<svg width="64" height="64" viewBox="0 0 64 64" xmlns="http://www.w3.org/2000/svg" xmlns:xlink="http://www.w3.org/1999/xlink" version="1.1" baseProfile="full">
    <g transform="scale(1.000000,-1.000000) translate(0,-64)">
        <path d="M 35.867919 33.223906 C 33.000000 36.219107 33.000000 36.219107 30.132081 33.223906 L 5.013382 6.990402 C -0.722456 1.000000 -0.722456 1.000000 7.708159 1.000000 L 58.291841 1.000000 C 66.722456 1.000000 66.722456 1.000000 60.986618 6.990402 Z" transform="scale(1.000000,1.000000) translate(-1.000000,28.529693)" opacity="1.000000"></path>
        <path d="M 3.000000 1.000000 L 16.000000 1.000000 C 17.104569 1.000000 18.000000 1.895431 18.000000 3.000000 L 18.000000 41.000000 C 18.000000 41.000000 18.000000 41.000000 18.000000 41.000000 L 1.000000 41.000000 C 1.000000 41.000000 1.000000 41.000000 1.000000 41.000000 L 1.000000 3.000000 C 1.000000 1.895431 1.895431 1.000000 3.000000 1.000000 Z" transform="scale(1.000000,1.000000) translate(9.000000,-1.000000)" opacity="1.000000"></path>
        <path d="M 3.000000 1.000000 L 16.000000 1.000000 C 17.104569 1.000000 18.000000 1.895431 18.000000 3.000000 L 18.000000 41.000000 C 18.000000 41.000000 18.000000 41.000000 18.000000 41.000000 L 1.000000 41.000000 C 1.000000 41.000000 1.000000 41.000000 1.000000 41.000000 L 1.000000 3.000000 C 1.000000 1.895431 1.895431 1.000000 3.000000 1.000000 Z" transform="scale(1.000000,1.000000) translate(36.000000,-1.000000)" opacity="1.000000"></path>
        <path d="M 5.000000 1.000000 L 23.000000 1.000000 C 25.209139 1.000000 27.000000 2.790861 27.000000 5.000000 L 27.000000 26.000000 C 27.000000 26.000000 27.000000 26.000000 27.000000 26.000000 L 1.000000 26.000000 C 1.000000 26.000000 1.000000 26.000000 1.000000 26.000000 L 1.000000 5.000000 C 1.000000 2.790861 2.790861 1.000000 5.000000 1.000000 Z" transform="scale(1.000000,1.000000) translate(18.000000,19.000000)" opacity="1.000000"></path>
    </g>
</svg>