<?xml version="1.0" encoding="UTF-8" standalone="yes"?>
<!DOCTYPE svg PUBLIC "-//W3C//DTD SVG 1.1//EN" "http://www.w3.org/Graphics/SVG/1.1/DTD/svg11.dtd">

<svg width="64" height="64" viewBox="0 0 64 64" xmlns="http://www.w3.org/2000/svg" xmlns:xlink="http://www.w3.org/1999/xlink" version="1.1" baseProfile="full">
    <g transform="scale(1.000000,-1.000000) translate(0,-64)">
        <path d="M 9.000005 5.000000 C 9.000005 7.209139 7.209143 9.000000 5.000002 9.000000 C 2.790862 9.000000 1.000000 7.209139 1.000000 5.000000 C 1.000000 2.790861 2.790862 1.000000 5.000002 1.000000 C 7.209143 1.000000 9.000005 2.790861 9.000005 5.000000 Z" transform="scale(1.000000,1.000000) translate(10.462507,27.000000)" opacity="1.000000"></path>
        <path d="M 4.950000 1.000000 L 25.050000 1.000000 C 27.231525 1.000000 29.000000 2.768475 29.000000 4.950000 L 29.000000 5.050000 C 29.000000 7.231525 27.231525 9.000000 25.050000 9.000000 L 4.950000 9.000000 C 2.768475 9.000000 1.000000 7.231525 1.000000 5.050000 L 1.000000 4.950000 C 1.000000 2.768475 2.768475 1.000000 4.950000 1.000000 Z" transform="scale(1.000000,1.000000) translate(23.512487,27.000000)" opacity="1.000000"></path>
        <path d="M 9.000000 5.000000 C 9.000000 7.209139 7.209139 9.000000 5.000000 9.000000 C 2.790861 9.000000 1.000000 7.209139 1.000000 5.000000 C 1.000000 2.790861 2.790861 1.000000 5.000000 1.000000 C 7.209139 1.000000 9.000000 2.790861 9.000000 5.000000 Z" transform="scale(1.000000,1.000000) translate(10.462521,11.708649)" opacity="1.000000"></path>
        <path d="M 4.950000 1.000000 L 25.050000 1.000000 C 27.231525 1.000000 29.000000 2.768475 29.000000 4.950000 L 29.000000 5.050000 C 29.000000 7.231525 27.231525 9.000000 25.050000 9.000000 L 4.950000 9.000000 C 2.768475 9.000000 1.000000 7.231525 1.000000 5.050000 L 1.000000 4.950000 C 1.000000 2.768475 2.768475 1.000000 4.950000 1.000000 Z" transform="scale(1.000000,1.000000) translate(23.512493,11.708649)" opacity="1.000000"></path>
        <path d="M 9.000000 5.000000 C 9.000000 7.209139 7.209139 9.000000 5.000000 9.000000 C 2.790861 9.000000 1.000000 7.209139 1.000000 5.000000 C 1.000000 2.790861 2.790861 1.000000 5.000000 1.000000 C 7.209139 1.000000 9.000000 2.790861 9.000000 5.000000 Z" transform="scale(1.000000,1.000000) translate(10.462521,42.290000)" opacity="1.000000"></path>
        <path d="M 4.950000 1.000000 L 25.050000 1.000000 C 27.231525 1.000000 29.000000 2.768475 29.000000 4.950000 L 29.000000 5.050000 C 29.000000 7.231525 27.231525 9.000000 25.050000 9.000000 L 4.950000 9.000000 C 2.768475 9.000000 1.000000 7.231525 1.000000 5.050000 L 1.000000 4.950000 C 1.000000 2.768475 2.768475 1.000000 4.950000 1.000000 Z" transform="scale(1.000000,1.000000) translate(23.512493,42.290000)" opacity="1.000000"></path>
        <path d="M 11.500001 6.000000 L 54.524985 6.000000 C 57.562551 6.000000 60.024986 8.462434 60.024986 11.500000 L 60.024986 54.790000 C 60.024986 57.827566 57.562551 60.290000 54.524985 60.290000 L 11.500001 60.290000 C 8.462434 60.290000 6.000000 57.827566 6.000000 54.790000 L 6.000000 11.500000 C 6.000000 8.462434 8.462434 6.000000 11.500001 6.000000 Z M 11.500001 1.000000 C 5.701011 1.000000 1.000000 5.701010 1.000000 11.500000 L 1.000000 54.790000 C 1.000000 60.588990 5.701011 65.290000 11.500001 65.290000 L 54.524985 65.290000 C 60.323975 65.290000 65.024986 60.588990 65.024986 54.790000 L 65.024986 11.500000 C 65.024986 5.701010 60.323975 1.000000 54.524985 1.000000 L 11.500001 1.000000 Z" transform="scale(1.000000,1.000000) translate(-1.024986,-1.000000)" opacity="1.000000"></path>
    </g>
</svg>