<?xml version="1.0" encoding="UTF-8" standalone="yes"?>
<!DOCTYPE svg PUBLIC "-//W3C//DTD SVG 1.1//EN" "http://www.w3.org/Graphics/SVG/1.1/DTD/svg11.dtd">

<svg width="64" height="64" viewBox="0 0 64 64" xmlns="http://www.w3.org/2000/svg" xmlns:xlink="http://www.w3.org/1999/xlink" version="1.1" baseProfile="full">
    <g transform="scale(1.000000,-1.000000) translate(0,-64)">
        <path d="M 54.195924 37.857725 L 61.661688 43.233475 C 60.298237 47.273083 58.141290 50.999504 55.317540 54.193853 L 46.937498 50.397644 C 44.512377 52.571540 41.659554 54.214415 38.562110 55.220835 L 37.639456 64.374251 C 33.459328 65.213272 29.153679 65.208510 24.975416 64.360246 L 24.073009 55.204812 C 20.977799 54.191544 18.128617 52.542364 15.708309 50.363109 L 7.319892 54.140776 C 4.503214 50.940188 2.354513 47.209007 1.000000 43.166393 L 8.477635 37.807168 C 7.807546 34.620004 7.811186 31.327949 8.488323 28.142275 L 1.022559 22.766525 C 2.386010 18.726917 4.542957 15.000496 7.366707 11.806147 L 15.746749 15.602356 C 18.171870 13.428460 21.024693 11.785585 24.122137 10.779165 L 25.044790 1.625749 C 29.224919 0.786728 33.530568 0.791490 37.708831 1.639754 L 38.611238 10.795188 C 41.706448 11.808456 44.555630 13.457636 46.975937 15.636891 L 55.364355 11.859224 C 58.181033 15.059812 60.329734 18.790993 61.684247 22.833607 L 54.206612 28.192832 C 54.876701 31.379996 54.873060 34.672051 54.195924 37.857725 M 40.712566 34.991749 L 40.712566 34.991749 C 41.812579 29.816597 38.509025 24.729570 33.333872 23.629558 C 28.158720 22.529545 23.071694 25.833099 21.971681 31.008251 C 20.871668 36.183403 24.175222 41.270430 29.350374 42.370442 C 34.525527 43.470455 39.612553 40.166901 40.712566 34.991749" transform="scale(1.000000,1.000000) translate(0.657877,-1.000000)" opacity="1.000000"></path>
    </g>
</svg>