<?xml version="1.0" encoding="UTF-8" standalone="yes"?>
<!DOCTYPE svg PUBLIC "-//W3C//DTD SVG 1.1//EN" "http://www.w3.org/Graphics/SVG/1.1/DTD/svg11.dtd">

<svg width="64" height="64" viewBox="0 0 64 64" xmlns="http://www.w3.org/2000/svg" xmlns:xlink="http://www.w3.org/1999/xlink" version="1.1" baseProfile="full">
    <g transform="scale(1.000000,-1.000000) translate(0,-64)">
        <path d="M 18.080691 1.021100 L 18.905591 1.083800 L 19.718591 1.187100 L 20.518591 1.330000 L 21.304491 1.511400 L 22.075391 1.730300 L 22.830191 1.985700 L 23.567891 2.276500 L 24.287491 2.601900 L 24.987891 2.960600 L 25.668191 3.351800 L 26.327291 3.774300 L 27.577891 4.709500 L 28.731491 5.757900 L 29.779891 6.911500 L 30.715091 8.162100 L 31.137591 8.821200 L 31.528791 9.501500 L 31.887491 10.201900 L 32.212891 10.921500 L 32.503691 11.659200 L 32.759091 12.414000 L 32.977991 13.184900 L 33.159391 13.970800 L 33.302291 14.770800 L 33.405591 15.583800 L 33.468291 16.408700 L 33.489391 17.244700 L 33.468291 18.080600 L 33.405591 18.905600 L 33.302291 19.718600 L 33.159391 20.518600 L 32.977991 21.304500 L 32.759091 22.075400 L 32.503691 22.830200 L 32.273591 23.413900 L 21.753891 12.894200 L 21.440091 12.637900 L 21.092291 12.454800 L 20.721591 12.345000 L 20.339691 12.308400 L 19.957691 12.345000 L 19.587091 12.454800 L 19.239191 12.637900 L 18.925391 12.894200 L 12.894191 18.925400 L 12.637891 19.239200 L 12.454791 19.587000 L 12.344991 19.957700 L 12.308391 20.339600 L 12.344991 20.721600 L 12.454791 21.092200 L 12.637891 21.440100 L 12.894191 21.753900 L 23.413791 32.273500 L 22.830191 32.503700 L 22.075391 32.759100 L 21.304491 32.978000 L 20.518591 33.159400 L 19.718591 33.302300 L 18.905591 33.405600 L 18.080691 33.468300 L 17.244691 33.489400 L 16.408791 33.468300 L 15.583791 33.405600 L 14.770791 33.302300 L 13.970791 33.159400 L 13.184891 32.978000 L 12.413991 32.759100 L 11.659191 32.503700 L 10.921491 32.212800 L 10.201891 31.887500 L 9.501491 31.528800 L 8.821191 31.137600 L 8.162091 30.715100 L 6.911491 29.779900 L 5.757891 28.731500 L 4.709491 27.577900 L 3.774291 26.327300 L 3.351791 25.668200 L 2.960591 24.987900 L 2.601891 24.287500 L 2.276591 23.567900 L 1.985691 22.830200 L 1.730291 22.075400 L 1.511391 21.304500 L 1.329991 20.518600 L 1.187091 19.718600 L 1.083791 18.905600 L 1.021091 18.080600 L 0.999991 17.244700 L 1.021091 16.408700 L 1.083791 15.583800 L 1.187091 14.770800 L 1.329991 13.970800 L 1.511391 13.184900 L 1.730291 12.414000 L 1.985691 11.659200 L 2.276591 10.921500 L 2.601891 10.201900 L 2.960591 9.501500 L 3.351791 8.821200 L 3.774291 8.162100 L 4.709491 6.911500 L 5.757891 5.757900 L 6.911491 4.709500 L 8.162091 3.774300 L 8.821191 3.351800 L 9.501491 2.960600 L 10.201891 2.601900 L 10.921491 2.276500 L 11.659191 1.985700 L 12.413991 1.730300 L 13.184891 1.511400 L 13.970791 1.330000 L 14.770791 1.187100 L 15.583791 1.083800 L 16.408791 1.021100 L 17.244691 0.999900 Z" transform="scale(1.000000,1.000000) translate(30.509209,30.437500)" opacity="1.000000"></path>
        <path d="M 7.306716 1.026024 L 7.848116 1.104124 L 8.381416 1.234324 L 8.902616 1.416624 L 9.407616 1.651024 L 9.892416 1.937524 L 10.352916 2.276024 L 10.785116 2.666724 L 44.562616 36.444224 L 36.444216 44.562624 L 2.666716 10.785024 L 2.276016 10.352924 L 1.937516 9.892424 L 1.651016 9.407624 L 1.416616 8.902624 L 1.234316 8.381424 L 1.104116 7.848124 L 1.026016 7.306724 L 0.999916 6.761224 L 1.026016 6.215824 L 1.104116 5.674324 L 1.234316 5.141024 L 1.416616 4.619824 L 1.651016 4.114824 L 1.937516 3.630124 L 2.276016 3.169624 L 2.666716 2.737424 L 2.737416 2.666724 L 3.169616 2.276024 L 3.630116 1.937524 L 4.114816 1.651024 L 4.619816 1.416624 L 5.141016 1.234324 L 5.674416 1.104124 L 6.215816 1.026024 L 6.761216 0.999924 Z M 7.343216 5.055624 L 6.791316 5.226924 L 6.292016 5.497924 L 5.856916 5.856924 L 5.497916 6.292024 L 5.226916 6.791324 L 5.055616 7.343224 L 4.995816 7.935624 L 5.055616 8.528124 L 5.226916 9.079924 L 5.497916 9.579324 L 5.856916 10.014424 L 6.292016 10.373424 L 6.791316 10.644424 L 7.343216 10.815724 L 7.935616 10.875424 L 8.528116 10.815724 L 9.079916 10.644424 L 9.579316 10.373424 L 10.014416 10.014424 L 10.373416 9.579324 L 10.644416 9.079924 L 10.815716 8.528124 L 10.875416 7.935624 L 10.815716 7.343224 L 10.644416 6.791324 L 10.373416 6.292024 L 10.014416 5.856924 L 9.579316 5.497924 L 9.079916 5.226924 L 8.528116 5.055624 L 7.935616 4.995824 Z" transform="scale(1.000000,1.000000) translate(-0.653616,-0.725324)" opacity="1.000000"></path>
    </g>
</svg>