<?xml version="1.0" encoding="UTF-8" standalone="yes"?>
<!DOCTYPE svg PUBLIC "-//W3C//DTD SVG 1.1//EN" "http://www.w3.org/Graphics/SVG/1.1/DTD/svg11.dtd">

<svg width="500" height="500" viewBox="0 0 500 500" xmlns="http://www.w3.org/2000/svg" xmlns:xlink="http://www.w3.org/1999/xlink" version="1.1" baseProfile="full">
    <g transform="scale(1.000000,-1.000000) translate(0,-500)">
        <path d="M 181.530716 46.482869 L 137.091120 227.273225 L 1.000000 1.000000 Z" transform="scale(1.000000,1.000000) translate(256.745698,257.895253)" fill="#ffffff" opacity="1.000000"></path>
        <path d="M 221.615583 1.070186 L 227.131883 1.279786 L 232.611783 1.627086 L 238.053783 2.110286 L 243.455983 2.727886 L 248.816883 3.477986 L 254.134683 4.358986 L 259.407683 5.369286 L 264.634283 6.507086 L 269.812683 7.770786 L 274.941283 9.158586 L 280.018283 10.668786 L 285.042183 12.299886 L 290.011083 14.049986 L 294.923483 15.917586 L 299.777483 17.900786 L 304.571683 19.998086 L 309.304083 22.207686 L 313.973183 24.527886 L 318.577283 26.957086 L 323.114583 29.493586 L 327.583483 32.135586 L 331.982383 34.881486 L 336.309383 37.729586 L 340.562883 40.678286 L 344.741283 43.725686 L 348.842783 46.870286 L 352.865783 50.110286 L 356.808483 53.443986 L 360.669283 56.869886 L 364.446483 60.386086 L 368.138383 63.990986 L 371.743183 67.682786 L 375.259383 71.459986 L 378.685283 75.320786 L 382.018983 79.263486 L 385.258983 83.286486 L 388.403583 87.387986 L 391.451083 91.566386 L 394.399683 95.819886 L 397.247783 100.146986 L 399.993683 104.545786 L 402.635783 109.014686 L 405.172183 113.552086 L 407.601383 118.156086 L 409.921583 122.825186 L 412.131183 127.557686 L 414.228483 132.351786 L 416.211783 137.205786 L 418.079283 142.118186 L 419.829383 147.087186 L 421.460483 152.110986 L 422.970683 157.188086 L 424.358583 162.316586 L 425.622183 167.495086 L 426.759983 172.721586 L 427.770283 177.994586 L 428.651283 183.312386 L 429.401483 188.673286 L 430.018983 194.075486 L 430.502183 199.517486 L 430.849483 204.997486 L 431.059083 210.513686 L 431.129383 216.064686 L 328.213983 216.064686 L 328.178183 213.233086 L 328.071283 210.419286 L 327.894083 207.623986 L 327.647583 204.847986 L 327.332583 202.092386 L 326.949983 199.357786 L 326.500483 196.645186 L 325.985183 193.955386 L 325.404783 191.289386 L 324.760183 188.647886 L 324.052283 186.031786 L 323.281883 183.441986 L 322.449883 180.879286 L 321.557183 178.344686 L 320.604483 175.838886 L 319.592883 173.362786 L 318.523083 170.917286 L 317.395983 168.503286 L 316.212383 166.121586 L 314.973283 163.773086 L 313.679383 161.458586 L 312.331683 159.178986 L 310.931083 156.935186 L 309.478183 154.727986 L 307.974083 152.558186 L 306.419683 150.426886 L 304.815583 148.334686 L 303.162883 146.282586 L 301.462283 144.271386 L 299.714783 142.301986 L 297.921183 140.375286 L 296.082383 138.491986 L 294.199083 136.653186 L 292.272383 134.859586 L 290.302983 133.112086 L 288.291783 131.411486 L 286.239683 129.758786 L 284.147583 128.154786 L 282.016183 126.600286 L 279.846383 125.096186 L 277.639183 123.643386 L 275.395383 122.242686 L 273.115783 120.894986 L 270.801283 119.601086 L 268.452783 118.361986 L 266.071083 117.178386 L 263.657083 116.051286 L 261.211583 114.981486 L 258.735483 113.969886 L 256.229783 113.017186 L 253.695083 112.124486 L 251.132383 111.292486 L 248.542583 110.522086 L 245.926583 109.814186 L 243.284983 109.169586 L 240.618983 108.589186 L 237.929183 108.073886 L 235.216583 107.624386 L 232.482083 107.241786 L 229.726383 106.926786 L 226.950383 106.680286 L 224.155083 106.503186 L 221.341283 106.396186 L 218.509783 106.360386 L 215.678183 106.396186 L 212.864383 106.503186 L 210.069083 106.680286 L 207.293083 106.926786 L 204.537383 107.241786 L 201.802883 107.624386 L 199.090283 108.073886 L 196.400483 108.589186 L 193.734483 109.169586 L 191.092883 109.814186 L 188.476883 110.522086 L 185.887083 111.292486 L 183.324383 112.124486 L 180.789683 113.017186 L 178.283983 113.969886 L 175.807883 114.981486 L 173.362383 116.051286 L 170.948383 117.178386 L 168.566683 118.361986 L 166.218183 119.601086 L 163.903683 120.894986 L 161.624083 122.242686 L 159.380283 123.643386 L 157.173083 125.096186 L 155.003283 126.600286 L 152.871883 128.154786 L 150.779783 129.758786 L 148.727683 131.411486 L 146.716483 133.112086 L 144.747083 134.859586 L 142.820383 136.653186 L 140.937083 138.491986 L 139.098283 140.375286 L 137.304683 142.301986 L 135.557183 144.271386 L 133.856583 146.282586 L 132.203883 148.334686 L 130.599783 150.426886 L 129.045383 152.558186 L 127.541283 154.727986 L 126.088383 156.935186 L 124.687783 159.178986 L 123.340083 161.458586 L 122.046183 163.773086 L 120.807083 166.121586 L 119.623483 168.503286 L 118.496383 170.917286 L 117.426583 173.362786 L 116.414983 175.838886 L 115.462283 178.344686 L 114.569583 180.879286 L 113.737583 183.441986 L 112.967183 186.031786 L 112.259283 188.647886 L 111.614683 191.289386 L 111.034283 193.955386 L 110.518983 196.645186 L 110.069483 199.357786 L 109.686883 202.092386 L 109.371883 204.847986 L 109.125383 207.623986 L 108.948183 210.419286 L 108.841283 213.233086 L 108.805483 216.064686 L 108.841283 218.896186 L 108.948183 221.709986 L 109.125383 224.505286 L 109.371883 227.281286 L 109.686883 230.036986 L 110.069483 232.771486 L 110.518983 235.484086 L 111.034283 238.173886 L 111.614683 240.839986 L 112.259283 243.481486 L 112.967183 246.097486 L 113.737583 248.687286 L 114.569583 251.249986 L 115.462283 253.784686 L 116.414983 256.290386 L 117.426583 258.766486 L 118.496383 261.211986 L 119.623483 263.625986 L 120.807083 266.007686 L 122.046183 268.356186 L 123.340083 270.670686 L 124.687783 272.950286 L 126.088383 275.194086 L 127.541283 277.401286 L 129.045383 279.571086 L 130.599783 281.702486 L 132.203883 283.794586 L 133.856583 285.846786 L 135.557183 287.857886 L 137.304683 289.827286 L 139.098283 291.754086 L 140.937083 293.637286 L 142.820383 295.476086 L 144.747083 297.269686 L 146.716483 299.017186 L 148.727683 300.717786 L 150.779783 302.370486 L 152.871883 303.974586 L 155.003283 305.529086 L 157.173083 307.033086 L 159.380283 308.485986 L 161.624083 309.886686 L 163.903683 311.234386 L 166.218183 312.528186 L 168.566683 313.767286 L 170.948383 314.950886 L 173.362383 316.077986 L 175.807883 317.147786 L 178.283983 318.159486 L 180.789683 319.112086 L 183.324383 320.004786 L 185.887083 320.836786 L 188.476883 321.607186 L 191.092883 322.315086 L 193.734483 322.959686 L 196.400483 323.540086 L 199.090283 324.055386 L 201.802883 324.504886 L 204.537383 324.887486 L 207.293083 325.202486 L 210.069083 325.448986 L 212.864383 325.626186 L 215.678183 325.733086 L 218.509783 325.768886 L 221.341283 325.733086 L 224.155083 325.626186 L 226.950383 325.448986 L 229.726383 325.202486 L 232.482083 324.887486 L 235.216583 324.504886 L 237.929183 324.055386 L 240.618983 323.540086 L 243.284983 322.959686 L 245.926583 322.315086 L 248.542583 321.607186 L 251.132383 320.836786 L 253.695083 320.004786 L 256.229783 319.112086 L 258.735483 318.159486 L 261.211583 317.147786 L 263.657083 316.077986 L 266.071083 314.950886 L 268.452783 313.767286 L 270.801283 312.528186 L 271.524483 312.123886 L 323.596983 402.316186 L 320.519183 404.059486 L 317.416283 405.750386 L 314.289083 407.388486 L 311.138083 408.973686 L 307.964183 410.505686 L 304.767883 411.984486 L 301.549983 413.409786 L 298.311083 414.781486 L 295.051983 416.099286 L 291.773283 417.363086 L 288.475583 418.572686 L 285.159683 419.727886 L 281.826283 420.828486 L 278.475983 421.874386 L 275.109483 422.865386 L 271.727483 423.801186 L 268.330683 424.681686 L 264.919783 425.506786 L 261.495383 426.276186 L 258.058183 426.989686 L 254.608983 427.647186 L 251.148283 428.248486 L 247.676883 428.793386 L 244.195483 429.281686 L 240.704683 429.713286 L 237.205283 430.087886 L 233.697883 430.405286 L 230.183083 430.665486 L 226.661683 430.868186 L 223.134383 431.013086 L 219.601783 431.100286 L 216.064683 431.129386 L 210.513683 431.059086 L 204.997483 430.849486 L 199.517483 430.502186 L 194.075483 430.018986 L 188.673283 429.401486 L 183.312383 428.651286 L 177.994583 427.770286 L 172.721583 426.759986 L 167.495083 425.622186 L 162.316583 424.358486 L 157.188083 422.970686 L 152.110983 421.460486 L 147.087183 419.829386 L 142.118183 418.079286 L 137.205883 416.211686 L 132.351783 414.228486 L 127.557683 412.131186 L 122.825183 409.921586 L 118.156083 407.601386 L 113.552083 405.172186 L 109.014683 402.635686 L 104.545783 399.993686 L 100.146983 397.247786 L 95.819883 394.399686 L 91.566383 391.451086 L 87.387983 388.403586 L 83.286483 385.258986 L 79.263483 382.018986 L 75.320783 378.685286 L 71.459983 375.259386 L 67.682783 371.743186 L 63.990983 368.138386 L 60.386083 364.446486 L 56.869883 360.669286 L 53.444083 356.808486 L 50.110283 352.865786 L 46.870283 348.842786 L 43.725683 344.741286 L 40.678283 340.562886 L 37.729583 336.309386 L 34.881483 331.982286 L 32.135583 327.583486 L 29.493583 323.114586 L 26.957083 318.577286 L 24.527883 313.973186 L 22.207683 309.304086 L 19.998083 304.571686 L 17.900783 299.777486 L 15.917583 294.923486 L 14.049983 290.011086 L 12.299883 285.042186 L 10.668783 280.018286 L 9.158583 274.941286 L 7.770783 269.812686 L 6.507083 264.634286 L 5.369283 259.407686 L 4.358983 254.134686 L 3.477983 248.816886 L 2.727883 243.455986 L 2.110283 238.053786 L 1.627083 232.611786 L 1.279783 227.131886 L 1.070183 221.615586 L 0.999983 216.064686 L 1.070183 210.513686 L 1.279783 204.997486 L 1.627083 199.517486 L 2.110283 194.075486 L 2.727883 188.673286 L 3.477983 183.312386 L 4.358983 177.994586 L 5.369283 172.721586 L 6.507083 167.495086 L 7.770783 162.316586 L 9.158583 157.188086 L 10.668783 152.110986 L 12.299883 147.087186 L 14.049983 142.118186 L 15.917583 137.205786 L 17.900783 132.351786 L 19.998083 127.557686 L 22.207683 122.825186 L 24.527883 118.156086 L 26.957083 113.552086 L 29.493583 109.014686 L 32.135583 104.545786 L 34.881483 100.146986 L 37.729583 95.819886 L 40.678283 91.566386 L 43.725683 87.387986 L 46.870283 83.286486 L 50.110283 79.263486 L 53.444083 75.320786 L 56.869883 71.459986 L 60.386083 67.682786 L 63.990983 63.990986 L 67.682783 60.386086 L 71.459983 56.869886 L 75.320783 53.443986 L 79.263483 50.110286 L 83.286483 46.870286 L 87.387983 43.725686 L 91.566383 40.678286 L 95.819883 37.729586 L 100.146983 34.881486 L 104.545783 32.135586 L 109.014683 29.493586 L 113.552083 26.957086 L 118.156083 24.527886 L 122.825183 22.207686 L 127.557683 19.998086 L 132.351783 17.900786 L 137.205883 15.917586 L 142.118183 14.049986 L 147.087183 12.299886 L 152.110983 10.668786 L 157.188083 9.158586 L 162.316583 7.770786 L 167.495083 6.507086 L 172.721583 5.369286 L 177.994583 4.358986 L 183.312383 3.477986 L 188.673283 2.727886 L 194.075483 2.110286 L 199.517483 1.627086 L 204.997483 1.279786 L 210.513683 1.070186 L 216.064683 0.999986 Z" transform="scale(1.000000,1.000000) translate(31.490217,16.601114)" fill="#ffffff" opacity="1.000000"></path>
        <path d="M 231.745094 21.164450 L 237.261394 21.374050 L 237.622100 11.880900 L 237.021223 21.361878 L 242.501123 21.709178 L 243.102000 12.228200 L 242.261792 21.690972 L 247.703792 22.174172 L 248.544000 12.711400 L 247.464953 22.149920 L 252.867153 22.767520 L 253.946200 13.329000 L 252.629779 22.737349 L 257.990679 23.487449 L 259.307100 14.079100 L 257.754399 23.451353 L 263.072199 24.332353 L 264.624900 14.960100 L 262.837229 24.290386 L 268.110229 25.300686 L 269.897900 15.970400 L 267.877135 25.252992 L 273.103735 26.390792 L 275.124500 17.108200 L 272.872280 26.337366 L 278.050680 27.601066 L 280.302900 18.371900 L 277.821445 27.542090 L 282.950045 28.929890 L 285.431500 19.759700 L 282.722929 28.865393 L 287.799929 30.375593 L 290.508500 21.269900 L 287.574895 30.305605 L 292.598795 31.936705 L 295.532400 22.901000 L 292.376430 31.861460 L 297.345330 33.611560 L 300.501300 24.651100 L 297.125329 33.531011 L 302.037729 35.398611 L 305.413700 26.518700 L 301.820611 35.313000 L 306.674611 37.296200 L 310.267700 28.501900 L 306.460169 37.205503 L 311.254369 39.302803 L 315.061900 30.599200 L 311.042775 39.207140 L 315.775175 41.416740 L 319.794300 32.808800 L 315.566701 41.316291 L 320.235801 43.636491 L 324.463400 35.129000 L 320.030252 43.531214 L 324.634352 45.960414 L 329.067500 37.558200 L 324.431874 45.850424 L 328.969174 48.386924 L 333.604800 40.094700 L 328.770127 48.272471 L 333.239027 50.914471 L 338.073700 42.736700 L 333.043206 50.795492 L 337.442106 53.541392 L 342.472600 45.482600 L 337.249465 53.417892 L 341.576465 56.265992 L 346.799600 48.330700 L 341.387181 56.138115 L 345.640681 59.086815 L 351.053100 51.279400 L 345.455185 58.954903 L 349.633585 62.002303 L 355.231500 54.326800 L 349.451265 61.865957 L 353.552765 65.010557 L 359.333000 57.471400 L 353.374206 64.870236 L 357.397206 68.110236 L 363.356000 60.711400 L 357.222155 67.965775 L 361.164855 71.299475 L 367.298700 64.045100 L 360.993335 71.150898 L 364.854135 74.576798 L 371.159500 67.471000 L 364.686520 74.424455 L 368.463720 77.940655 L 374.936700 70.987200 L 368.299750 77.784324 L 371.991650 81.389224 L 378.628600 74.592100 L 371.831473 81.229047 L 375.436273 84.920847 L 382.233400 78.283900 L 375.279945 84.756880 L 378.796145 88.534080 L 385.749600 82.061100 L 378.643802 88.366465 L 382.069702 92.227265 L 389.175500 85.921900 L 381.921125 92.055745 L 385.254825 95.998445 L 392.509200 89.864600 L 385.110364 95.823394 L 388.350364 99.846394 L 395.749200 93.887600 L 388.210043 99.667835 L 391.354643 103.769335 L 398.893800 97.989100 L 391.218384 103.587135 L 394.265884 107.765535 L 401.941300 102.167500 L 394.133799 107.579795 L 397.082399 111.833295 L 404.889900 106.421000 L 396.954552 111.644051 L 399.802652 115.971151 L 407.738000 110.748100 L 399.679259 115.778676 L 402.425159 120.177476 L 410.483900 115.146900 L 402.306209 119.981709 L 404.948309 124.450609 L 413.126000 119.615800 L 404.833655 124.251209 L 407.370055 128.788609 L 415.662400 124.153200 L 407.260226 128.586424 L 409.689426 133.190424 L 418.091600 128.757200 L 409.584109 132.984799 L 411.904309 137.653899 L 420.411800 133.426300 L 411.803827 137.445355 L 414.013427 142.177855 L 422.621400 138.158800 L 413.917826 141.966398 L 416.015126 146.760498 L 424.718700 142.952900 L 415.924464 146.546145 L 417.907764 151.400145 L 426.702000 147.806900 L 417.822029 151.182713 L 419.689529 156.095113 L 428.569500 152.719300 L 419.609020 155.875214 L 421.359120 160.844214 L 430.319600 157.688300 L 421.283912 160.621958 L 422.915012 165.645758 L 431.950700 162.712100 L 422.844993 165.420622 L 424.355193 170.497722 L 433.460900 167.789200 L 424.290767 170.270867 L 425.678667 175.399367 L 434.848800 172.917700 L 425.619583 175.169711 L 426.883183 180.348211 L 436.112400 178.096200 L 426.829816 180.117002 L 427.967616 185.343502 L 437.250200 183.322700 L 427.919914 185.110371 L 428.930214 190.383371 L 438.260500 188.595700 L 428.888247 190.148401 L 429.769247 195.466201 L 439.141500 193.913500 L 429.733175 195.230093 L 430.483375 200.590993 L 439.891700 199.274400 L 430.453160 200.353275 L 431.070660 205.755475 L 440.509200 204.676600 L 431.046428 205.516808 L 431.529628 210.958808 L 440.992400 210.118600 L 431.511421 210.719466 L 431.858721 216.199466 L 441.339700 215.598600 L 431.846551 215.959313 L 432.056151 221.475513 L 441.549300 221.114800 L 432.050062 221.235102 L 432.120362 226.786102 L 441.619600 226.665800 L 441.619600 217.165800 L 338.704200 217.165800 L 338.704200 226.665800 L 348.203441 226.545701 L 348.167641 223.714101 C 348.166627 223.633892 348.164597 223.553700 348.161552 223.473543 L 348.054652 220.659743 C 348.051606 220.579574 348.047545 220.499447 348.042469 220.419381 L 347.865269 217.624081 C 347.860209 217.544259 347.854141 217.464505 347.847067 217.384836 L 347.600567 214.608836 C 347.593493 214.529177 347.585414 214.449611 347.576332 214.370156 L 347.261332 211.614556 C 347.252272 211.535304 347.242215 211.456168 347.231162 211.377169 L 346.848562 208.642569 C 346.837501 208.563514 346.825445 208.484602 346.812395 208.405851 L 346.362895 205.693251 C 346.349918 205.614941 346.335961 205.536797 346.321026 205.458837 L 345.805726 202.769037 C 345.790784 202.691043 345.774865 202.613239 345.757972 202.535643 L 345.177572 199.869643 C 345.160737 199.792317 345.142938 199.715204 345.124176 199.638322 L 344.479576 196.996822 C 344.460872 196.920173 344.441213 196.843760 344.420605 196.767601 L 343.712705 194.151501 C 343.692131 194.075469 343.670612 193.999695 343.648154 193.924198 L 342.877754 191.334398 C 342.855376 191.259173 342.832068 191.184228 342.807833 191.109581 L 341.975833 188.546881 C 341.951664 188.472437 341.926576 188.398295 341.900575 188.324472 L 341.007875 185.789872 C 340.981910 185.716151 340.955037 185.642753 340.927260 185.569695 L 339.974560 183.063895 C 339.946953 182.991282 339.918456 182.919010 339.889075 182.847096 L 338.877475 180.370996 C 338.848106 180.299108 338.817857 180.227584 338.786734 180.156438 L 337.716934 177.710938 C 337.685908 177.640015 337.654016 177.569473 337.621265 177.499329 L 336.494165 175.085329 C 336.461491 175.015347 336.427964 174.945766 336.393592 174.876601 L 335.209992 172.494901 C 335.175769 172.426035 335.140711 172.357588 335.104825 172.289574 L 333.865725 169.941074 C 333.829869 169.873115 333.793190 169.805593 333.755696 169.738524 L 332.461796 167.424024 C 332.424453 167.357227 332.386305 167.290883 332.347359 167.225007 L 330.999659 164.945407 C 330.960810 164.879694 330.921170 164.814452 330.880748 164.749695 L 329.480148 162.505895 C 329.439693 162.441085 329.398457 162.376765 329.356450 162.312949 L 327.903550 160.105749 C 327.861781 160.042295 327.819252 159.979344 327.775973 159.916910 L 326.271873 157.747110 C 326.228596 157.684679 326.184572 157.622770 326.139811 157.561395 L 324.585411 155.430095 C 324.540678 155.368760 324.495211 155.307964 324.449021 155.247719 L 322.844921 153.155519 C 322.798871 153.095456 322.752105 153.035946 322.704632 152.977002 L 321.051932 150.924902 C 321.004447 150.865940 320.956258 150.807549 320.907376 150.749739 L 319.206776 148.738539 C 319.158000 148.680855 319.108538 148.623754 319.058400 148.567249 L 317.310900 146.597849 C 317.260735 146.541314 317.209896 146.485379 317.158396 146.430057 L 315.364796 144.503357 C 315.313429 144.448178 315.261407 144.393613 315.208741 144.339672 L 313.369941 142.456372 C 313.317045 142.402196 313.263504 142.348655 313.209328 142.295759 L 311.326028 140.456959 C 311.272087 140.404293 311.217522 140.352271 311.162343 140.300904 L 309.235643 138.507304 C 309.180321 138.455804 309.124386 138.404965 309.067851 138.354800 L 307.098451 136.607300 C 307.041946 136.557162 306.984845 136.507700 306.927161 136.458924 L 304.915961 134.758324 C 304.858151 134.709442 304.799760 134.661253 304.740798 134.613768 L 302.688698 132.961068 C 302.629736 132.913581 302.570209 132.866801 302.510128 132.820738 L 300.418028 131.216738 C 300.357821 131.170578 300.297064 131.125140 300.235768 131.080436 L 298.104368 129.525936 C 298.042973 129.481158 297.981042 129.437119 297.918590 129.393827 L 295.748790 127.889727 C 295.686274 127.846391 295.623239 127.803807 295.559700 127.761985 L 293.352500 126.309185 C 293.288851 126.267291 293.224701 126.226164 293.160063 126.185814 L 290.916263 124.785114 C 290.851421 124.744636 290.786093 124.704942 290.720293 124.666041 L 288.440693 123.318341 C 288.374817 123.279395 288.308473 123.241247 288.241676 123.203904 L 285.927176 121.910004 C 285.860107 121.872510 285.792585 121.835831 285.724626 121.799975 L 283.376126 120.560875 C 283.308112 120.524989 283.239665 120.489931 283.170799 120.455708 L 280.789099 119.272108 C 280.719934 119.237736 280.650353 119.204209 280.580371 119.171535 L 278.166371 118.044435 C 278.096227 118.011684 278.025685 117.979792 277.954762 117.948766 L 275.509262 116.878966 C 275.438116 116.847843 275.366592 116.817594 275.294704 116.788225 L 272.818604 115.776625 C 272.746729 115.747260 272.674496 115.718778 272.601922 115.691185 L 270.096222 114.738485 C 270.023089 114.710678 269.949615 114.683777 269.875818 114.657786 L 267.341118 113.765086 C 267.267331 113.739099 267.193226 113.714024 267.118819 113.689867 L 264.556119 112.857867 C 264.481472 112.833632 264.406527 112.810324 264.331302 112.787946 L 261.741502 112.017546 C 261.666034 111.995096 261.590290 111.973586 261.514287 111.953019 L 258.898287 111.245119 C 258.822072 111.224495 258.745603 111.204822 258.668897 111.186104 L 256.027297 110.541504 C 255.950442 110.522750 255.873356 110.504957 255.796057 110.488128 L 253.130057 109.907728 C 253.052461 109.890835 252.974657 109.874916 252.896663 109.859974 L 250.206863 109.344674 C 250.128903 109.329739 250.050759 109.315782 249.972449 109.302805 L 247.259849 108.853305 C 247.181114 108.840258 247.102217 108.828204 247.023178 108.817145 L 244.288678 108.434545 C 244.209651 108.423488 244.130486 108.413426 244.051205 108.404364 L 241.295505 108.089364 C 241.216063 108.080283 241.136510 108.072205 241.056864 108.065133 L 238.280864 107.818633 C 238.201083 107.811549 238.121215 107.805474 238.041281 107.800409 L 235.245981 107.623309 C 235.166140 107.618251 235.086238 107.614201 235.006294 107.611161 L 232.192494 107.504161 C 232.112226 107.501109 232.031923 107.499075 231.951603 107.498059 L 229.120103 107.462259 C 229.040039 107.461247 228.959965 107.461247 228.879901 107.462259 L 226.048301 107.498059 C 225.967980 107.499075 225.887675 107.501109 225.807406 107.504161 L 222.993606 107.611161 C 222.913662 107.614201 222.833760 107.618251 222.753919 107.623309 L 219.958619 107.800409 C 219.878685 107.805474 219.798817 107.811549 219.719036 107.818633 L 216.943036 108.065133 C 216.863390 108.072205 216.783837 108.080283 216.704395 108.089364 L 213.948695 108.404364 C 213.869414 108.413426 213.790249 108.423488 213.711222 108.434545 L 210.976722 108.817145 C 210.897683 108.828204 210.818786 108.840258 210.740051 108.853305 L 208.027451 109.302805 C 207.949141 109.315782 207.870997 109.329739 207.793037 109.344674 L 205.103237 109.859974 C 205.025243 109.874916 204.947439 109.890835 204.869843 109.907728 L 202.203843 110.488128 C 202.126544 110.504957 202.049458 110.522750 201.972603 110.541504 L 199.331003 111.186104 C 199.254297 111.204822 199.177828 111.224495 199.101613 111.245119 L 196.485613 111.953019 C 196.409610 111.973586 196.333866 111.995096 196.258398 112.017546 L 193.668598 112.787946 C 193.593373 112.810324 193.518428 112.833632 193.443781 112.857867 L 190.881081 113.689867 C 190.806674 113.714024 190.732569 113.739099 190.658782 113.765086 L 188.124082 114.657786 C 188.050285 114.683777 187.976811 114.710678 187.903678 114.738485 L 185.397978 115.691185 C 185.325404 115.718778 185.253171 115.747260 185.181296 115.776625 L 182.705196 116.788225 C 182.633308 116.817594 182.561784 116.847843 182.490638 116.878966 L 180.045138 117.948766 C 179.974215 117.979792 179.903673 118.011684 179.833529 118.044435 L 177.419529 119.171535 C 177.349547 119.204209 177.279966 119.237736 177.210801 119.272108 L 174.829101 120.455708 C 174.760235 120.489931 174.691788 120.524989 174.623774 120.560875 L 172.275274 121.799975 C 172.207315 121.835831 172.139793 121.872510 172.072724 121.910004 L 169.758224 123.203904 C 169.691427 123.241247 169.625083 123.279395 169.559207 123.318341 L 167.279607 124.666041 C 167.213807 124.704942 167.148479 124.744636 167.083637 124.785114 L 164.839837 126.185814 C 164.775199 126.226164 164.711049 126.267291 164.647400 126.309185 L 162.440200 127.761985 C 162.376661 127.803807 162.313626 127.846391 162.251110 127.889727 L 160.081310 129.393827 C 160.018858 129.437119 159.956927 129.481158 159.895532 129.525936 L 157.764132 131.080436 C 157.702836 131.125140 157.642079 131.170578 157.581872 131.216738 L 155.489772 132.820738 C 155.429691 132.866801 155.370164 132.913581 155.311202 132.961068 L 153.259102 134.613768 C 153.200140 134.661253 153.141749 134.709442 153.083939 134.758324 L 151.072739 136.458924 C 151.015055 136.507700 150.957954 136.557162 150.901449 136.607300 L 148.932049 138.354800 C 148.875514 138.404965 148.819579 138.455804 148.764257 138.507304 L 146.837557 140.300904 C 146.782378 140.352271 146.727813 140.404293 146.673872 140.456959 L 144.790572 142.295759 C 144.736396 142.348655 144.682855 142.402196 144.629959 142.456372 L 142.791159 144.339672 C 142.738493 144.393613 142.686471 144.448178 142.635104 144.503357 L 140.841504 146.430057 C 140.790004 146.485379 140.739165 146.541314 140.689000 146.597849 L 138.941500 148.567249 C 138.891362 148.623754 138.841900 148.680855 138.793124 148.738539 L 137.092524 150.749739 C 137.043642 150.807549 136.995453 150.865940 136.947968 150.924902 L 135.295268 152.977002 C 135.247795 153.035946 135.201029 153.095456 135.154979 153.155519 L 133.550879 155.247719 C 133.504689 155.307964 133.459222 155.368760 133.414489 155.430095 L 131.860089 157.561395 C 131.815328 157.622770 131.771304 157.684679 131.728027 157.747110 L 130.223927 159.916910 C 130.180648 159.979344 130.138119 160.042295 130.096350 160.105749 L 128.643450 162.312949 C 128.601443 162.376765 128.560207 162.441085 128.519752 162.505895 L 127.119152 164.749695 C 127.078730 164.814452 127.039090 164.879694 127.000241 164.945407 L 125.652541 167.225007 C 125.613595 167.290883 125.575447 167.357227 125.538104 167.424024 L 124.244204 169.738524 C 124.206710 169.805593 124.170031 169.873115 124.134175 169.941074 L 122.895075 172.289574 C 122.859189 172.357588 122.824131 172.426035 122.789908 172.494901 L 121.606308 174.876601 C 121.571936 174.945766 121.538409 175.015347 121.505735 175.085329 L 120.378635 177.499329 C 120.345884 177.569473 120.313992 177.640015 120.282966 177.710938 L 119.213166 180.156438 C 119.182043 180.227584 119.151794 180.299108 119.122425 180.370996 L 118.110825 182.847096 C 118.081444 182.919010 118.052947 182.991282 118.025340 183.063895 L 117.072640 185.569695 C 117.044863 185.642753 117.017990 185.716151 116.992025 185.789872 L 116.099325 188.324472 C 116.073324 188.398295 116.048236 188.472437 116.024067 188.546881 L 115.192067 191.109581 C 115.167832 191.184228 115.144524 191.259173 115.122146 191.334398 L 114.351746 193.924198 C 114.329288 193.999695 114.307769 194.075469 114.287195 194.151501 L 113.579295 196.767601 C 113.558687 196.843760 113.539028 196.920173 113.520324 196.996822 L 112.875724 199.638322 C 112.856962 199.715204 112.839163 199.792317 112.822328 199.869643 L 112.241928 202.535643 C 112.225035 202.613239 112.209116 202.691043 112.194174 202.769037 L 111.678874 205.458837 C 111.663939 205.536797 111.649982 205.614941 111.637005 205.693251 L 111.187505 208.405851 C 111.174455 208.484602 111.162399 208.563514 111.151338 208.642569 L 110.768738 211.377169 C 110.757685 211.456168 110.747628 211.535304 110.738568 211.614556 L 110.423568 214.370156 C 110.414486 214.449611 110.406407 214.529177 110.399333 214.608836 L 110.152833 217.384836 C 110.145759 217.464505 110.139691 217.544259 110.134631 217.624081 L 109.957431 220.419381 C 109.952355 220.499447 109.948294 220.579574 109.945248 220.659743 L 109.838348 223.473543 C 109.835303 223.553700 109.833273 223.633892 109.832259 223.714101 L 109.796459 226.545701 C 109.795447 226.625765 109.795447 226.705839 109.796459 226.785903 L 109.832259 229.617403 C 109.833273 229.697611 109.835303 229.777802 109.838348 229.857957 L 109.945248 232.671757 C 109.948294 232.751926 109.952355 232.832053 109.957431 232.912119 L 110.134631 235.707419 C 110.139691 235.787241 110.145759 235.866995 110.152833 235.946664 L 110.399333 238.722664 C 110.406405 238.802310 110.414483 238.881863 110.423564 238.961305 L 110.738564 241.717005 C 110.747626 241.796286 110.757688 241.875451 110.768745 241.954478 L 111.151345 244.688978 C 111.162404 244.768017 111.174458 244.846914 111.187505 244.925649 L 111.637005 247.638249 C 111.649982 247.716559 111.663939 247.794703 111.678874 247.872663 L 112.194174 250.562463 C 112.209112 250.640433 112.225026 250.718213 112.241913 250.795785 L 112.822313 253.461885 C 112.839151 253.539235 112.856957 253.616372 112.875724 253.693278 L 113.520324 256.334778 C 113.539035 256.411456 113.558702 256.487899 113.579319 256.564087 L 114.287219 259.180087 C 114.307786 259.256090 114.329296 259.331834 114.351746 259.407302 L 115.122146 261.997102 C 115.144524 262.072327 115.167832 262.147272 115.192067 262.221919 L 116.024067 264.784619 C 116.048224 264.859026 116.073299 264.933131 116.099286 265.006918 L 116.991986 267.541618 C 117.017977 267.615415 117.044878 267.688889 117.072685 267.762022 L 118.025385 270.267722 C 118.052978 270.340296 118.081460 270.412529 118.110825 270.484404 L 119.122425 272.960504 C 119.151794 273.032392 119.182043 273.103916 119.213166 273.175062 L 120.282966 275.620562 C 120.313992 275.691485 120.345884 275.762027 120.378635 275.832171 L 121.505735 278.246171 C 121.538409 278.316153 121.571936 278.385734 121.606308 278.454899 L 122.789908 280.836599 C 122.824131 280.905465 122.859189 280.973912 122.895075 281.041926 L 124.134175 283.390426 C 124.170031 283.458385 124.206710 283.525907 124.244204 283.592976 L 125.538104 285.907476 C 125.575447 285.974273 125.613595 286.040617 125.652541 286.106493 L 127.000241 288.386093 C 127.039090 288.451806 127.078730 288.517048 127.119152 288.581805 L 128.519752 290.825605 C 128.560207 290.890415 128.601443 290.954735 128.643450 291.018551 L 130.096350 293.225751 C 130.138119 293.289205 130.180648 293.352156 130.223927 293.414590 L 131.728027 295.584390 C 131.771263 295.646763 131.815246 295.708615 131.859964 295.769933 L 133.414364 297.901333 C 133.459180 297.962785 133.504733 298.023697 133.551012 298.084055 L 135.155112 300.176155 C 135.201073 300.236099 135.247748 300.295492 135.295126 300.354322 L 136.947826 302.406522 C 136.995406 302.465604 137.043692 302.524114 137.092674 302.582039 L 138.793274 304.593139 C 138.842001 304.650763 138.891413 304.707804 138.941500 304.764251 L 140.689000 306.733651 C 140.739111 306.790125 140.789893 306.845999 140.841336 306.901263 L 142.634936 308.828063 C 142.686415 308.883365 142.738552 308.938050 142.791335 308.992109 L 144.630135 310.875309 C 144.682974 310.929423 144.736456 310.982904 144.790572 311.035741 L 146.673872 312.874541 C 146.727813 312.927207 146.782378 312.979229 146.837557 313.030596 L 148.764257 314.824196 C 148.819579 314.875696 148.875514 314.926535 148.932049 314.976700 L 150.901449 316.724200 C 150.957954 316.774338 151.015055 316.823800 151.072739 316.872576 L 153.083939 318.573176 C 153.141749 318.622058 153.200140 318.670247 153.259102 318.717732 L 155.311202 320.370432 C 155.370089 320.417859 155.429541 320.464581 155.489545 320.510588 L 157.581645 322.114688 C 157.641926 322.160908 157.702759 322.206403 157.764132 322.251164 L 159.895532 323.805664 C 159.957007 323.850500 160.019018 323.894596 160.081553 323.937941 L 162.251353 325.441941 C 162.313707 325.485163 162.376577 325.527635 162.439949 325.569350 L 164.647149 327.022250 C 164.710880 327.064201 164.775114 327.105383 164.839837 327.145786 L 167.083637 328.546486 C 167.148479 328.586964 167.213807 328.626658 167.279607 328.665559 L 169.559207 330.013259 C 169.625172 330.052258 169.691607 330.090457 169.758497 330.127848 L 172.072997 331.421648 C 172.139976 331.459090 172.207407 331.495718 172.275274 331.531525 L 174.623774 332.770625 C 174.691788 332.806511 174.760235 332.841569 174.829101 332.875792 L 177.210801 334.059392 C 177.279966 334.093764 177.349547 334.127291 177.419529 334.159965 L 179.833529 335.287065 C 179.903673 335.319816 179.974215 335.351708 180.045138 335.382734 L 182.490638 336.452534 C 182.561684 336.483613 182.633107 336.513821 182.704891 336.543151 L 185.180991 337.554851 C 185.253070 337.584301 185.325507 337.612864 185.398287 337.640533 L 187.903987 338.593133 C 187.977018 338.620898 188.050389 338.647760 188.124082 338.673714 L 190.658782 339.566414 C 190.732569 339.592401 190.806674 339.617476 190.881081 339.641633 L 193.443781 340.473633 C 193.518428 340.497868 193.593373 340.521176 193.668598 340.543554 L 196.258398 341.313954 C 196.333866 341.336404 196.409610 341.357914 196.485613 341.378481 L 199.101613 342.086381 C 199.177828 342.107005 199.254297 342.126678 199.331003 342.145396 L 201.972603 342.789996 C 202.049458 342.808750 202.126544 342.826543 202.203843 342.843372 L 204.869843 343.423772 C 204.947439 343.440665 205.025243 343.456584 205.103237 343.471526 L 207.793037 343.986826 C 207.870997 344.001761 207.949141 344.015718 208.027451 344.028695 L 210.740051 344.478195 C 210.818786 344.491242 210.897683 344.503296 210.976722 344.514355 L 213.711222 344.896955 C 213.790249 344.908012 213.869414 344.918074 213.948695 344.927136 L 216.704395 345.242136 C 216.783837 345.251217 216.863390 345.259295 216.943036 345.266367 L 219.719036 345.512867 C 219.798705 345.519941 219.878459 345.526009 219.958281 345.531069 L 222.753581 345.708269 C 222.833647 345.713345 222.913774 345.717406 222.993943 345.720452 L 225.807743 345.827352 C 225.887900 345.830397 225.968092 345.832427 226.048301 345.833441 L 228.879901 345.869241 C 228.959965 345.870253 229.040039 345.870253 229.120103 345.869241 L 231.951603 345.833441 C 232.031811 345.832427 232.112002 345.830397 232.192157 345.827352 L 235.005957 345.720452 C 235.086126 345.717406 235.166253 345.713345 235.246319 345.708269 L 238.041619 345.531069 C 238.121441 345.526009 238.201195 345.519941 238.280864 345.512867 L 241.056864 345.266367 C 241.136510 345.259295 241.216063 345.251217 241.295505 345.242136 L 244.051205 344.927136 C 244.130486 344.918074 244.209651 344.908012 244.288678 344.896955 L 247.023178 344.514355 C 247.102217 344.503296 247.181114 344.491242 247.259849 344.478195 L 249.972449 344.028695 C 250.050759 344.015718 250.128903 344.001761 250.206863 343.986826 L 252.896663 343.471526 C 252.974657 343.456584 253.052461 343.440665 253.130057 343.423772 L 255.796057 342.843372 C 255.873356 342.826543 255.950442 342.808750 256.027297 342.789996 L 258.668897 342.145396 C 258.745603 342.126678 258.822072 342.107005 258.898287 342.086381 L 261.514287 341.378481 C 261.590290 341.357914 261.666034 341.336404 261.741502 341.313954 L 264.331302 340.543554 C 264.406527 340.521176 264.481472 340.497868 264.556119 340.473633 L 267.118819 339.641633 C 267.193226 339.617476 267.267331 339.592401 267.341118 339.566414 L 269.875818 338.673714 C 269.949511 338.647760 270.022882 338.620898 270.095913 338.593133 L 272.601613 337.640533 C 272.674393 337.612864 272.746830 337.584301 272.818909 337.554851 L 275.295009 336.543151 C 275.366793 336.513821 275.438216 336.483613 275.509262 336.452534 L 277.954762 335.382734 C 278.025685 335.351708 278.096227 335.319816 278.166371 335.287065 L 280.580371 334.159965 C 280.650353 334.127291 280.719934 334.093764 280.789099 334.059392 L 283.170799 332.875792 C 283.239824 332.841490 283.308429 332.806348 283.376598 332.770376 L 283.976198 332.453976 C 288.801088 329.907954 290.495353 323.830648 287.683583 319.155635 L 244.886583 247.998835 L 234.424697 262.107334 L 414.955497 307.590234 L 408.051017 296.110432 L 363.611417 476.900732 L 380.977782 474.272033 L 341.409982 408.484333 C 338.755594 404.070994 333.068020 402.576398 328.586876 405.114642 L 326.327276 406.394542 L 331.009400 414.660600 L 326.463601 406.318795 L 323.360701 408.009695 L 327.906500 416.351500 L 323.498343 407.936148 L 320.371143 409.574248 L 324.779300 417.989600 L 320.509884 409.503017 L 317.358884 411.088217 L 321.628300 419.574800 L 317.498681 411.019319 L 314.324781 412.551319 L 318.454400 421.106800 L 314.465378 412.484869 L 311.269078 413.963669 L 315.258100 422.585600 L 311.410782 413.899511 L 308.192882 415.324811 L 312.040200 424.010900 L 308.335422 415.263065 L 305.096522 416.634765 L 308.801300 425.382600 L 305.240126 416.575328 L 301.981026 417.893128 L 305.542200 426.700400 L 302.125396 417.836121 L 298.846696 419.099921 L 302.263500 427.964200 L 298.992024 419.045263 L 295.694324 420.254863 L 298.965800 429.173800 L 295.840405 420.202629 L 292.524505 421.357829 L 295.649900 430.329000 L 292.671404 421.307993 L 289.338004 422.408593 L 292.316500 431.429600 L 289.485523 422.361217 L 286.135223 423.407117 L 288.966200 432.475500 L 286.283495 423.362153 L 282.916995 424.353153 L 285.599700 433.466500 L 283.066244 424.310540 L 279.684244 425.246340 L 282.217700 434.402300 L 279.833945 425.206230 L 276.437145 426.086730 L 278.820900 435.282800 L 276.587264 426.049119 L 273.176364 426.874219 L 275.410000 436.107900 L 273.327442 426.838976 L 269.903042 427.608376 L 271.985600 436.877300 L 270.054735 427.575593 L 266.617535 428.289093 L 268.548400 437.590800 L 266.769505 428.258837 L 263.320305 428.916337 L 265.099200 438.248300 L 263.472931 428.888532 L 260.012231 429.489832 L 261.638500 438.849600 L 260.165339 429.464516 L 256.693939 430.009416 L 258.167100 439.394500 L 256.847550 429.986589 L 253.366150 430.474889 L 254.685700 439.882800 L 253.520003 430.454590 L 250.029203 430.886190 L 251.194900 440.314400 L 250.183731 430.868367 L 246.684331 431.242967 L 247.695500 440.689000 L 246.839302 431.227662 L 243.331902 431.545062 L 244.188100 441.006400 L 243.486736 431.532325 L 239.971936 431.792525 L 240.673300 441.266600 L 240.127362 431.782300 L 236.605962 431.985000 L 237.151900 441.469300 L 236.761973 431.977306 L 233.234673 432.122206 L 233.624600 441.614200 L 233.390170 432.117093 L 229.857570 432.204293 L 230.092000 441.701400 L 230.013845 432.201721 L 226.476745 432.230821 L 226.554900 441.730500 L 226.675202 432.231262 L 221.124202 432.160962 L 221.003900 441.660200 L 221.364613 432.167051 L 215.848413 431.957451 L 215.487700 441.450600 L 216.088566 431.969621 L 210.608566 431.622321 L 210.007700 441.103300 L 210.847908 431.640528 L 205.405908 431.157328 L 204.565700 440.620100 L 205.644575 431.181560 L 200.242375 430.564060 L 199.163500 440.002600 L 200.480093 430.594275 L 195.119193 429.844075 L 193.802600 439.252400 L 195.355301 429.880147 L 190.037501 428.999147 L 188.484800 438.371400 L 190.272471 429.041114 L 184.999471 428.030814 L 183.211800 437.361100 L 185.232602 428.078516 L 180.006102 426.940716 L 177.985300 436.223300 L 180.237479 426.994124 L 175.058979 425.730424 L 172.806800 434.959600 L 175.288300 425.789422 L 170.159800 424.401622 L 167.678300 433.571800 L 170.386822 424.466093 L 165.309722 422.955893 L 162.601200 432.061600 L 165.534858 423.025912 L 160.511058 421.394812 L 157.577400 430.430500 L 160.733314 421.470020 L 155.764314 419.719920 L 152.608400 428.680400 L 155.984431 419.800512 L 151.072131 417.932912 L 147.696100 426.812800 L 151.289126 418.018474 L 146.435026 416.035274 L 142.842000 424.829600 L 146.649598 416.126026 L 141.855498 414.028726 L 138.047900 422.732300 L 142.066955 414.124327 L 137.334455 411.914727 L 133.315400 420.522700 L 137.542999 412.015209 L 132.873899 409.695009 L 128.646300 418.202500 L 133.079524 409.800326 L 128.475524 407.371126 L 124.042300 415.773300 L 128.677848 407.481033 L 124.140448 404.944533 L 119.504900 413.236800 L 124.339573 405.059029 L 119.870673 402.417029 L 115.036000 410.594800 L 120.066576 402.536059 L 115.667776 399.790159 L 110.637200 407.848900 L 115.860251 399.913552 L 111.533151 397.065452 L 106.310100 405.000800 L 111.722395 397.193299 L 107.468895 394.244699 L 102.056600 402.052200 L 107.654635 394.376784 L 103.476235 391.329284 L 97.878200 399.004700 L 103.658435 391.465543 L 99.556935 388.320943 L 93.776700 395.860100 L 99.735494 388.461264 L 95.712494 385.221264 L 89.753700 392.620100 L 95.887545 385.365725 L 91.944845 382.032025 L 85.811000 389.286400 L 92.116365 382.180602 L 88.255565 378.754702 L 81.950200 385.860500 L 88.423180 378.907045 L 84.645980 375.390845 L 78.173000 382.344300 L 84.809947 375.547173 L 81.118147 371.942373 L 74.481200 378.739500 L 81.278324 372.102550 L 77.673424 368.410650 L 70.876300 375.047600 L 77.829755 368.574620 L 74.313555 364.797420 L 67.360100 371.270400 L 74.465990 364.965138 L 71.040190 361.104338 L 63.934300 367.409600 L 71.188584 361.275648 L 67.854784 357.332948 L 60.600500 363.466900 L 67.999336 357.508106 L 64.759336 353.485106 L 57.360500 359.443900 L 64.899657 353.663665 L 61.755057 349.562165 L 54.215900 355.342400 L 61.891403 349.744485 L 58.844003 345.566085 L 51.168500 351.164000 L 58.975915 345.751581 L 56.027215 341.498081 L 48.219800 346.910500 L 56.155148 341.687449 L 53.307048 337.360349 L 45.371700 342.583400 L 53.430441 337.552824 L 50.684541 333.154024 L 42.625800 338.184600 L 50.803571 333.349927 L 48.161571 328.881027 L 39.983800 333.715700 L 48.276024 329.080074 L 45.739524 324.542774 L 37.447300 329.178400 L 45.849514 324.745252 L 43.420314 320.141152 L 35.018100 324.574300 L 43.525591 320.346701 L 41.205391 315.677601 L 32.697900 319.905200 L 41.305840 315.886075 L 39.096240 311.153675 L 30.488300 315.172800 L 39.191903 311.365269 L 37.094603 306.571069 L 28.391000 310.378600 L 37.185300 306.785511 L 35.202100 301.931511 L 26.407800 305.524600 L 35.287711 302.148629 L 33.420111 297.236229 L 24.540200 300.612200 L 33.500660 297.456230 L 31.750560 292.487330 L 22.790100 295.643300 L 31.825805 292.709695 L 30.194705 287.685795 L 21.159000 290.619400 L 30.264693 287.910829 L 28.754493 282.833829 L 19.648800 285.542400 L 28.818990 283.060945 L 27.431190 277.932345 L 18.261000 280.413800 L 27.490166 278.161580 L 26.226466 272.983180 L 16.997300 275.235400 L 26.279892 273.214635 L 25.142092 267.988035 L 15.859500 270.008800 L 25.189786 268.221129 L 24.179486 262.948129 L 14.849200 264.735800 L 24.221453 263.183099 L 23.340453 257.865299 L 13.968200 259.418000 L 23.376549 258.101579 L 22.626449 252.740679 L 13.218100 254.057100 L 22.656620 252.978053 L 22.039020 247.575853 L 12.600500 248.654900 L 22.063272 247.814692 L 21.580072 242.372692 L 12.117300 243.212900 L 21.598278 242.612023 L 21.250978 237.132123 L 11.770000 237.733000 L 21.263150 237.372294 L 21.053550 231.855994 L 11.560400 232.216700 L 21.059640 232.096567 L 20.989440 226.545667 L 11.490200 226.665800 L 20.989440 226.785931 L 21.059640 221.234931 L 11.560400 221.114800 L 21.053549 221.475513 L 21.263149 215.959313 L 11.770000 215.598600 L 21.250979 216.199466 L 21.598279 210.719466 L 12.117300 210.118600 L 21.580072 210.958808 L 22.063272 205.516808 L 12.600500 204.676600 L 22.039020 205.755647 L 22.656620 200.353447 L 13.218100 199.274400 L 22.626449 200.590821 L 23.376549 195.229921 L 13.968200 193.913500 L 23.340453 195.466201 L 24.221453 190.148401 L 14.849200 188.595700 L 24.179486 190.383371 L 25.189786 185.110371 L 15.859500 183.322700 L 25.142084 185.343502 L 26.279884 180.117002 L 16.997300 178.096200 L 26.226476 180.348379 L 27.490176 175.169879 L 18.261000 172.917700 L 27.431178 175.399200 L 28.818978 170.270700 L 19.648800 167.789200 L 28.754507 170.497722 L 30.264707 165.420622 L 21.159000 162.712100 L 30.194688 165.645758 L 31.825788 160.621958 L 22.790100 157.688300 L 31.750580 160.844214 L 33.500680 155.875214 L 24.540200 152.719300 L 33.420111 156.095271 L 35.287711 151.182871 L 26.407800 147.806900 L 35.202100 151.399989 L 37.185300 146.545989 L 28.391000 142.952900 L 37.094574 146.760498 L 39.191874 141.966398 L 30.488300 138.158800 L 39.096273 142.177855 L 41.305873 137.445355 L 32.697900 133.426300 L 41.205391 137.653899 L 43.525591 132.984799 L 35.018100 128.757200 L 43.420274 133.190424 L 45.849474 128.586424 L 37.447300 124.153200 L 45.739567 128.788748 L 48.276067 124.251348 L 39.983800 119.615800 L 48.161571 124.450473 L 50.803571 119.981573 L 42.625800 115.146900 L 50.684541 120.177476 L 53.430441 115.778676 L 45.371700 110.748100 L 53.307048 115.971151 L 56.155148 111.644051 L 48.219800 106.421000 L 56.027215 111.833419 L 58.975915 107.579919 L 51.168500 102.167500 L 58.844003 107.765415 L 61.891403 103.587015 L 54.215900 97.989100 L 61.755057 103.769335 L 64.899657 99.667835 L 57.360500 93.887600 L 64.759336 99.846394 L 67.999336 95.823394 L 60.600500 89.864600 L 67.854784 95.998552 L 71.188584 92.055852 L 63.934300 85.921900 L 71.040190 92.227162 L 74.465990 88.366362 L 67.360100 82.061100 L 74.313555 88.534080 L 77.829755 84.756880 L 70.876300 78.283900 L 77.673335 84.920942 L 81.278235 81.229142 L 74.481200 74.592100 L 81.118242 81.389135 L 84.810042 77.784235 L 78.173000 70.987200 L 84.645980 77.940655 L 88.423180 74.424455 L 81.950200 67.471000 L 88.255565 74.576798 L 92.116365 71.150898 L 85.811000 64.045100 L 91.944845 71.299475 L 95.887545 67.965775 L 89.753700 60.711400 L 95.712494 68.110236 L 99.735494 64.870236 L 93.776700 57.471400 L 99.556935 65.010557 L 103.658435 61.865957 L 97.878200 54.326800 L 103.476115 62.002303 L 107.654515 58.954903 L 102.056600 51.279400 L 107.469019 59.086815 L 111.722519 56.138115 L 106.310100 48.330700 L 111.533151 56.266048 L 115.860251 53.417948 L 110.637200 45.482600 L 115.667776 53.541341 L 120.066576 50.795441 L 115.036000 42.736700 L 119.870673 50.914471 L 124.339573 48.272471 L 119.504900 40.094700 L 124.140448 48.386967 L 128.677848 45.850467 L 124.042300 37.558200 L 128.475524 45.960374 L 133.079524 43.531174 L 128.646300 35.129000 L 132.873899 43.636491 L 137.542999 41.316291 L 133.315400 32.808800 L 137.334455 41.416773 L 142.066955 39.207173 L 138.047900 30.599200 L 141.855498 39.302774 L 146.649598 37.205474 L 142.842000 28.501900 L 146.435026 37.296226 L 151.289126 35.313026 L 147.696100 26.518700 L 151.072131 35.398588 L 155.984431 33.530988 L 152.608400 24.651100 L 155.764314 33.611580 L 160.733314 31.861480 L 157.577400 22.901000 L 160.511058 31.936688 L 165.534858 30.305588 L 162.601200 21.269900 L 165.309722 30.375607 L 170.386822 28.865407 L 167.678300 19.759700 L 170.159800 28.929878 L 175.288300 27.542078 L 172.806800 18.371900 L 175.058979 27.601076 L 180.237479 26.337376 L 177.985300 17.108200 L 180.006102 26.390784 L 185.232602 25.252984 L 183.211800 15.970400 L 184.999471 25.300686 L 190.272471 24.290386 L 188.484800 14.960100 L 190.037501 24.332353 L 195.355301 23.451353 L 193.802600 14.079100 L 195.119021 23.487449 L 200.479921 22.737349 L 199.163500 13.329000 L 200.242547 22.767520 L 205.644747 22.149920 L 204.565700 12.711400 L 205.405908 22.174172 L 210.847908 21.690972 L 210.007700 12.228200 L 210.608566 21.709179 L 216.088566 21.361879 L 215.487700 11.880900 L 215.848413 21.374049 L 221.364613 21.164449 L 221.003900 11.671300 L 221.124031 21.170540 L 226.675031 21.100340 L 226.554900 11.601100 L 226.434767 21.100340 L 231.985667 21.170540 L 232.105800 11.671300 L 231.745094 21.164450 Z M 232.466506 2.178150 C 232.386344 2.175104 232.306147 2.173074 232.225933 2.172060 L 226.675033 2.101860 C 226.594948 2.100847 226.514854 2.100847 226.434769 2.101860 L 220.883769 2.172060 C 220.803553 2.173074 220.723352 2.175105 220.643187 2.178151 L 215.126987 2.387751 C 215.046888 2.390794 214.966831 2.394851 214.886834 2.399921 L 209.406834 2.747221 C 209.326980 2.752282 209.247193 2.758351 209.167492 2.765428 L 203.725492 3.248628 C 203.645780 3.255706 203.566160 3.263791 203.486653 3.272880 L 198.084453 3.890480 C 198.005204 3.899540 197.926074 3.909598 197.847079 3.920651 L 192.486179 4.670751 C 192.407270 4.681792 192.328504 4.693825 192.249899 4.706847 L 186.932099 5.587847 C 186.853603 5.600852 186.775274 5.614842 186.697129 5.629814 L 181.424129 6.640114 C 181.346223 6.655041 181.268506 6.670943 181.190998 6.687816 L 175.964498 7.825616 C 175.887153 7.842454 175.810021 7.860258 175.733121 7.879024 L 170.554621 9.142724 C 170.477938 9.161437 170.401492 9.181104 170.325300 9.201722 L 165.196800 10.589522 C 165.120862 10.610072 165.045182 10.631563 164.969778 10.653993 L 159.892678 12.164193 C 159.817346 12.186600 159.742295 12.209942 159.667542 12.234212 L 154.643742 13.865312 C 154.569350 13.889466 154.495259 13.914537 154.421486 13.940520 L 149.452486 15.690620 C 149.378785 15.716578 149.305407 15.743444 149.232369 15.771212 L 144.320069 17.638812 C 144.247390 17.666444 144.175053 17.694967 144.103074 17.724374 L 139.248974 19.707574 C 139.177082 19.736947 139.105552 19.767200 139.034402 19.798326 L 134.240302 21.895626 C 134.169430 21.926631 134.098939 21.958500 134.028845 21.991227 L 129.296345 24.200827 C 129.226425 24.233473 129.156905 24.266969 129.087801 24.301309 L 124.418701 26.621509 C 124.349735 26.655780 124.281189 26.690888 124.213076 26.726826 L 119.609076 29.156026 C 119.541193 29.191843 119.473747 29.228481 119.406752 29.265933 L 114.869352 31.802433 C 114.802518 31.839794 114.736138 31.877963 114.670227 31.916929 L 110.201327 34.558929 C 110.135550 34.597816 110.070244 34.637496 110.005424 34.677959 L 105.606624 37.423859 C 105.541973 37.464217 105.477810 37.505351 105.414149 37.547252 L 101.087049 40.395352 C 101.023416 40.437236 100.960289 40.479883 100.897681 40.523285 L 96.644181 43.471985 C 96.581825 43.515214 96.519988 43.559187 96.458685 43.603897 L 92.280285 46.651297 C 92.218969 46.696016 92.158192 46.741468 92.097965 46.787643 L 87.996465 49.932243 C 87.936389 49.978304 87.876865 50.025081 87.817906 50.072564 L 83.794906 53.312564 C 83.735983 53.360019 83.677628 53.408176 83.619855 53.457025 L 79.677155 56.790725 C 79.619392 56.839566 79.562215 56.889095 79.505635 56.939302 L 75.644835 60.365202 C 75.588360 60.415315 75.532485 60.466100 75.477220 60.517545 L 71.700020 64.033745 C 71.644713 64.085231 71.590022 64.137375 71.535958 64.190165 L 67.844158 67.795065 C 67.790194 67.847759 67.736859 67.901094 67.684165 67.955058 L 64.079265 71.646858 C 64.026475 71.700922 63.974331 71.755613 63.922845 71.810920 L 60.406645 75.588120 C 60.355168 75.643418 60.304353 75.699328 60.254210 75.755838 L 56.828410 79.616638 C 56.778266 79.673149 56.728798 79.730257 56.680016 79.787948 L 53.346216 83.730648 C 53.297336 83.788456 53.249148 83.846846 53.201664 83.905806 L 49.961664 87.928806 C 49.914181 87.987765 49.867404 88.047289 49.821343 88.107365 L 46.676743 92.208865 C 46.630568 92.269092 46.585116 92.329869 46.540397 92.391185 L 43.492997 96.569585 C 43.448287 96.630888 43.404314 96.692725 43.361085 96.755081 L 40.412385 101.008581 C 40.368983 101.071189 40.326336 101.134316 40.284452 101.197949 L 37.436352 105.525049 C 37.394451 105.588710 37.353317 105.652873 37.312959 105.717524 L 34.567059 110.116324 C 34.526596 110.181144 34.486916 110.246450 34.448029 110.312227 L 31.806029 114.781127 C 31.767063 114.847038 31.728894 114.913418 31.691533 114.980252 L 29.155033 119.517652 C 29.117581 119.584647 29.080943 119.652093 29.045126 119.719976 L 26.615926 124.323976 C 26.579988 124.392089 26.544880 124.460635 26.510609 124.529601 L 24.190409 129.198701 C 24.156069 129.267805 24.122573 129.337325 24.089927 129.407245 L 21.880327 134.139745 C 21.847600 134.209839 21.815731 134.280330 21.784726 134.351202 L 19.687426 139.145302 C 19.656309 139.216432 19.626065 139.287940 19.596700 139.359811 L 17.613500 144.213811 C 17.584075 144.285830 17.555536 144.358208 17.527889 144.430929 L 15.660289 149.343329 C 15.632529 149.416347 15.605670 149.489705 15.579720 149.563386 L 13.829620 154.532386 C 13.803637 154.606159 13.778566 154.680250 13.754412 154.754642 L 12.123312 159.778442 C 12.099042 159.853195 12.075700 159.928246 12.053293 160.003578 L 10.543093 165.080678 C 10.520663 165.156082 10.499172 165.231762 10.478622 165.307700 L 9.090822 170.436200 C 9.070204 170.512392 9.050537 170.588838 9.031824 170.665521 L 7.768124 175.844021 C 7.749358 175.920921 7.731554 175.998053 7.714716 176.075398 L 6.576916 181.301898 C 6.560043 181.379406 6.544141 181.457123 6.529214 181.535029 L 5.518914 186.808029 C 5.503942 186.886174 5.489952 186.964503 5.476947 187.042999 L 4.595947 192.360799 C 4.582925 192.439404 4.570892 192.518170 4.559851 192.597079 L 3.809751 197.957979 C 3.798698 198.036974 3.788640 198.116104 3.779580 198.195353 L 3.161980 203.597553 C 3.152891 203.677060 3.144806 203.756680 3.137728 203.836392 L 2.654528 209.278392 C 2.647451 209.358093 2.641382 209.437880 2.636321 209.517734 L 2.289021 214.997734 C 2.283951 215.077731 2.279894 215.157788 2.276851 215.237887 L 2.067251 220.754087 C 2.064205 220.834252 2.062174 220.914453 2.061160 220.994669 L 1.990960 226.545669 C 1.989947 226.625754 1.989947 226.705848 1.990960 226.785933 L 2.061160 232.336833 C 2.062174 232.417047 2.064204 232.497244 2.067250 232.577406 L 2.276850 238.093706 C 2.279894 238.173811 2.283952 238.253874 2.289022 238.333877 L 2.636322 243.813777 C 2.641383 243.893627 2.647452 243.973411 2.654528 244.053108 L 3.137728 249.495108 C 3.144806 249.574820 3.152891 249.654440 3.161980 249.733947 L 3.779580 255.136147 C 3.788640 255.215396 3.798698 255.294526 3.809751 255.373521 L 4.559851 260.734421 C 4.570892 260.813330 4.582925 260.892096 4.595947 260.970701 L 5.476947 266.288501 C 5.489952 266.366997 5.503942 266.445326 5.518914 266.523471 L 6.529214 271.796471 C 6.544139 271.874365 6.560038 271.952069 6.576908 272.029565 L 7.714708 277.256165 C 7.731552 277.333537 7.749362 277.410694 7.768134 277.487620 L 9.031834 282.666020 C 9.050540 282.742674 9.070200 282.819091 9.090810 282.895255 L 10.478610 288.023855 C 10.499168 288.099825 10.520668 288.175536 10.543107 288.250971 L 12.053307 293.327971 C 12.075705 293.403269 12.099036 293.478286 12.123295 293.553005 L 13.754395 298.576905 C 13.778560 298.651334 13.803643 298.725461 13.829640 298.799270 L 15.579740 303.768170 C 15.605684 303.841832 15.632536 303.915172 15.660289 303.988171 L 17.527889 308.900571 C 17.555536 308.973292 17.584075 309.045670 17.613500 309.117689 L 19.596700 313.971689 C 19.626055 314.043538 19.656290 314.115024 19.687397 314.186131 L 21.784697 318.980331 C 21.815721 319.051249 21.847611 319.121786 21.880360 319.191925 L 24.089960 323.924325 C 24.122595 323.994221 24.156080 324.063718 24.190409 324.132799 L 26.510609 328.801899 C 26.544867 328.870839 26.579962 328.939361 26.615886 329.007448 L 29.045086 333.611548 C 29.080930 333.679483 29.117596 333.746980 29.155076 333.814026 L 31.691576 338.351326 C 31.728924 338.418134 31.767078 338.484487 31.806029 338.550373 L 34.448029 343.019273 C 34.486916 343.085050 34.526596 343.150356 34.567059 343.215176 L 37.312959 347.613976 C 37.353317 347.678627 37.394451 347.742790 37.436352 347.806451 L 40.284452 352.133551 C 40.326336 352.197184 40.368983 352.260311 40.412385 352.322919 L 43.361085 356.576419 C 43.404314 356.638775 43.448287 356.700612 43.492997 356.761915 L 46.540397 360.940315 C 46.585116 361.001631 46.630568 361.062408 46.676743 361.122635 L 49.821343 365.224135 C 49.867404 365.284211 49.914181 365.343735 49.961664 365.402694 L 53.201664 369.425694 C 53.249148 369.484654 53.297336 369.543044 53.346216 369.600852 L 56.680016 373.543552 C 56.728798 373.601243 56.778266 373.658351 56.828410 373.714862 L 60.254210 377.575662 C 60.304353 377.632172 60.355168 377.688082 60.406645 377.743380 L 63.922845 381.520580 C 63.974302 381.575856 64.026415 381.630516 64.079176 381.684550 L 67.684076 385.376450 C 67.736829 385.430477 67.790226 385.483873 67.844253 385.536627 L 71.536053 389.141427 C 71.590085 389.194186 71.644745 389.246299 71.700020 389.297755 L 75.477220 392.813955 C 75.532485 392.865400 75.588360 392.916185 75.644835 392.966298 L 79.505635 396.392198 C 79.562215 396.442405 79.619392 396.491934 79.677155 396.540775 L 83.619855 399.874475 C 83.677628 399.923324 83.735983 399.971481 83.794906 400.018936 L 87.817906 403.258936 C 87.876865 403.306419 87.936389 403.353196 87.996465 403.399257 L 92.097965 406.543857 C 92.158152 406.590002 92.218890 406.635425 92.280165 406.680116 L 96.458565 409.727616 C 96.519948 409.772385 96.581866 409.816417 96.644305 409.859701 L 100.897805 412.808301 C 100.960372 412.851673 101.023458 412.894292 101.087049 412.936148 L 105.414149 415.784248 C 105.477810 415.826149 105.541973 415.867283 105.606624 415.907641 L 110.005424 418.653541 C 110.070244 418.694004 110.135550 418.733684 110.201327 418.772571 L 114.670227 421.414571 C 114.736138 421.453537 114.802518 421.491706 114.869352 421.529067 L 119.406752 424.065567 C 119.473747 424.103019 119.541193 424.139657 119.609076 424.175474 L 124.213076 426.604674 C 124.281189 426.640612 124.349735 426.675720 124.418701 426.709991 L 129.087801 429.030191 C 129.156905 429.064531 129.226425 429.098027 129.296345 429.130673 L 134.028845 431.340273 C 134.098939 431.373000 134.169430 431.404869 134.240302 431.435874 L 139.034402 433.533174 C 139.105552 433.564300 139.177082 433.594553 139.248974 433.623926 L 144.103074 435.607126 C 144.175053 435.636533 144.247390 435.665056 144.320069 435.692688 L 149.232369 437.560288 C 149.305407 437.588056 149.378785 437.614922 149.452486 437.640880 L 154.421486 439.390980 C 154.495259 439.416963 154.569350 439.442034 154.643742 439.466188 L 159.667542 441.097288 C 159.742295 441.121558 159.817346 441.144900 159.892678 441.167307 L 164.969778 442.677507 C 165.045182 442.699937 165.120862 442.721428 165.196800 442.741978 L 170.325300 444.129778 C 170.401492 444.150396 170.477938 444.170063 170.554621 444.188776 L 175.733121 445.452476 C 175.810021 445.471242 175.887153 445.489046 175.964498 445.505884 L 181.190998 446.643684 C 181.268506 446.660557 181.346223 446.676459 181.424129 446.691386 L 186.697129 447.701686 C 186.775274 447.716658 186.853603 447.730648 186.932099 447.743653 L 192.249899 448.624653 C 192.328447 448.637666 192.407156 448.649691 192.486007 448.660725 L 197.846907 449.410925 C 197.926016 449.421996 198.005262 449.432068 198.084625 449.441140 L 203.486825 450.058640 C 203.566276 450.067721 203.645838 450.075799 203.725492 450.082872 L 209.167492 450.566072 C 209.247193 450.573149 209.326980 450.579218 209.406834 450.584279 L 214.886834 450.931579 C 214.966831 450.936649 215.046888 450.940706 215.126987 450.943749 L 220.643187 451.153349 C 220.723295 451.156393 220.803439 451.158423 220.883598 451.159438 L 226.434598 451.229738 L 226.633055 451.230179 L 230.170155 451.201079 L 230.326430 451.198507 L 233.859030 451.111307 L 234.014527 451.106194 L 237.541827 450.961294 L 237.697838 450.953600 L 241.219238 450.750900 L 241.374664 450.740675 L 244.889464 450.480475 L 245.044298 450.467738 L 248.551698 450.150338 L 248.706669 450.135033 L 252.206069 449.760433 L 252.360597 449.742610 L 255.851397 449.311010 L 256.005250 449.290711 L 259.486650 448.802411 L 259.640261 448.779584 L 263.111661 448.234684 L 263.264769 448.209368 L 266.725469 447.608068 L 266.878095 447.580263 L 270.327295 446.922763 L 270.479265 446.892507 L 273.916465 446.179007 L 274.068158 446.146224 L 277.492558 445.376824 L 277.643636 445.341581 L 281.054536 444.516481 L 281.204655 444.478870 L 284.601455 443.598370 L 284.751156 443.558260 L 288.133156 442.622460 L 288.282405 442.579847 L 291.648905 441.588847 L 291.797177 441.543883 L 295.147477 440.497983 L 295.294996 440.450607 L 298.628396 439.350007 L 298.775295 439.300171 L 302.091195 438.144971 L 302.237276 438.092737 L 305.534976 436.883137 L 305.680304 436.828479 L 308.959004 435.564679 L 309.103374 435.507672 L 312.362474 434.189872 L 312.506078 434.130435 L 315.744978 432.758735 L 315.887518 432.696989 L 319.105418 431.271689 L 319.247122 431.207531 L 322.443422 429.728731 L 322.584019 429.662281 L 325.757919 428.130281 L 325.897716 428.061383 L 329.048716 426.476183 L 329.187457 426.404952 L 332.314657 424.766852 L 332.452299 424.693305 L 335.555199 423.002405 L 335.691524 422.926658 L 337.951124 421.646758 L 333.269000 413.380700 L 325.128018 418.277067 L 364.695818 484.064767 C 369.064834 491.328944 380.038749 489.667852 382.062183 481.436068 L 426.501783 300.645768 C 427.749070 295.571522 424.664262 290.442535 419.597303 289.165966 L 239.066503 243.683066 C 230.846536 241.612129 224.235601 250.527383 228.604617 257.791565 L 271.401617 328.948365 L 279.542600 324.052000 L 275.109002 315.650024 L 274.509402 315.966424 L 278.943000 324.368400 L 274.715201 315.861008 L 272.333501 317.044608 L 276.561300 325.552000 L 272.542229 316.944035 L 270.128229 318.071135 L 274.147300 326.679100 L 270.339838 317.975466 L 267.894338 319.045266 L 271.701800 327.748900 L 268.108591 318.954649 L 265.632491 319.966349 L 269.225700 328.760600 L 265.849787 319.880667 L 263.344087 320.833267 L 266.720000 329.713200 L 263.564182 320.752686 L 261.029482 321.645386 L 264.185300 330.605900 L 261.251781 321.570167 L 258.689081 322.402167 L 261.622600 331.437900 L 258.913898 322.332246 L 256.324098 323.102646 L 259.032800 332.208300 L 256.551313 323.038119 L 253.935313 323.746019 L 256.416800 332.916200 L 254.164703 323.687004 L 251.523103 324.331604 L 253.775200 333.560800 L 251.754343 324.278228 L 249.088343 324.858628 L 251.109200 334.141200 L 249.321737 324.810874 L 246.631937 325.326174 L 248.419400 334.656500 L 246.866351 325.284305 L 244.153751 325.733805 L 245.706800 335.106000 L 244.390422 325.697645 L 241.655922 326.080245 L 242.972300 335.488600 L 241.893395 326.050064 L 239.137695 326.365064 L 240.216600 335.803600 L 239.376336 326.340833 L 236.600336 326.587333 L 237.440600 336.050100 L 236.839581 326.569131 L 234.044281 326.746331 L 234.645300 336.227300 L 234.284643 326.734148 L 231.470843 326.841048 L 231.831500 336.334200 L 231.711397 326.834959 L 228.879897 326.870759 L 229.000000 336.370000 L 229.120099 326.870759 L 226.288499 326.834959 L 226.168400 336.334200 L 226.529057 326.841048 L 223.715257 326.734148 L 223.354600 336.227300 L 223.955619 326.746331 L 221.160319 326.569131 L 220.559300 336.050100 L 221.399564 326.587333 L 218.623564 326.340833 L 217.783300 335.803600 L 218.862205 326.365064 L 216.106505 326.050064 L 215.027600 335.488600 L 216.343978 326.080245 L 213.609478 325.697645 L 212.293100 335.106000 L 213.846149 325.733805 L 211.133549 325.284305 L 209.580500 334.656500 L 211.367963 325.326174 L 208.678163 324.810874 L 206.890700 334.141200 L 208.911557 324.858628 L 206.245557 324.278228 L 204.224700 333.560800 L 206.476797 324.331604 L 203.835197 323.687004 L 201.583100 332.916200 L 204.064587 323.746019 L 201.448587 323.038119 L 198.967100 332.208300 L 201.675802 323.102646 L 199.086002 322.332246 L 196.377300 331.437900 L 199.310819 322.402167 L 196.748119 321.570167 L 193.814600 330.605900 L 196.970418 321.645386 L 194.435718 320.752686 L 191.279900 329.713200 L 194.655813 320.833267 L 192.150113 319.880667 L 188.774200 328.760600 L 192.367409 319.966349 L 189.891309 318.954649 L 186.298100 327.748900 L 190.105562 319.045266 L 187.660062 317.975466 L 183.852600 326.679100 L 187.871671 318.071135 L 185.457671 316.944035 L 181.438600 325.552000 L 185.666399 317.044608 L 183.284699 315.861008 L 179.056900 324.368400 L 183.490026 315.966175 L 181.141526 314.727075 L 176.708400 323.129300 L 181.343803 314.836952 L 179.029303 313.543152 L 174.393900 321.835500 L 179.228593 313.657741 L 176.948993 312.310041 L 172.114300 320.487800 L 177.144963 312.429114 L 174.901163 311.028414 L 169.870500 319.087100 L 175.093851 311.151950 L 172.886651 309.699050 L 167.663300 317.634200 L 173.075247 309.826459 L 170.905447 308.322459 L 165.493500 316.130200 L 171.091468 308.454736 L 168.960068 306.900236 L 163.362100 314.575700 L 169.142555 307.036712 L 167.050455 305.432612 L 161.270000 312.971600 L 167.228798 305.572768 L 165.176698 303.920068 L 159.217900 311.318900 L 165.351861 304.064624 L 163.340661 302.364024 L 157.206700 309.618300 L 163.511951 302.512400 L 161.542551 300.764900 L 155.237300 307.870800 L 161.710343 300.917404 L 159.783643 299.123804 L 153.310600 306.077200 L 159.947328 299.279859 L 158.064028 297.441059 L 151.427300 304.238400 L 158.224465 297.601491 L 156.385665 295.718291 L 149.588500 302.355200 L 156.542064 295.882337 L 154.748464 293.955537 L 147.794900 300.428400 L 154.900800 294.123149 L 153.153300 292.153749 L 146.047400 298.459000 L 153.301526 292.324861 L 151.600926 290.313761 L 144.346800 296.447900 L 151.745774 290.489278 L 150.093074 288.437078 L 142.694100 294.395700 L 150.233088 288.615245 L 148.628988 286.523145 L 141.090000 292.303600 L 148.765636 286.705867 L 147.211236 284.574467 L 139.535600 290.172200 L 147.343173 284.760010 L 145.839073 282.590210 L 138.031500 288.002400 L 145.966650 282.779049 L 144.513750 280.571849 L 136.578600 285.795200 L 144.637448 280.764795 L 143.236848 278.520995 L 135.178000 283.551400 L 143.355759 278.716707 L 142.008059 276.437107 L 133.830300 281.271800 L 142.122496 276.636124 L 140.828596 274.321624 L 132.536400 278.957300 L 140.938625 274.524174 L 139.699525 272.175674 L 131.297300 276.608800 L 139.804692 272.381001 L 138.621092 269.999301 L 130.113700 274.227100 L 138.721665 270.208029 L 137.594565 267.794029 L 128.986600 271.813100 L 137.690234 268.005638 L 136.620434 265.560138 L 127.916800 269.367600 L 136.711175 265.774696 L 135.699575 263.298596 L 126.905200 266.891500 L 135.785015 263.515278 L 134.832315 261.009578 L 125.952500 264.385800 L 134.913014 261.229982 L 134.020314 258.695282 L 125.059800 261.851100 L 134.095533 258.917581 L 133.263533 256.354881 L 124.227800 259.288400 L 133.333454 256.579698 L 132.563054 253.989898 L 123.457400 256.698600 L 132.627581 254.217113 L 131.919681 251.601113 L 122.749500 254.082600 L 131.978676 251.830422 L 131.334076 249.188922 L 122.104900 251.441100 L 131.387487 249.420315 L 130.807087 246.754215 L 121.524500 248.775000 L 130.854826 246.987537 L 130.339526 244.297737 L 121.009200 246.085200 L 130.381395 244.532151 L 129.931895 241.819551 L 120.559700 243.372600 L 129.968055 242.056222 L 129.585455 239.321722 L 120.177100 240.638100 L 129.615636 239.559195 L 129.300636 236.803495 L 119.862100 237.882400 L 129.324867 237.042136 L 129.078367 234.266136 L 119.615600 235.106400 L 129.096569 234.505381 L 128.919369 231.710081 L 119.438400 232.311100 L 128.931552 231.950443 L 128.824652 229.136643 L 119.331500 229.497300 L 128.830741 229.377197 L 128.794941 226.545697 L 119.295700 226.665800 L 128.794941 226.785899 L 128.830741 223.954299 L 119.331500 223.834200 L 128.824652 224.194857 L 128.931552 221.381057 L 119.438400 221.020400 L 128.919369 221.621419 L 129.096569 218.826119 L 119.615600 218.225100 L 129.078367 219.065364 L 129.324867 216.289364 L 119.862100 215.449100 L 129.300632 216.528044 L 129.615632 213.772444 L 120.177100 212.693500 L 129.585462 214.009831 L 129.968062 211.275231 L 120.559700 209.958900 L 129.931895 211.511949 L 130.381395 208.799349 L 121.009200 207.246300 L 130.339526 209.033763 L 130.854826 206.343963 L 121.524500 204.556500 L 130.807072 206.577357 L 131.387472 203.911357 L 122.104900 201.890500 L 131.334076 204.142678 L 131.978676 201.501178 L 122.749500 199.249000 L 131.919705 201.730399 L 132.627605 199.114299 L 123.457400 196.632900 L 132.563054 199.341602 L 133.333454 196.751802 L 124.227800 194.043100 L 133.263533 196.976619 L 134.095533 194.413919 L 125.059800 191.480400 L 134.020275 194.636328 L 134.912975 192.101728 L 125.952500 188.945800 L 134.832360 192.321905 L 135.785060 189.816105 L 126.905200 186.440000 L 135.699575 190.032904 L 136.711175 187.556804 L 127.916800 183.963900 L 136.620434 187.771362 L 137.690234 185.325862 L 128.986600 181.518400 L 137.594565 185.537471 L 138.721665 183.123471 L 130.113700 179.104400 L 138.621092 183.332199 L 139.804692 180.950499 L 131.297300 176.722700 L 139.699525 181.155826 L 140.938625 178.807326 L 132.536400 174.374200 L 140.828596 179.009876 L 142.122496 176.695376 L 133.830300 172.059700 L 142.008059 176.894393 L 143.355759 174.614793 L 135.178000 169.780100 L 143.236848 174.810505 L 144.637448 172.566705 L 136.578600 167.536300 L 144.513750 172.759651 L 145.966650 170.552451 L 138.031500 165.329100 L 145.839073 170.741290 L 147.343173 168.571490 L 139.535600 163.159300 L 147.211111 168.757205 L 148.765511 166.625905 L 141.090000 161.028000 L 148.629121 166.808281 L 150.233221 164.716081 L 142.694100 158.935800 L 150.092932 164.894598 L 151.745632 162.842498 L 144.346800 156.883700 L 151.601076 163.017661 L 153.301676 161.006461 L 146.047400 154.872500 L 153.153300 161.177751 L 154.900800 159.208351 L 147.794900 152.903100 L 154.748296 159.376143 L 156.541896 157.449443 L 149.588500 150.976400 L 156.385841 157.613128 L 158.224641 155.729828 L 151.427300 149.093100 L 158.064028 155.890441 L 159.947328 154.051641 L 153.310600 147.254300 L 159.783643 154.207696 L 161.710343 152.414096 L 155.237300 145.460700 L 161.542551 152.566600 L 163.511951 150.819100 L 157.206700 143.713200 L 163.340661 150.967476 L 165.351861 149.266876 L 159.217900 142.012600 L 165.176698 149.411432 L 167.228798 147.758732 L 161.270000 140.359900 L 167.050228 147.899062 L 169.142328 146.295062 L 163.362100 138.755900 L 168.960068 146.431364 L 171.091468 144.876864 L 165.493500 137.201400 L 170.905690 145.008973 L 173.075490 143.504873 L 167.663300 135.697300 L 172.886400 143.632615 L 175.093600 142.179815 L 169.870500 134.244500 L 174.901163 142.303186 L 177.144963 140.902486 L 172.114300 132.843800 L 176.948993 141.021559 L 179.228593 139.673859 L 174.393900 131.496100 L 179.029576 139.788296 L 181.344076 138.494396 L 176.708400 130.202200 L 181.141526 138.604425 L 183.490026 137.365325 L 179.056900 128.963100 L 183.284699 137.470492 L 185.666399 136.286892 L 181.438600 127.779500 L 185.457671 136.387465 L 187.871671 135.260365 L 183.852600 126.652400 L 187.660062 135.356034 L 190.105562 134.286234 L 186.298100 125.582600 L 189.891004 134.376975 L 192.367104 133.365375 L 188.774200 124.571000 L 192.150422 133.450815 L 194.656122 132.498115 L 191.279900 123.618300 L 194.435718 132.578814 L 196.970418 131.686114 L 193.814600 122.725600 L 196.748119 131.761333 L 199.310819 130.929333 L 196.377300 121.893600 L 199.086002 130.999254 L 201.675802 130.228854 L 198.967100 121.123200 L 201.448587 130.293381 L 204.064587 129.585481 L 201.583100 120.415300 L 203.835197 129.644496 L 206.476797 128.999896 L 204.224700 119.770700 L 206.245557 129.053272 L 208.911557 128.472872 L 206.890700 119.190300 L 208.678163 128.520626 L 211.367963 128.005326 L 209.580500 118.675000 L 211.133549 128.047195 L 213.846149 127.597695 L 212.293100 118.225500 L 213.609478 127.633855 L 216.343978 127.251255 L 215.027600 117.842900 L 216.106505 127.281436 L 218.862205 126.966436 L 217.783300 117.527900 L 218.623564 126.990667 L 221.399564 126.744167 L 220.559300 117.281400 L 221.159981 126.762391 L 223.955281 126.585291 L 223.354600 117.104300 L 223.715594 126.597439 L 226.529394 126.490439 L 226.168400 116.997300 L 226.288499 126.496541 L 229.120099 126.460741 L 229.000000 116.961500 L 228.879897 126.460741 L 231.711397 126.496541 L 231.831500 116.997300 L 231.470506 126.490439 L 234.284306 126.597439 L 234.645300 117.104300 L 234.044619 126.585291 L 236.839919 126.762391 L 237.440600 117.281400 L 236.600336 126.744167 L 239.376336 126.990667 L 240.216600 117.527900 L 239.137695 126.966436 L 241.893395 127.281436 L 242.972300 117.842900 L 241.655922 127.251255 L 244.390422 127.633855 L 245.706800 118.225500 L 244.153751 127.597695 L 246.866351 128.047195 L 248.419400 118.675000 L 246.631937 128.005326 L 249.321737 128.520626 L 251.109200 119.190300 L 249.088343 128.472872 L 251.754343 129.053272 L 253.775200 119.770700 L 251.523103 128.999896 L 254.164703 129.644496 L 256.416800 120.415300 L 253.935313 129.585481 L 256.551313 130.293381 L 259.032800 121.123200 L 256.324098 130.228854 L 258.913898 130.999254 L 261.622600 121.893600 L 258.689081 130.929333 L 261.251781 131.761333 L 264.185300 122.725600 L 261.029482 131.686114 L 263.564182 132.578814 L 266.720000 123.618300 L 263.343778 132.498115 L 265.849478 133.450815 L 269.225700 124.571000 L 265.632796 133.365375 L 268.108896 134.376975 L 271.701800 125.582600 L 267.894338 134.286234 L 270.339838 135.356034 L 274.147300 126.652400 L 270.128229 135.260365 L 272.542229 136.387465 L 276.561300 127.779500 L 272.333501 136.286892 L 274.715201 137.470492 L 278.943000 128.963100 L 274.509874 137.365325 L 276.858374 138.604425 L 281.291500 130.202200 L 276.655824 138.494396 L 278.970324 139.788296 L 283.606000 131.496100 L 278.771307 139.673859 L 281.050907 141.021559 L 285.885600 132.843800 L 280.854937 140.902486 L 283.098737 142.303186 L 288.129400 134.244500 L 282.906300 142.179815 L 285.113500 143.632615 L 290.336600 135.697300 L 284.924410 143.504873 L 287.094210 145.008973 L 292.506400 137.201400 L 286.908432 144.876864 L 289.039832 146.431364 L 294.637800 138.755900 L 288.857572 146.295062 L 290.949672 147.899062 L 296.729900 140.359900 L 290.771102 147.758732 L 292.823202 149.411432 L 298.782000 142.012600 L 292.648039 149.266876 L 294.659239 150.967476 L 300.793200 143.713200 L 294.487949 150.819100 L 296.457349 152.566600 L 302.762600 145.460700 L 296.289557 152.414096 L 298.216257 154.207696 L 304.689300 147.254300 L 298.052572 154.051641 L 299.935872 155.890441 L 306.572600 149.093100 L 299.775259 155.729828 L 301.614059 157.613128 L 308.411400 150.976400 L 301.458004 157.449443 L 303.251604 159.376143 L 310.205000 152.903100 L 303.099100 159.208351 L 304.846600 161.177751 L 311.952500 154.872500 L 304.698224 161.006461 L 306.398824 163.017661 L 313.653100 156.883700 L 306.254268 162.842498 L 307.906968 164.894598 L 315.305800 158.935800 L 307.766679 164.716081 L 309.370779 166.808281 L 316.909900 161.028000 L 309.234389 166.625905 L 310.788789 168.757205 L 318.464300 163.159300 L 310.656727 168.571490 L 312.160827 170.741290 L 319.968400 165.329100 L 312.033250 170.552451 L 313.486150 172.759651 L 321.421300 167.536300 L 313.362452 172.566705 L 314.763052 174.810505 L 322.821900 169.780100 L 314.644141 174.614793 L 315.991841 176.894393 L 324.169600 172.059700 L 315.877404 176.695376 L 317.171304 179.009876 L 325.463500 174.374200 L 317.061275 178.807326 L 318.300375 181.155826 L 326.702600 176.722700 L 318.195208 180.950499 L 319.378808 183.332199 L 327.886200 179.104400 L 319.278235 183.123471 L 320.405335 185.537471 L 329.013300 181.518400 L 320.309666 185.325862 L 321.379466 187.771362 L 330.083100 183.963900 L 321.288725 187.556804 L 322.300325 190.032904 L 331.094700 186.440000 L 322.214840 189.816105 L 323.167540 192.321905 L 332.047400 188.945800 L 323.086925 192.101728 L 323.979625 194.636328 L 332.940100 191.480400 L 323.904367 194.413919 L 324.736367 196.976619 L 333.772100 194.043100 L 324.666446 196.751802 L 325.436846 199.341602 L 334.542500 196.632900 L 325.372295 199.114299 L 326.080195 201.730399 L 335.250400 199.249000 L 326.021224 201.501178 L 326.665824 204.142678 L 335.895000 201.890500 L 326.612428 203.911357 L 327.192828 206.577357 L 336.475400 204.556500 L 327.145074 206.343963 L 327.660374 209.033763 L 336.990700 207.246300 L 327.618505 208.799349 L 328.068005 211.511949 L 337.440200 209.958900 L 328.031838 211.275231 L 328.414438 214.009831 L 337.822800 212.693500 L 328.384268 213.772444 L 328.699268 216.528044 L 338.137800 215.449100 L 328.675033 216.289364 L 328.921533 219.065364 L 338.384300 218.225100 L 328.903331 218.826119 L 329.080531 221.621419 L 338.561500 221.020400 L 329.068348 221.381057 L 329.175248 224.194857 L 338.668400 223.834200 L 329.169159 223.954299 L 329.204959 226.785899 C 329.270696 231.985347 333.504337 236.165800 338.704200 236.165800 L 441.619600 236.165800 C 446.913349 236.165800 451.185875 231.838823 451.118838 226.545498 L 451.048538 220.994498 C 451.047523 220.914339 451.045493 220.834195 451.042449 220.754087 L 450.832849 215.237887 C 450.829806 215.157788 450.825749 215.077731 450.820679 214.997734 L 450.473379 209.517734 C 450.468318 209.437880 450.462249 209.358093 450.455172 209.278392 L 449.971972 203.836392 C 449.964899 203.756738 449.956821 203.677176 449.947740 203.597725 L 449.330240 198.195525 C 449.321168 198.116162 449.311096 198.036916 449.300025 197.957807 L 448.549825 192.596907 C 448.538791 192.518056 448.526766 192.439347 448.513753 192.360799 L 447.632753 187.042999 C 447.619748 186.964503 447.605758 186.886174 447.590786 186.808029 L 446.580486 181.535029 C 446.565559 181.457123 446.549657 181.379406 446.532784 181.301898 L 445.394984 176.075398 C 445.378158 175.998109 445.360368 175.921033 445.341617 175.844189 L 444.078017 170.665689 C 444.059278 170.588894 444.039582 170.512337 444.018933 170.436033 L 442.631033 165.307533 C 442.610497 165.231651 442.589020 165.156027 442.566607 165.080678 L 441.056407 160.003578 C 441.034000 159.928246 441.010658 159.853195 440.986388 159.778442 L 439.355288 154.754642 C 439.331134 154.680250 439.306063 154.606159 439.280080 154.532386 L 437.529980 149.563386 C 437.504048 149.489758 437.477210 149.416453 437.449471 149.343487 L 435.581971 144.431087 C 435.554285 144.358261 435.525705 144.285778 435.496236 144.213655 L 433.512936 139.359655 C 433.483592 139.287837 433.453369 139.216380 433.422274 139.145302 L 431.324974 134.351202 C 431.293969 134.280330 431.262100 134.209839 431.229373 134.139745 L 429.019773 129.407245 C 428.987127 129.337325 428.953631 129.267805 428.919291 129.198701 L 426.599091 124.529601 C 426.564820 124.460635 426.529712 124.392089 426.493774 124.323976 L 424.064574 119.719976 C 424.028782 119.652140 423.992170 119.584740 423.954745 119.517791 L 421.418345 114.980391 C 421.380933 114.913464 421.342712 114.846993 421.303691 114.780991 L 418.661591 110.312091 C 418.622729 110.246360 418.583076 110.181099 418.542641 110.116324 L 415.796741 105.717524 C 415.756383 105.652873 415.715249 105.588710 415.673348 105.525049 L 412.825248 101.197949 C 412.783392 101.134358 412.740773 101.071272 412.697401 101.008705 L 409.748801 96.755205 C 409.705517 96.692766 409.661485 96.630848 409.616716 96.569465 L 406.569216 92.391065 C 406.524525 92.329790 406.479102 92.269052 406.432957 92.208865 L 403.288357 88.107365 C 403.242296 88.047289 403.195519 87.987765 403.148036 87.928806 L 399.908036 83.905806 C 399.860581 83.846883 399.812424 83.788528 399.763575 83.730755 L 396.429875 79.788055 C 396.381034 79.730292 396.331505 79.673115 396.281298 79.616535 L 392.855398 75.755735 C 392.805285 75.699260 392.754500 75.643385 392.703055 75.588120 L 389.186855 71.810920 C 389.135399 71.755645 389.083286 71.700985 389.030527 71.646953 L 385.425727 67.955153 C 385.372973 67.901126 385.319577 67.847729 385.265550 67.794976 L 381.573650 64.190076 C 381.519616 64.137315 381.464956 64.085202 381.409680 64.033745 L 377.632480 60.517545 C 377.577215 60.466100 377.521340 60.415315 377.464865 60.365202 L 373.604065 56.939302 C 373.547485 56.889095 373.490308 56.839566 373.432545 56.790725 L 369.489845 53.457025 C 369.432072 53.408176 369.373717 53.360019 369.314794 53.312564 L 365.291794 50.072564 C 365.232835 50.025081 365.173311 49.978304 365.113235 49.932243 L 361.011735 46.787643 C 360.951508 46.741468 360.890731 46.696016 360.829415 46.651297 L 356.651015 43.603897 C 356.589712 43.559187 356.527875 43.515214 356.465519 43.471985 L 352.212019 40.523285 C 352.149439 40.479903 352.086340 40.437274 352.022735 40.395408 L 347.695735 37.547308 C 347.632019 37.505369 347.567801 37.464199 347.503094 37.423808 L 343.104194 34.677908 C 343.039401 34.637462 342.974122 34.597800 342.908373 34.558929 L 338.439473 31.916929 C 338.373587 31.877978 338.307234 31.839824 338.240426 31.802476 L 333.703126 29.265976 C 333.636080 29.228496 333.568583 29.191830 333.500648 29.155986 L 328.896548 26.726786 C 328.828461 26.690862 328.759939 26.655767 328.690999 26.621509 L 324.021899 24.301309 C 323.952818 24.266980 323.883321 24.233495 323.813425 24.200860 L 319.081025 21.991260 C 319.010886 21.958511 318.940349 21.926621 318.869431 21.895597 L 314.075231 19.798297 C 314.004124 19.767190 313.932638 19.736955 313.860789 19.707600 L 309.006789 17.724400 C 308.934770 17.694975 308.862392 17.666436 308.789671 17.638789 L 303.877271 15.771189 C 303.804272 15.743436 303.730932 15.716584 303.657270 15.690640 L 298.688370 13.940540 C 298.614561 13.914543 298.540434 13.889460 298.466005 13.865295 L 293.442105 12.234195 C 293.367386 12.209936 293.292369 12.186605 293.217071 12.164207 L 288.140071 10.654007 C 288.064636 10.631568 287.988925 10.610068 287.912955 10.589510 L 282.784355 9.201710 C 282.708191 9.181100 282.631774 9.161440 282.555120 9.142734 L 277.376720 7.879034 C 277.299794 7.860262 277.222637 7.842452 277.145265 7.825608 L 271.918665 6.687808 C 271.841169 6.670938 271.763465 6.655039 271.685571 6.640114 L 266.412571 5.629814 C 266.334426 5.614842 266.256097 5.600852 266.177601 5.587847 L 260.859801 4.706847 C 260.781196 4.693825 260.702430 4.681792 260.623521 4.670751 L 255.262621 3.920651 C 255.183626 3.909598 255.104496 3.899540 255.025247 3.890480 L 249.623047 3.272880 C 249.543540 3.263791 249.463920 3.255706 249.384208 3.248628 L 243.942208 2.765428 C 243.862511 2.758352 243.782727 2.752283 243.702877 2.747222 L 238.222977 2.399922 C 238.142974 2.394852 238.062911 2.390794 237.982806 2.387750 L 232.466506 2.178150 Z" transform="scale(1.000000,1.000000) translate(21.000000,6.000000)" fill="#ff0000" opacity="1.000000"></path>
    </g>
</svg>