<?xml version="1.0" encoding="UTF-8" standalone="yes"?>
<!DOCTYPE svg PUBLIC "-//W3C//DTD SVG 1.1//EN" "http://www.w3.org/Graphics/SVG/1.1/DTD/svg11.dtd">

<svg width="500" height="500" viewBox="0 0 500 500" xmlns="http://www.w3.org/2000/svg" xmlns:xlink="http://www.w3.org/1999/xlink" version="1.1" baseProfile="full">
    <g transform="scale(1.000000,-1.000000) translate(0,-500)">
        <path d="M 241.757858 1.000000 L 482.515717 240.371536 L 1.000000 240.371536 Z" transform="scale(1.000000,1.000000) translate(8.242157,9.628464)" opacity="1.000000"></path>
        <path d="M 196.598373 276.812214 L 9.000000 276.812214 C 4.581722 276.812214 1.000000 273.230492 1.000000 268.812215 L 1.000000 1.000000 C 1.000000 1.000000 1.000000 1.000000 1.000000 1.000000 L 204.598373 1.000000 C 204.598373 1.000000 204.598373 1.000000 204.598373 1.000000 L 204.598373 268.812215 C 204.598373 273.230492 201.016651 276.812214 196.598373 276.812214 Z" transform="scale(1.000000,1.000000) translate(147.200821,212.559307)" opacity="1.000000"></path>
        <path d="M 492.757800 241.500000 L 353.799100 241.500000 C 348.552395 241.500000 344.299100 245.753295 344.299100 251.000000 L 344.299100 482.371500 L 353.799100 482.371500 L 344.311188 481.892406 L 344.269888 482.710306 L 353.757800 483.189400 L 344.366472 481.756584 L 344.245272 482.550984 L 353.636600 483.983800 L 344.435843 481.618200 L 344.238743 482.384800 L 353.439500 484.750400 L 344.518215 481.485331 L 344.249215 482.220331 L 353.170500 485.485400 L 344.611941 481.362165 L 344.275041 482.061465 L 352.833600 486.184700 L 344.714367 481.252352 L 344.313667 481.911952 L 352.432900 486.844300 L 344.825051 481.154780 L 344.364451 481.770680 L 351.972300 487.460200 L 344.941917 481.070856 L 344.425617 481.638956 L 351.456000 488.028300 L 345.065978 480.998533 L 344.497878 481.514933 L 350.887900 488.544700 L 345.199173 480.936259 L 344.583273 481.396759 L 350.272000 489.005200 L 345.339652 480.885967 L 344.680052 481.286667 L 349.612400 489.405900 L 345.489165 480.847341 L 344.789865 481.184241 L 348.913100 489.742800 L 345.648031 480.821515 L 344.913031 481.090515 L 348.178100 490.011800 L 345.812789 480.810968 L 345.046089 481.008068 L 347.411400 490.208900 L 345.977252 480.817775 L 345.182952 480.939075 L 346.617100 490.330200 L 346.138065 480.842285 L 345.320065 480.883585 L 345.799100 490.371500 L 345.799100 480.871500 L 158.200800 480.871500 L 158.200800 490.371500 L 158.679835 480.883585 L 157.861835 480.842285 L 157.382800 490.330200 L 158.816948 480.939075 L 158.022648 480.817775 L 156.588500 490.208900 L 158.953811 481.008068 L 158.187111 480.810968 L 155.821800 490.011800 L 159.086869 481.090515 L 158.351869 480.821515 L 155.086800 489.742800 L 159.210035 481.184241 L 158.510735 480.847341 L 154.387500 489.405900 L 159.319848 481.286667 L 158.660248 480.885967 L 153.727900 489.005200 L 159.416627 481.396759 L 158.800727 480.936259 L 153.112000 488.544700 L 159.502022 481.514933 L 158.933922 480.998533 L 152.543900 488.028300 L 159.574283 481.638956 L 159.057983 481.070856 L 152.027600 487.460200 L 159.635449 481.770680 L 159.174849 481.154780 L 151.567000 486.844300 L 159.686233 481.911952 L 159.285533 481.252352 L 151.166300 486.184700 L 159.725337 482.062458 L 159.388537 481.363158 L 150.829500 485.485400 L 159.750393 482.219261 L 159.481293 481.484261 L 150.560400 484.750400 L 159.761157 482.384800 L 159.564057 481.618200 L 150.363300 483.983800 L 159.754628 482.550984 L 159.633428 481.756584 L 150.242100 483.189400 L 159.730012 482.710306 L 159.688712 481.892406 L 150.200800 482.371500 L 159.700800 482.371500 L 159.700800 251.000000 C 159.700800 245.753295 155.447505 241.500000 150.200800 241.500000 L 11.242100 241.500000 L 17.940191 257.736882 L 258.698091 18.365282 L 245.301908 18.365281 L 486.059708 257.736881 L 492.757800 241.500000 Z M 492.757800 260.500000 C 501.234627 260.500000 505.467194 250.239811 499.455892 244.263119 L 258.698092 4.891519 C 254.992599 1.207361 249.007403 1.207360 245.301909 4.891518 L 4.544009 244.263118 C -1.467295 250.239809 2.765272 260.500000 11.242100 260.500000 L 150.200800 260.500000 L 140.700800 251.000000 L 140.700800 482.371500 C 140.700800 482.531274 140.704831 482.691023 140.712888 482.850594 L 140.754188 483.668494 C 140.770313 483.987824 140.802549 484.306136 140.850772 484.622216 L 140.971972 485.416616 C 141.019866 485.730534 141.083469 486.041853 141.162543 486.349400 L 141.359643 487.116000 C 141.437965 487.420628 141.531368 487.721178 141.639507 488.016539 L 141.908607 488.751539 C 142.015185 489.042640 142.135948 489.328349 142.270463 489.607642 L 142.607263 490.306942 C 142.740669 490.583935 142.887443 490.854288 143.047067 491.117048 L 143.447767 491.776648 C 143.605986 492.037094 143.776644 492.289777 143.959151 492.533820 L 144.419751 493.149720 C 144.600984 493.392059 144.793692 493.625600 144.997217 493.849544 L 145.513517 494.417644 C 145.716668 494.641177 145.930365 494.854894 146.153878 495.058067 L 146.721978 495.574467 C 146.946373 495.778441 147.180406 495.971553 147.423273 496.153141 L 148.039173 496.613641 C 148.282970 496.795925 148.535388 496.966386 148.795552 497.124433 L 149.455152 497.525133 C 149.717597 497.684566 149.987619 497.831180 150.264265 497.964459 L 150.963565 498.301359 C 151.243516 498.436230 151.529915 498.557284 151.821731 498.664085 L 152.556731 498.933085 C 152.851842 499.041092 153.152131 499.134389 153.456489 499.212632 L 154.223189 499.409732 C 154.530208 499.488659 154.840984 499.552169 155.154352 499.600025 L 155.948652 499.721325 C 156.265189 499.769664 156.583966 499.801968 156.903765 499.818115 L 157.721765 499.859415 C 157.881316 499.867470 158.041045 499.871500 158.200800 499.871500 L 345.799100 499.871500 C 345.958855 499.871500 346.118584 499.867470 346.278135 499.859415 L 347.096135 499.818115 C 347.415934 499.801968 347.734711 499.769664 348.051248 499.721325 L 348.845548 499.600025 C 349.158916 499.552169 349.469692 499.488659 349.776711 499.409732 L 350.543411 499.212632 C 350.847769 499.134389 351.148058 499.041092 351.443169 498.933085 L 352.178169 498.664085 C 352.469985 498.557284 352.756384 498.436230 353.036335 498.301359 L 353.735635 497.964459 C 354.012281 497.831180 354.282303 497.684566 354.544748 497.525133 L 355.204348 497.124433 C 355.464512 496.966386 355.716930 496.795925 355.960727 496.613641 L 356.576627 496.153141 C 356.819494 495.971553 357.053527 495.778441 357.277922 495.574467 L 357.846022 495.058067 C 358.069535 494.854894 358.283232 494.641177 358.486383 494.417644 L 359.002683 493.849544 C 359.206208 493.625600 359.398916 493.392059 359.580149 493.149720 L 360.040749 492.533820 C 360.223256 492.289777 360.393914 492.037094 360.552133 491.776648 L 360.952833 491.117048 C 361.112266 490.854603 361.258880 490.584581 361.392159 490.307935 L 361.729059 489.608635 C 361.863930 489.328684 361.984984 489.042285 362.091785 488.750469 L 362.360785 488.015469 C 362.468757 487.720451 362.562029 487.420260 362.640257 487.116000 L 362.837357 486.349400 C 362.916431 486.041853 362.980034 485.730534 363.027928 485.416616 L 363.149128 484.622216 C 363.197351 484.306136 363.229587 483.987824 363.245712 483.668494 L 363.287012 482.850594 C 363.295069 482.691023 363.299100 482.531274 363.299100 482.371500 L 363.299100 251.000000 L 353.799100 260.500000 L 492.757800 260.500000 Z" transform="scale(1.000000,1.000000) translate(-2.000000,-1.000000)" fill="#bf0000" opacity="1.000000"></path>
    </g>
</svg>