<?xml version="1.0" encoding="UTF-8" standalone="yes"?>
<!DOCTYPE svg PUBLIC "-//W3C//DTD SVG 1.1//EN" "http://www.w3.org/Graphics/SVG/1.1/DTD/svg11.dtd">

<svg width="500" height="500" viewBox="0 0 500 500" xmlns="http://www.w3.org/2000/svg" xmlns:xlink="http://www.w3.org/1999/xlink" version="1.1" baseProfile="full">
    <g transform="scale(1.000000,-1.000000) translate(0,-500)">
        <path d="M 181.568390 180.528641 L 1.000000 1.000000 L 362.136780 1.000000 Z" transform="scale(1.000000,1.000000) translate(68.431618,306.370850)" opacity="1.000000"></path>
        <path d="M 198.698089 184.162516 L 18.129689 4.633916 L 11.431600 20.870800 L 372.568300 20.870800 L 365.870209 4.633918 L 185.301909 184.162518 L 198.698089 184.162516 Z M 185.301911 197.636284 C 189.007405 201.320440 194.992598 201.320439 198.698091 197.636282 L 379.266391 18.107682 C 385.277695 12.130991 381.045128 1.870800 372.568300 1.870800 L 11.431600 1.870800 C 2.954771 1.870800 -1.277795 12.130993 4.733511 18.107684 L 185.301911 197.636284 Z" transform="scale(1.000000,1.000000) translate(58.000000,296.000000)" fill="#ff0000" opacity="1.000000"></path>
        <path d="M 181.568390 180.528641 L 1.000000 1.000000 L 362.136780 1.000000 Z" transform="scale(1.000000,1.000000) translate(68.431618,249.993774)" opacity="1.000000"></path>
        <path d="M 198.698091 184.785518 L 18.129691 5.256818 L 11.431600 21.493700 L 372.568300 21.493700 L 365.870207 5.256820 L 185.301907 184.785520 L 198.698091 184.785518 Z M 185.301909 198.259282 C 189.007403 201.943440 194.992600 201.943439 198.698093 198.259280 L 379.266393 18.730580 C 385.277694 12.753888 381.045126 2.493700 372.568300 2.493700 L 11.431600 2.493700 C 2.954773 2.493700 -1.277795 12.753891 4.733509 18.730582 L 185.301909 198.259282 Z" transform="scale(1.000000,1.000000) translate(58.000000,239.000000)" fill="#ff0000" opacity="1.000000"></path>
        <path d="M 181.568390 180.528656 L 1.000000 1.000000 L 362.136780 1.000000 Z" transform="scale(1.000000,1.000000) translate(68.431610,188.695007)" opacity="1.000000"></path>
        <path d="M 9.000000 1.000000 L 145.698776 1.000000 C 150.117054 1.000000 153.698776 4.581722 153.698776 9.000000 L 153.698776 205.104927 C 153.698776 205.104927 153.698776 205.104927 153.698776 205.104927 L 1.000000 205.104927 C 1.000000 205.104927 1.000000 205.104927 1.000000 205.104927 L 1.000000 9.000000 C 1.000000 4.581722 4.581722 1.000000 9.000000 1.000000 Z" transform="scale(1.000000,1.000000) translate(172.650620,9.166359)" opacity="1.000000"></path>
        <path d="M 28.754837 99.291537 Q 24.813321 94.036183 24.977551 85.249889 L 3.134987 85.249889 Q 3.463447 94.118298 6.173239 102.083444 Q 9.047260 109.063210 15.205878 114.975483 Q 19.804312 119.163343 26.127160 121.380445 Q 32.450007 123.597548 41.646876 123.597548 Q 58.726776 123.597548 69.196426 114.770196 Q 79.666076 105.942844 79.666076 91.080047 Q 79.666076 80.569339 73.425343 73.343228 Q 69.483828 68.826909 65.213853 67.184611 Q 68.416334 67.184611 74.410722 61.682912 Q 83.361246 53.389307 83.361246 39.019199 Q 83.361246 23.910057 72.891596 12.455029 Q 62.421946 1.000000 41.893221 1.000000 Q 16.601831 1.000000 6.748043 17.505095 Q 1.574804 26.291390 1.000000 40.497268 L 23.992172 40.497268 Q 23.992172 33.353271 26.291390 28.672722 Q 30.561365 20.050657 41.811106 20.050657 Q 48.708758 20.050657 53.840939 24.772264 Q 58.973120 29.493871 58.973120 38.362280 Q 58.973120 50.104711 49.447792 54.046226 Q 44.028208 56.263329 32.367892 56.263329 L 32.367892 73.014769 Q 43.781864 73.178998 48.298183 75.231871 Q 56.099099 78.680697 56.099099 89.191404 Q 56.099099 96.006941 52.116526 100.276916 Q 48.133953 104.546891 40.907842 104.546891 Q 32.614237 104.546891 28.754837 99.291537 Z" transform="scale(1.000000,1.000000) translate(207.819377,127.396233)" fill="#00ff00" opacity="1.000000"></path>
        <path d="M 259.734308 20.598901 L 260.528608 20.720101 L 261.961600 11.328800 L 259.595163 20.529342 L 260.361863 20.726542 L 262.728300 11.526000 L 259.463231 20.447285 L 260.198231 20.716285 L 263.463300 11.795000 L 259.340065 20.353559 L 260.039365 20.690459 L 264.162600 12.131900 L 259.230252 20.251133 L 259.889852 20.651833 L 264.822200 12.532600 L 259.133473 20.141041 L 259.749373 20.601541 L 265.438100 12.993100 L 259.048078 20.022867 L 259.616178 20.539267 L 266.006200 13.509500 L 258.975817 19.898844 L 259.492117 20.466944 L 266.522500 14.077600 L 258.915094 19.767712 L 259.375694 20.383512 L 266.983100 14.693400 L 258.863867 19.625748 L 259.264567 20.285348 L 267.383800 15.353000 L 258.825241 19.476235 L 259.162141 20.175535 L 267.720700 16.052300 L 258.799272 19.316977 L 259.068272 20.052077 L 267.989700 16.787400 L 258.788943 19.153000 L 258.986043 19.919600 L 268.186800 17.554000 L 258.795472 18.986816 L 258.916672 19.781216 L 268.308000 18.348400 L 258.820088 18.827494 L 258.861388 19.645394 L 268.349300 19.166300 L 258.849300 19.166300 L 258.849300 190.695000 C 258.849300 195.941705 263.102595 200.195000 268.349300 200.195000 L 372.568300 200.195000 L 365.870209 183.958118 L 185.301909 363.486718 L 198.698089 363.486716 L 18.129689 183.958116 L 11.431600 200.195000 L 115.650600 200.195000 C 120.897305 200.195000 125.150600 195.941705 125.150600 190.695000 L 125.150600 19.166300 L 115.650600 19.166300 L 125.138512 19.645394 L 125.179812 18.827494 L 115.691900 18.348400 L 125.083228 19.781216 L 125.204428 18.986816 L 115.813100 17.554000 L 125.013857 19.919600 L 125.210957 19.153000 L 116.010200 16.787400 L 124.931628 20.052077 L 125.200628 19.316977 L 116.279200 16.052300 L 124.837759 20.175535 L 125.174659 19.476235 L 116.616100 15.353000 L 124.735333 20.285348 L 125.136033 19.625748 L 117.016800 14.693400 L 124.624206 20.383512 L 125.084806 19.767712 L 117.477400 14.077600 L 124.507783 20.466944 L 125.024083 19.898844 L 117.993700 13.509500 L 124.383722 20.539267 L 124.951822 20.022867 L 118.561800 12.993100 L 124.250527 20.601541 L 124.866427 20.141041 L 119.177700 12.532600 L 124.110048 20.651833 L 124.769648 20.251133 L 119.837300 12.131900 L 123.960535 20.690459 L 124.659835 20.353559 L 120.536600 11.795000 L 123.801669 20.716285 L 124.536669 20.447285 L 121.271600 11.526000 L 123.638037 20.726542 L 124.404737 20.529342 L 122.038300 11.328800 L 123.471292 20.720101 L 124.265592 20.598901 L 122.832600 11.207600 L 123.311635 20.695515 L 124.129635 20.654215 L 123.650600 11.166300 L 123.650600 20.666300 L 260.349300 20.666300 L 260.349300 11.166300 L 259.870265 20.654215 L 260.688265 20.695515 L 261.167300 11.207600 L 259.734308 20.598901 Z M 262.600292 1.816299 C 262.284135 1.768058 261.965744 1.735812 261.646335 1.719685 L 260.828335 1.678385 C 260.668784 1.670330 260.509055 1.666300 260.349300 1.666300 L 123.650600 1.666300 C 123.490845 1.666300 123.331116 1.670330 123.171565 1.678385 L 122.353565 1.719685 C 122.034156 1.735812 121.715765 1.768058 121.399608 1.816299 L 120.605308 1.937499 C 120.291165 1.985433 119.979625 2.049099 119.671863 2.128258 L 118.905163 2.325458 C 118.601190 2.403642 118.301278 2.496842 118.006531 2.604715 L 117.271531 2.873715 C 116.979715 2.980516 116.693316 3.101570 116.413365 3.236441 L 115.714065 3.573341 C 115.437419 3.706620 115.167397 3.853234 114.904952 4.012667 L 114.245352 4.413367 C 113.985188 4.571414 113.732770 4.741875 113.488973 4.924159 L 112.873073 5.384659 C 112.630206 5.566247 112.396173 5.759359 112.171778 5.963333 L 111.603678 6.479733 C 111.380165 6.682906 111.166468 6.896623 110.963317 7.120156 L 110.447017 7.688256 C 110.243658 7.912018 110.051098 8.145361 109.869994 8.387488 L 109.409394 9.003288 C 109.226721 9.247514 109.055914 9.500395 108.897567 9.761052 L 108.496867 10.420652 C 108.337434 10.683097 108.190820 10.953119 108.057541 11.229765 L 107.720641 11.929065 C 107.585709 12.209141 107.464607 12.495672 107.357772 12.787623 L 107.088772 13.522723 C 106.980860 13.817614 106.887636 14.117675 106.809443 14.421800 L 106.612343 15.188400 C 106.533269 15.495947 106.469666 15.807266 106.421772 16.121184 L 106.300572 16.915584 C 106.252349 17.231664 106.220113 17.549976 106.203988 17.869306 L 106.162688 18.687206 C 106.154631 18.846777 106.150600 19.006526 106.150600 19.166300 L 106.150600 190.695000 L 115.650600 181.195000 L 11.431600 181.195000 C 2.954771 181.195000 -1.277795 191.455193 4.733511 197.431884 L 185.301911 376.960484 C 189.007405 380.644640 194.992598 380.644639 198.698091 376.960482 L 379.266391 197.431882 C 385.277695 191.455191 381.045128 181.195000 372.568300 181.195000 L 268.349300 181.195000 L 277.849300 190.695000 L 277.849300 19.166300 C 277.849300 19.006526 277.845269 18.846777 277.837212 18.687206 L 277.795912 17.869306 C 277.779787 17.549976 277.747551 17.231664 277.699328 16.915584 L 277.578128 16.121184 C 277.530234 15.807266 277.466631 15.495947 277.387557 15.188400 L 277.190457 14.421800 C 277.112264 14.117675 277.019040 13.817614 276.911128 13.522723 L 276.642128 12.787623 C 276.535293 12.495672 276.414191 12.209141 276.279259 11.929065 L 275.942359 11.229765 C 275.809080 10.953119 275.662466 10.683097 275.503033 10.420652 L 275.102333 9.761052 C 274.943986 9.500395 274.773179 9.247514 274.590506 9.003288 L 274.129906 8.387488 C 273.948802 8.145361 273.756242 7.912018 273.552883 7.688256 L 273.036583 7.120156 C 272.833432 6.896623 272.619735 6.682906 272.396222 6.479733 L 271.828122 5.963333 C 271.603727 5.759359 271.369694 5.566247 271.126827 5.384659 L 270.510927 4.924159 C 270.267130 4.741875 270.014712 4.571414 269.754548 4.413367 L 269.094948 4.012667 C 268.832503 3.853234 268.562481 3.706620 268.285835 3.573341 L 267.586535 3.236441 C 267.306584 3.101570 267.020185 2.980516 266.728369 2.873715 L 265.993369 2.604715 C 265.698622 2.496842 265.398710 2.403642 265.094737 2.325458 L 264.328037 2.128258 C 264.020275 2.049099 263.708735 1.985433 263.394592 1.937499 L 262.600292 1.816299 Z" transform="scale(1.000000,1.000000) translate(58.000000,-1.000000)" fill="#ff0000" opacity="1.000000"></path>
    </g>
</svg>