<?xml version="1.0" encoding="UTF-8" standalone="yes"?>
<!DOCTYPE svg PUBLIC "-//W3C//DTD SVG 1.1//EN" "http://www.w3.org/Graphics/SVG/1.1/DTD/svg11.dtd">

<svg width="500" height="500" viewBox="0 0 500 500" xmlns="http://www.w3.org/2000/svg" xmlns:xlink="http://www.w3.org/1999/xlink" version="1.1" baseProfile="full">
    <g transform="scale(1.000000,-1.000000) translate(0,-500)">
        <path d="M 241.757858 240.371536 L 1.000000 1.000000 L 482.515717 1.000000 Z" transform="scale(1.000000,1.000000) translate(8.242145,248.537888)" opacity="1.000000"></path>
        <path d="M 9.000000 1.000000 L 196.598373 1.000000 C 201.016651 1.000000 204.598373 4.581722 204.598373 9.000000 L 204.598373 240.371536 C 204.598373 240.371536 204.598373 240.371536 204.598373 240.371536 L 1.000000 240.371536 C 1.000000 240.371536 1.000000 240.371536 1.000000 240.371536 L 1.000000 9.000000 C 1.000000 4.581722 4.581722 1.000000 9.000000 1.000000 Z" transform="scale(1.000000,1.000000) translate(147.200821,9.166359)" opacity="1.000000"></path>
        <path d="M 38.006449 132.055383 Q 32.751095 125.048244 32.970068 113.333185 L 3.846650 113.333185 Q 4.284596 125.157731 7.897652 135.777925 Q 11.729680 145.084280 19.941171 152.967311 Q 26.072417 158.551124 34.502880 161.507261 Q 42.933343 164.463397 55.195835 164.463397 Q 77.969034 164.463397 91.928567 152.693595 Q 105.888101 140.923792 105.888101 121.106729 Q 105.888101 107.092453 97.567124 97.457638 Q 92.311770 91.435878 86.618471 89.246147 Q 90.888445 89.246147 98.880962 81.910550 Q 110.814995 70.852409 110.814995 51.692266 Q 110.814995 31.546743 96.855462 16.273372 Q 82.895928 1.000000 55.524295 1.000000 Q 21.802442 1.000000 8.664057 23.006794 Q 1.766406 34.721853 1.000000 53.663023 L 31.656230 53.663023 Q 31.656230 44.137695 34.721853 37.896962 Q 40.415153 26.400876 55.414808 26.400876 Q 64.611677 26.400876 71.454585 32.696352 Q 78.297494 38.991828 78.297494 50.816374 Q 78.297494 66.472948 65.597056 71.728302 Q 58.370944 74.684438 42.823856 74.684438 L 42.823856 97.019691 Q 58.042485 97.238664 64.064244 99.975828 Q 74.465465 104.574262 74.465465 118.588539 Q 74.465465 127.675921 69.155368 133.369221 Q 63.845271 139.062521 54.210456 139.062521 Q 43.152316 139.062521 38.006449 132.055383 Z" transform="scale(1.000000,1.000000) translate(194.092503,166.806189)" fill="#00ff00" opacity="1.000000"></path>
        <path d="M 345.184108 20.598901 L 345.978408 20.720101 L 347.411400 11.328800 L 345.044963 20.529342 L 345.811663 20.726542 L 348.178100 11.526000 L 344.913031 20.447285 L 345.648031 20.716285 L 348.913100 11.795000 L 344.789865 20.353559 L 345.489165 20.690459 L 349.612400 12.131900 L 344.680052 20.251133 L 345.339652 20.651833 L 350.272000 12.532600 L 344.583273 20.141041 L 345.199173 20.601541 L 350.887900 12.993100 L 344.497878 20.022867 L 345.065978 20.539267 L 351.456000 13.509500 L 344.425617 19.898844 L 344.941917 20.466944 L 351.972300 14.077600 L 344.364894 19.767712 L 344.825494 20.383512 L 352.432900 14.693400 L 344.313667 19.625748 L 344.714367 20.285348 L 352.833600 15.353000 L 344.275041 19.476235 L 344.611941 20.175535 L 353.170500 16.052300 L 344.249072 19.316977 L 344.518072 20.052077 L 353.439500 16.787400 L 344.238743 19.153000 L 344.435843 19.919600 L 353.636600 17.554000 L 344.245272 18.986816 L 344.366472 19.781216 L 353.757800 18.348400 L 344.269888 18.827494 L 344.311188 19.645394 L 353.799100 19.166300 L 344.299100 19.166300 L 344.299100 250.537800 C 344.299100 255.784505 348.552395 260.037800 353.799100 260.037800 L 492.757800 260.037800 L 486.059708 243.800919 L 245.301908 483.172519 L 258.698091 483.172518 L 17.940191 243.800918 L 11.242100 260.037800 L 150.200800 260.037800 C 155.447505 260.037800 159.700800 255.784505 159.700800 250.537800 L 159.700800 19.166300 L 150.200800 19.166300 L 159.688712 19.645394 L 159.730012 18.827494 L 150.242100 18.348400 L 159.633428 19.781216 L 159.754628 18.986816 L 150.363300 17.554000 L 159.564057 19.919600 L 159.761157 19.153000 L 150.560400 16.787400 L 159.481437 20.053147 L 159.750537 19.318047 L 150.829500 16.052300 L 159.388537 20.174542 L 159.725337 19.475242 L 151.166300 15.353000 L 159.285533 20.285348 L 159.686233 19.625748 L 151.567000 14.693400 L 159.174406 20.383512 L 159.635006 19.767712 L 152.027600 14.077600 L 159.057983 20.466944 L 159.574283 19.898844 L 152.543900 13.509500 L 158.933922 20.539267 L 159.502022 20.022867 L 153.112000 12.993100 L 158.800727 20.601541 L 159.416627 20.141041 L 153.727900 12.532600 L 158.660248 20.651833 L 159.319848 20.251133 L 154.387500 12.131900 L 158.510735 20.690459 L 159.210035 20.353559 L 155.086800 11.795000 L 158.351869 20.716285 L 159.086869 20.447285 L 155.821800 11.526000 L 158.188237 20.726542 L 158.954937 20.529342 L 156.588500 11.328800 L 158.021492 20.720101 L 158.815792 20.598901 L 157.382800 11.207600 L 157.861835 20.695515 L 158.679835 20.654215 L 158.200800 11.166300 L 158.200800 20.666300 L 345.799100 20.666300 L 345.799100 11.166300 L 345.320065 20.654215 L 346.138065 20.695515 L 346.617100 11.207600 L 345.184108 20.598901 Z M 348.050092 1.816299 C 347.733935 1.768058 347.415544 1.735812 347.096135 1.719685 L 346.278135 1.678385 C 346.118584 1.670330 345.958855 1.666300 345.799100 1.666300 L 158.200800 1.666300 C 158.041045 1.666300 157.881316 1.670330 157.721765 1.678385 L 156.903765 1.719685 C 156.584356 1.735812 156.265965 1.768058 155.949808 1.816299 L 155.155508 1.937499 C 154.841365 1.985433 154.529825 2.049099 154.222063 2.128258 L 153.455363 2.325458 C 153.151390 2.403642 152.851478 2.496842 152.556731 2.604715 L 151.821731 2.873715 C 151.529915 2.980516 151.243516 3.101570 150.963565 3.236441 L 150.264265 3.573341 C 149.987619 3.706620 149.717597 3.853234 149.455152 4.012667 L 148.795552 4.413367 C 148.535388 4.571414 148.282970 4.741875 148.039173 4.924159 L 147.423273 5.384659 C 147.180406 5.566247 146.946373 5.759359 146.721978 5.963333 L 146.153878 6.479733 C 145.930365 6.682906 145.716668 6.896623 145.513517 7.120156 L 144.997217 7.688256 C 144.793858 7.912018 144.601298 8.145361 144.420194 8.387488 L 143.959594 9.003288 C 143.776921 9.247514 143.606114 9.500395 143.447767 9.761052 L 143.047067 10.420652 C 142.887443 10.683412 142.740669 10.953765 142.607263 11.230758 L 142.270463 11.930058 C 142.135888 12.209476 142.015077 12.495317 141.908463 12.786553 L 141.639363 13.521653 C 141.531286 13.816888 141.437931 14.117307 141.359643 14.421800 L 141.162543 15.188400 C 141.083469 15.495947 141.019866 15.807266 140.971972 16.121184 L 140.850772 16.915584 C 140.802549 17.231664 140.770313 17.549976 140.754188 17.869306 L 140.712888 18.687206 C 140.704831 18.846777 140.700800 19.006526 140.700800 19.166300 L 140.700800 250.537800 L 150.200800 241.037800 L 11.242100 241.037800 C 2.765272 241.037800 -1.467295 251.297991 4.544009 257.274682 L 245.301909 496.646282 C 249.007403 500.330440 254.992599 500.330439 258.698092 496.646281 L 499.455892 257.274681 C 505.467194 251.297989 501.234627 241.037800 492.757800 241.037800 L 353.799100 241.037800 L 363.299100 250.537800 L 363.299100 19.166300 C 363.299100 19.006526 363.295069 18.846777 363.287012 18.687206 L 363.245712 17.869306 C 363.229587 17.549976 363.197351 17.231664 363.149128 16.915584 L 363.027928 16.121184 C 362.980034 15.807266 362.916431 15.495947 362.837357 15.188400 L 362.640257 14.421800 C 362.562064 14.117675 362.468840 13.817614 362.360928 13.522723 L 362.091928 12.787623 C 361.985093 12.495672 361.863991 12.209141 361.729059 11.929065 L 361.392159 11.229765 C 361.258880 10.953119 361.112266 10.683097 360.952833 10.420652 L 360.552133 9.761052 C 360.393786 9.500395 360.222979 9.247514 360.040306 9.003288 L 359.579706 8.387488 C 359.398602 8.145361 359.206042 7.912018 359.002683 7.688256 L 358.486383 7.120156 C 358.283232 6.896623 358.069535 6.682906 357.846022 6.479733 L 357.277922 5.963333 C 357.053527 5.759359 356.819494 5.566247 356.576627 5.384659 L 355.960727 4.924159 C 355.716930 4.741875 355.464512 4.571414 355.204348 4.413367 L 354.544748 4.012667 C 354.282303 3.853234 354.012281 3.706620 353.735635 3.573341 L 353.036335 3.236441 C 352.756384 3.101570 352.469985 2.980516 352.178169 2.873715 L 351.443169 2.604715 C 351.148422 2.496842 350.848510 2.403642 350.544537 2.325458 L 349.777837 2.128258 C 349.470075 2.049099 349.158535 1.985433 348.844392 1.937499 L 348.050092 1.816299 Z" transform="scale(1.000000,1.000000) translate(-2.000000,-1.000000)" fill="#ff0000" opacity="1.000000"></path>
    </g>
</svg>