<?xml version="1.0" encoding="UTF-8" standalone="yes"?>
<!DOCTYPE svg PUBLIC "-//W3C//DTD SVG 1.1//EN" "http://www.w3.org/Graphics/SVG/1.1/DTD/svg11.dtd">

<svg width="500" height="500" viewBox="0 0 500 500" xmlns="http://www.w3.org/2000/svg" xmlns:xlink="http://www.w3.org/1999/xlink" version="1.1" baseProfile="full">
    <g transform="scale(1.000000,-1.000000) translate(0,-500)">
        <path d="M 215.729980 214.493530 L 1.000000 1.000000 L 430.459961 1.000000 Z" transform="scale(1.000000,1.000000) translate(34.270020,278.087746)" opacity="1.000000"></path>
        <path d="M 232.697991 217.844318 L 17.968091 4.350818 L 11.270000 20.587700 L 440.729900 20.587700 L 434.031810 4.350817 L 219.301810 217.844317 L 232.697991 217.844318 Z M 219.301809 231.318082 C 223.007302 235.002239 228.992496 235.002240 232.697990 231.318083 L 447.427990 17.824583 C 453.439295 11.847893 449.206729 1.587700 440.729900 1.587700 L 11.270000 1.587700 C 2.793172 1.587700 -1.439395 11.847891 4.571909 17.824582 L 219.301809 231.318082 Z" transform="scale(1.000000,1.000000) translate(24.000000,268.000000)" fill="#ff0000" opacity="1.000000"></path>
        <path d="M 204.575177 203.402959 L 1.000000 1.000000 L 408.150354 1.000000 Z" transform="scale(1.000000,1.000000) translate(45.424823,210.645097)" opacity="1.000000"></path>
        <path d="M 9.000000 1.000000 L 165.154609 1.000000 C 169.572887 1.000000 173.154609 4.581722 173.154609 9.000000 L 173.154609 203.402959 C 173.154609 203.402959 173.154609 203.402959 173.154609 203.402959 L 1.000000 203.402959 C 1.000000 203.402959 1.000000 203.402959 1.000000 203.402959 L 1.000000 9.000000 C 1.000000 4.581722 4.581722 1.000000 9.000000 1.000000 Z" transform="scale(1.000000,1.000000) translate(162.922700,8.242145)" opacity="1.000000"></path>
        <path d="M 60.990167 107.926917 Q 56.268718 113.574140 47.473864 113.574140 Q 35.438799 113.574140 31.087661 104.594130 Q 28.588070 99.409795 28.125183 88.115350 L 2.481239 88.115350 Q 3.129281 105.242172 8.683926 115.795998 Q 19.237751 135.885298 46.177780 135.885298 Q 67.470586 135.885298 80.061115 124.081677 Q 92.651643 112.278056 92.651643 92.836798 Q 92.651643 77.931834 83.764211 66.359657 Q 77.931834 58.675731 64.600686 49.232835 L 54.046860 41.734064 Q 44.141077 34.698180 40.484269 31.550548 Q 36.827461 28.402916 34.327870 24.236932 L 92.929376 24.236932 L 92.929376 1.000000 L 1.000000 1.000000 Q 1.370310 15.442077 7.202687 27.384564 Q 12.849909 40.808290 33.864983 55.805831 Q 52.102735 68.859247 57.472225 74.506470 Q 65.711615 83.301324 65.711615 93.762572 Q 65.711615 102.279695 60.990167 107.926917 Z" transform="scale(1.000000,1.000000) translate(203.035310,143.202448)" fill="#00ff00" opacity="1.000000"></path>
        <path d="M 292.462208 20.674701 L 293.256508 20.795901 L 294.689500 11.404600 L 292.323063 20.605142 L 293.089763 20.802342 L 295.456200 11.601800 L 292.191131 20.523085 L 292.926131 20.792085 L 296.191200 11.870800 L 292.067965 20.429359 L 292.767265 20.766259 L 296.890500 12.207700 L 291.958152 20.326933 L 292.617752 20.727633 L 297.550100 12.608400 L 291.861373 20.216841 L 292.477273 20.677341 L 298.166000 13.068900 L 291.776656 20.099283 L 292.344756 20.615583 L 298.734100 13.585200 L 291.703158 19.973928 L 292.219458 20.542128 L 299.250400 14.153400 L 291.642994 19.843512 L 292.103594 20.459312 L 299.711000 14.769200 L 291.591767 19.701548 L 291.992467 20.361148 L 300.111700 15.428800 L 291.553141 19.552035 L 291.890041 20.251335 L 300.448600 16.128100 L 291.527315 19.393169 L 291.796315 20.128169 L 300.717600 16.863100 L 291.516768 19.228411 L 291.713868 19.995111 L 300.914700 17.629800 L 291.523575 19.063948 L 291.644875 19.858248 L 301.036000 18.424100 L 291.548085 18.903135 L 291.589385 19.721135 L 301.077300 19.242100 L 291.577300 19.242100 L 291.577300 213.645000 C 291.577300 218.891705 295.830595 223.145000 301.077300 223.145000 L 418.575100 223.145000 L 411.877009 206.908118 L 208.301809 409.311118 L 221.697992 409.311120 L 18.122892 206.908120 L 11.424800 223.145000 L 128.922600 223.145000 C 134.169305 223.145000 138.422600 218.891705 138.422600 213.645000 L 138.422600 19.242100 L 128.922600 19.242100 L 138.410456 19.722292 L 138.451856 18.904292 L 128.964000 18.424100 L 138.355301 19.857092 L 138.476501 19.062792 L 129.085200 17.629800 L 138.286032 19.995111 L 138.483132 19.228411 L 129.282300 16.863100 L 138.203585 20.128169 L 138.472585 19.393169 L 129.551300 16.128100 L 138.109859 20.251335 L 138.446759 19.552035 L 129.888200 15.428800 L 138.007433 20.361148 L 138.408133 19.701548 L 130.288900 14.769200 L 137.896306 20.459312 L 138.356906 19.843512 L 130.749500 14.153400 L 137.780442 20.542128 L 138.296742 19.973928 L 131.265800 13.585200 L 137.655144 20.615583 L 138.223244 20.099283 L 131.833900 13.068900 L 137.522627 20.677341 L 138.138527 20.216841 L 132.449800 12.608400 L 137.382148 20.727633 L 138.041748 20.326933 L 133.109400 12.207700 L 137.232635 20.766259 L 137.931935 20.429359 L 133.808700 11.870800 L 137.073769 20.792085 L 137.808769 20.523085 L 134.543700 11.601800 L 136.910137 20.802342 L 137.676837 20.605142 L 135.310400 11.404600 L 136.743392 20.795901 L 137.537692 20.674701 L 136.104700 11.283400 L 136.583794 20.771312 L 137.401694 20.730012 L 136.922600 11.242100 L 136.922600 20.742100 L 293.077300 20.742100 L 293.077300 11.242100 L 292.598206 20.730012 L 293.416106 20.771312 L 293.895200 11.283400 L 292.462208 20.674701 Z M 295.328192 1.892099 C 295.012055 1.843861 294.693683 1.811616 294.374294 1.795488 L 293.556394 1.754188 C 293.396823 1.746131 293.237074 1.742100 293.077300 1.742100 L 136.922600 1.742100 C 136.762826 1.742100 136.603077 1.746131 136.443506 1.754188 L 135.625606 1.795488 C 135.306217 1.811616 134.987845 1.843861 134.671708 1.892099 L 133.877408 2.013299 C 133.563265 2.061233 133.251725 2.124899 132.943963 2.204058 L 132.177263 2.401258 C 131.873290 2.479442 131.573378 2.572642 131.278631 2.680515 L 130.543631 2.949515 C 130.251815 3.056316 129.965416 3.177370 129.685465 3.312241 L 128.986165 3.649141 C 128.709519 3.782420 128.439497 3.929034 128.177052 4.088467 L 127.517452 4.489167 C 127.257288 4.647214 127.004870 4.817675 126.761073 4.999959 L 126.145173 5.460459 C 125.902550 5.641864 125.668744 5.834771 125.444556 6.038517 L 124.876456 6.554817 C 124.652491 6.758360 124.438381 6.972489 124.234858 7.196472 L 123.718558 7.764672 C 123.515405 7.988246 123.323032 8.221383 123.142094 8.463288 L 122.681494 9.079088 C 122.498821 9.323314 122.328014 9.576195 122.169667 9.836852 L 121.768967 10.496452 C 121.609534 10.758897 121.462920 11.028919 121.329641 11.305565 L 120.992741 12.004865 C 120.857870 12.284816 120.736816 12.571215 120.630015 12.863031 L 120.361015 13.598031 C 120.253008 13.893142 120.159711 14.193431 120.081468 14.497789 L 119.884368 15.264489 C 119.805344 15.571885 119.741775 15.883048 119.693899 16.196808 L 119.572699 16.991108 C 119.524516 17.306883 119.492290 17.624886 119.476144 17.943908 L 119.434744 18.761908 C 119.426649 18.921844 119.422600 19.081959 119.422600 19.242100 L 119.422600 213.645000 L 128.922600 204.145000 L 11.424800 204.145000 C 2.947973 204.145000 -1.284594 214.405189 4.726708 220.381880 L 208.301808 422.784880 C 212.007301 426.469039 217.992496 426.469040 221.697991 422.784882 L 425.273191 220.381882 C 431.284495 214.405191 427.051928 204.145000 418.575100 204.145000 L 301.077300 204.145000 L 310.577300 213.645000 L 310.577300 19.242100 C 310.577300 19.082345 310.573270 18.922616 310.565215 18.763065 L 310.523915 17.945065 C 310.507768 17.625266 310.475464 17.306489 310.427125 16.989952 L 310.305825 16.195652 C 310.257969 15.882284 310.194459 15.571508 310.115532 15.264489 L 309.918432 14.497789 C 309.840189 14.193431 309.746892 13.893142 309.638885 13.598031 L 309.369885 12.863031 C 309.263084 12.571215 309.142030 12.284816 309.007159 12.004865 L 308.670259 11.305565 C 308.536980 11.028919 308.390366 10.758897 308.230933 10.496452 L 307.830233 9.836852 C 307.671886 9.576195 307.501079 9.323314 307.318406 9.079088 L 306.857806 8.463288 C 306.676868 8.221383 306.484495 7.988246 306.281342 7.764672 L 305.765042 7.196472 C 305.561519 6.972489 305.347409 6.758360 305.123444 6.554817 L 304.555344 6.038517 C 304.331156 5.834771 304.097350 5.641864 303.854727 5.460459 L 303.238827 4.999959 C 302.995030 4.817675 302.742612 4.647214 302.482448 4.489167 L 301.822848 4.088467 C 301.560403 3.929034 301.290381 3.782420 301.013735 3.649141 L 300.314435 3.312241 C 300.034484 3.177370 299.748085 3.056316 299.456269 2.949515 L 298.721269 2.680515 C 298.426522 2.572642 298.126610 2.479442 297.822637 2.401258 L 297.055937 2.204058 C 296.748175 2.124899 296.436635 2.061233 296.122492 2.013299 L 295.328192 1.892099 Z" transform="scale(1.000000,1.000000) translate(35.000000,-2.000000)" fill="#ff0000" opacity="1.000000"></path>
    </g>
</svg>