<?xml version="1.0" encoding="UTF-8" standalone="yes"?>
<!DOCTYPE svg PUBLIC "-//W3C//DTD SVG 1.1//EN" "http://www.w3.org/Graphics/SVG/1.1/DTD/svg11.dtd">

<svg width="500" height="500" viewBox="0 0 500 500" xmlns="http://www.w3.org/2000/svg" xmlns:xlink="http://www.w3.org/1999/xlink" version="1.1" baseProfile="full">
    <g transform="scale(1.000000,-1.000000) translate(0,-500)">
        <path d="M 1.000000 193.420380 L 192.312393 1.000000 L 192.312393 385.840760 Z" transform="scale(1.000000,1.000000) translate(12.650639,55.933734)" fill="#ffffff" opacity="1.000000"></path>
        <path d="M 581.743237 276.243683 L 581.578237 279.636783 L 581.366837 283.018683 L 581.109237 286.389183 L 580.805737 289.747883 L 580.456537 293.094683 L 580.062037 296.429183 L 579.622437 299.751283 L 579.138137 303.060583 L 578.609237 306.356883 L 578.036237 309.639883 L 577.419137 312.909283 L 576.758737 316.164983 L 576.054737 319.406583 L 575.307737 322.633983 L 574.517937 325.846783 L 573.685737 329.044783 L 572.811237 332.227483 L 571.894737 335.395083 L 570.936737 338.546983 L 569.937337 341.682983 L 568.896937 344.802883 L 567.815637 347.906283 L 566.693937 350.993183 L 565.531937 354.063083 L 564.330137 357.115883 L 563.088537 360.151183 L 561.807737 363.168783 L 560.487737 366.168483 L 559.129037 369.149883 L 557.731837 372.112883 L 556.296337 375.057183 L 554.822937 377.982383 L 553.311937 380.888283 L 551.763537 383.774883 L 550.178137 386.641483 L 548.555837 389.488283 L 546.897137 392.314683 L 545.202137 395.120483 L 543.471237 397.905483 L 541.704637 400.669483 L 539.902737 403.412083 L 538.065737 406.133083 L 536.193937 408.832283 L 534.287637 411.509183 L 532.347137 414.163983 L 530.372637 416.795883 L 528.364537 419.405183 L 526.323037 421.991083 L 524.248537 424.553583 L 522.141137 427.092483 L 520.001337 429.607483 L 517.829237 432.098283 L 515.625137 434.564583 L 513.389437 437.006183 L 511.122437 439.422783 L 508.824237 441.814083 L 506.495237 444.179983 L 504.135837 446.520083 L 501.746137 448.834183 L 499.326437 451.121983 L 496.877137 453.383283 L 494.398437 455.617683 L 491.890737 457.825183 L 489.354137 460.005283 L 486.789037 462.157783 L 484.195737 464.282383 L 481.574437 466.378983 L 478.925537 468.447183 L 476.249137 470.486883 L 473.545737 472.497583 L 470.815537 474.479183 L 468.058737 476.431283 L 465.275837 478.353883 L 462.466837 480.246483 L 459.632237 482.108883 L 456.772237 483.940883 L 453.887237 485.742083 L 450.977337 487.512383 L 448.042837 489.251483 L 445.084237 490.959183 L 442.101537 492.634983 L 439.095237 494.278883 L 436.065637 495.890483 L 433.012837 497.469583 L 429.937237 499.015883 L 426.839137 500.529183 L 423.718737 502.009083 L 420.576437 503.455483 L 417.412337 504.868083 L 414.226937 506.246583 L 411.020437 507.590683 L 407.793137 508.900283 L 404.545337 510.174983 L 401.277237 511.414483 L 397.989137 512.618683 L 394.681337 513.787183 L 391.354237 514.919783 L 388.007937 516.016283 L 384.642937 517.076283 L 381.259237 518.099683 L 377.857437 519.086083 L 374.437537 520.035183 L 371.000037 520.946983 L 367.545137 521.820983 L 364.073137 522.657083 L 360.584237 523.454783 L 357.078837 524.214083 L 353.557237 524.934483 L 350.019537 525.616083 L 346.466237 526.258283 L 342.897537 526.860983 L 339.313737 527.423683 L 335.715037 527.946583 L 332.101837 528.428983 L 328.474337 528.870883 L 324.832937 529.271883 L 321.177837 529.631783 L 317.509237 529.950283 L 313.827637 530.227183 L 310.133137 530.462283 L 306.426037 530.655183 L 302.706637 530.805583 L 298.975437 530.913383 L 295.232437 530.978283 L 293.321837 530.989283 L 293.321837 409.054283 L 294.845237 409.071883 L 298.806237 409.026183 L 302.742437 408.889583 L 306.652637 408.663683 L 310.535737 408.349083 L 314.390537 407.947083 L 318.215837 407.458783 L 322.010337 406.885083 L 325.772937 406.227483 L 329.502337 405.486883 L 333.197437 404.664283 L 336.856937 403.760883 L 340.479737 402.777783 L 344.064437 401.715983 L 347.610137 400.576683 L 351.115337 399.360983 L 354.578937 398.069883 L 357.999837 396.704683 L 361.376637 395.266383 L 364.708337 393.755983 L 367.993537 392.174483 L 371.231237 390.523483 L 374.420037 388.803583 L 377.558837 387.015983 L 380.646337 385.162083 L 383.681537 383.242583 L 386.663037 381.258783 L 389.589637 379.211683 L 392.460237 377.102683 L 395.273637 374.932483 L 398.028537 372.702383 L 400.723737 370.413483 L 403.358037 368.066683 L 405.930337 365.663483 L 408.439337 363.204683 L 410.883837 360.691483 L 413.262637 358.124883 L 415.574637 355.505983 L 417.818437 352.836083 L 419.992937 350.116083 L 422.096937 347.347083 L 424.129237 344.530483 L 426.088537 341.666983 L 427.973837 338.757883 L 429.783737 335.804183 L 431.517037 332.807083 L 433.172637 329.767683 L 434.749337 326.686983 L 436.245837 323.566183 L 437.661037 320.406383 L 438.993537 317.208483 L 440.242437 313.973883 L 441.406237 310.703483 L 442.483937 307.398583 L 443.474137 304.060083 L 444.375837 300.688983 L 445.187737 297.286783 L 445.908637 293.854183 L 446.537337 290.392483 L 447.072537 286.902783 L 447.513237 283.385983 L 447.858037 279.843383 L 448.105837 276.276283 L 448.117337 275.999983 L 581.751737 275.999983 Z" transform="scale(1.000000,1.000000) translate(-91.073937,-219.068983)" fill="#ffffff" opacity="1.000000"></path>
        <path d="M 583.180512 286.713278 L 583.015512 290.106378 L 592.504300 290.567800 L 583.022806 289.975119 L 582.811406 293.357019 L 592.292900 293.949700 L 582.820525 293.225747 L 582.562925 296.596247 L 592.035300 297.320200 L 582.573850 296.465241 L 582.270350 299.823941 L 591.731800 300.678900 L 582.283093 299.693036 L 581.933893 303.039836 L 591.382600 304.025700 L 581.948395 302.909553 L 581.553895 306.244053 L 590.988100 307.360200 L 581.570197 306.113967 L 581.130597 309.436067 L 590.548500 310.682300 L 581.148625 309.306674 L 580.664325 312.615974 L 590.064200 313.991600 L 580.684177 312.486551 L 580.155277 315.782851 L 589.535300 317.287900 L 580.176773 315.654505 L 579.603773 318.937505 L 588.962300 320.570900 L 579.627135 318.808885 L 579.010035 322.078285 L 588.345200 323.840300 L 579.034811 321.951741 L 578.374411 325.207441 L 587.684800 327.096000 L 578.401211 325.079821 L 577.697211 328.321421 L 586.980800 330.337600 L 577.725478 328.195403 L 576.978478 331.422803 L 586.233800 333.565000 L 577.008464 331.297143 L 576.218664 334.509943 L 585.444000 336.777800 L 576.250190 334.385340 L 575.417990 337.583340 L 584.611800 339.975800 L 575.451303 337.458800 L 574.576803 340.641500 L 583.737300 343.158500 L 574.611603 340.518110 L 573.695103 343.685710 L 582.820800 346.326100 L 573.731375 343.563427 L 572.773375 346.715327 L 581.862800 349.478000 L 572.811325 346.593420 L 571.811925 349.729420 L 580.863400 352.614000 L 571.851284 349.608710 L 570.810884 352.728610 L 579.823000 355.733900 L 570.851947 352.608167 L 569.770647 355.711567 L 578.741700 358.837300 L 569.812911 355.592808 L 568.691211 358.679708 L 577.620000 361.924200 L 568.735179 358.561171 L 567.573179 361.631071 L 576.458000 364.994100 L 567.618313 361.514168 L 566.416513 364.566968 L 575.256200 368.046900 L 566.463389 364.450170 L 565.221789 367.485470 L 574.014600 371.082200 L 565.269705 367.370488 L 563.988905 370.388088 L 572.733800 374.099800 L 564.038448 370.273463 L 562.718448 373.273163 L 571.413800 377.099500 L 562.769165 373.159920 L 561.410465 376.141320 L 570.055100 380.080900 L 561.462506 376.029070 L 560.065306 378.992070 L 568.657900 383.043900 L 560.118750 378.880618 L 558.683250 381.824918 L 567.222400 385.988200 L 558.737909 381.714629 L 557.264509 384.639829 L 565.749000 388.913400 L 557.320360 384.530704 L 555.809360 387.436604 L 564.238000 391.819300 L 555.866365 387.328674 L 554.317965 390.215274 L 562.689600 394.705900 L 554.376311 390.108158 L 552.790911 392.974758 L 561.104200 397.572500 L 552.850347 392.868894 L 551.228047 395.715694 L 559.481900 400.419300 L 551.288603 395.610985 L 549.629903 398.437385 L 557.823200 403.245700 L 549.691783 398.333464 L 547.996783 401.139264 L 556.128200 406.051500 L 548.059579 401.036787 L 546.328679 403.821787 L 554.397300 408.836500 L 546.392620 403.720339 L 544.626020 406.484339 L 552.630700 411.600500 L 544.690993 406.384078 L 542.889093 409.126678 L 550.828800 414.343100 L 542.955174 409.027462 L 541.118174 411.748462 L 548.991800 417.064100 L 541.185204 411.650501 L 539.313404 414.349701 L 547.120000 419.763300 L 539.381649 414.252590 L 537.475349 416.929490 L 545.213700 422.440200 L 537.544109 416.834188 L 535.603609 419.488988 L 543.273200 425.095000 L 535.673997 419.393938 L 533.699497 422.025838 L 541.298700 427.726900 L 533.770092 421.932933 L 531.761992 424.542233 L 539.290600 430.336200 L 531.834214 424.449579 L 529.792714 427.035479 L 537.249100 432.922100 L 529.865408 426.944551 L 527.790908 429.507051 L 535.174600 435.484600 L 527.864688 429.417048 L 525.757288 431.955948 L 533.067200 438.023500 L 525.831688 431.867417 L 523.691888 434.382417 L 530.927400 440.538500 L 523.767461 434.294681 L 521.595361 436.785481 L 528.755300 443.029300 L 521.671813 436.698880 L 519.467713 439.165180 L 526.551200 445.495600 L 519.544759 439.080011 L 517.309059 441.521611 L 524.315500 447.937200 L 517.386953 441.437566 L 515.119953 443.854166 L 522.048500 450.353800 L 515.198973 443.770945 L 512.900773 446.162245 L 519.750300 452.745100 L 512.980198 446.080588 L 510.651198 448.446488 L 517.421300 455.111000 L 510.731430 448.365955 L 508.372030 450.706055 L 515.061900 457.451100 L 508.453204 450.626502 L 506.063504 452.940602 L 512.672200 459.765200 L 506.145466 452.862176 L 503.725766 455.149976 L 510.252500 462.053000 L 503.808212 455.072946 L 501.358912 457.334246 L 507.803200 464.314300 L 501.442422 457.258061 L 498.963722 459.492461 L 505.324500 466.548700 L 499.047375 459.417943 L 496.539675 461.625443 L 502.816800 468.756200 L 496.624674 461.551509 L 494.088074 463.731609 L 500.280200 470.936300 L 494.173509 463.659053 L 491.608409 465.811553 L 497.715100 473.088800 L 491.694574 465.740108 L 489.101274 467.864708 L 495.121800 475.213400 L 489.187956 467.794539 L 486.566656 469.891139 L 492.500500 477.310000 L 486.654082 469.822050 L 484.005182 471.890250 L 489.851600 479.378200 L 484.093228 471.822331 L 481.416828 473.862031 L 487.175200 481.417900 L 481.505653 473.795155 L 478.802253 475.805855 L 484.471800 483.428600 L 478.891539 475.740253 L 476.161339 477.721853 L 481.741600 485.410200 L 476.251621 477.657127 L 473.494821 479.609227 L 478.984800 487.362300 L 473.584946 479.546190 L 470.802046 481.468790 L 476.201900 489.284900 L 470.893606 481.406321 L 468.084606 483.298921 L 473.392900 491.177500 L 468.176370 483.237865 L 465.341770 485.100265 L 470.558300 493.039900 L 465.434115 485.040354 L 462.574115 486.872354 L 467.698300 494.871900 L 462.667177 486.813500 L 459.782177 488.614700 L 464.813300 496.673100 L 459.875724 488.557045 L 456.965824 490.327345 L 461.903400 498.443400 L 457.059995 490.270798 L 454.125495 492.009898 L 458.968900 500.182500 L 454.219835 491.954719 L 451.261235 493.662419 L 456.010300 501.890200 L 451.356972 493.607897 L 448.374272 495.283697 L 453.027600 503.566000 L 448.469746 495.230775 L 445.463446 496.874675 L 450.021300 505.209900 L 445.559738 496.822739 L 442.530138 498.434339 L 446.991700 506.821500 L 442.627039 498.383506 L 439.574239 499.962606 L 443.938900 508.400600 L 439.671615 499.912945 L 436.596015 501.459245 L 440.863300 509.946900 L 436.693754 501.410807 L 433.595654 502.924107 L 437.765200 511.460200 L 433.694301 502.876624 L 430.573901 504.356524 L 434.644800 512.940100 L 430.672562 504.310423 L 427.530262 505.756823 L 431.502500 514.386500 L 427.629690 505.711747 L 424.465590 507.124347 L 428.338400 515.799100 L 424.565370 507.080485 L 421.379970 508.458985 L 425.153000 517.177600 L 421.480401 508.416207 L 418.273901 509.760307 L 421.946500 518.521700 L 418.374408 509.718850 L 415.147108 511.028450 L 418.719200 519.831300 L 415.248384 510.988029 L 412.000584 512.262729 L 415.471400 521.106000 L 412.102480 512.223412 L 408.834380 513.462912 L 412.203300 522.345500 L 408.936317 513.424916 L 405.648217 514.629116 L 408.915200 523.549700 L 405.750902 514.592177 L 402.443102 515.760677 L 405.607400 524.718200 L 402.545966 515.725001 L 399.218866 516.857601 L 402.280300 525.850800 L 399.322146 516.823102 L 395.975846 517.919602 L 398.934000 526.947300 L 396.079696 517.886232 L 392.714696 518.946232 L 395.569000 528.007300 L 392.818763 518.914105 L 389.435063 519.937505 L 392.185300 529.030700 L 389.539620 519.906536 L 386.137820 520.892936 L 388.783500 530.017100 L 386.243299 520.863009 L 382.823399 521.812009 L 385.363600 530.966100 L 382.927694 521.783706 L 379.490194 522.695606 L 381.926100 531.878000 L 379.596241 522.668127 L 376.141341 523.542127 L 378.471200 532.752000 L 376.247065 523.516026 L 372.775065 524.352126 L 374.999200 533.588100 L 372.881766 524.327081 L 369.392866 525.124781 L 371.510300 534.385800 L 369.499158 525.101119 L 365.993758 525.860419 L 368.004900 535.145100 L 366.100951 525.837846 L 362.579351 526.558246 L 364.483300 535.865500 L 362.686013 526.537062 L 359.148313 527.218662 L 360.945600 536.547100 L 359.256006 527.198556 L 355.702706 527.840756 L 357.392300 537.189300 L 355.810295 527.821949 L 352.241595 528.424649 L 353.823600 537.792000 L 352.350038 528.406979 L 348.766238 528.969679 L 350.239800 538.354700 L 348.873772 528.953425 L 345.275072 529.476325 L 346.641100 538.877600 L 345.383906 529.461154 L 341.770706 529.943554 L 343.027900 539.360000 L 341.879108 529.929715 L 338.251608 530.371615 L 339.400400 539.801900 L 338.360523 530.358984 L 334.719123 530.759984 L 335.759000 540.202900 L 334.828083 530.748621 L 331.172983 531.108521 L 332.103900 540.562800 L 331.282221 531.098401 L 327.613621 531.416901 L 328.435300 540.881300 L 327.723056 531.408037 L 324.041456 531.684837 L 324.753700 541.158100 L 324.150131 531.677293 L 320.455631 531.912493 L 321.059200 541.393300 L 320.565533 531.906135 L 316.858433 532.099035 L 317.352100 541.586200 L 316.968266 532.093957 L 313.248866 532.244357 L 313.632700 541.736600 L 313.358345 532.240562 L 309.627145 532.348362 L 309.901500 541.844400 L 309.736645 532.345830 L 306.798145 532.396830 C 301.616488 532.486762 297.463000 536.712963 297.463000 541.895400 L 297.463000 671.774400 L 313.699881 665.076308 L 122.387481 472.656008 L 122.387483 486.052190 L 313.699883 293.631790 L 297.463000 286.933700 L 297.463000 419.989200 C 297.463000 425.278825 301.783496 429.549685 307.072768 429.488566 L 309.842068 429.456566 L 310.061785 429.451485 L 313.997985 429.314885 L 314.216420 429.304786 L 318.126620 429.078886 L 318.345855 429.063674 L 322.228955 428.749074 L 322.447169 428.728859 L 326.301969 428.326859 L 326.519515 428.301634 L 330.344815 427.813334 L 330.562088 427.783046 L 334.356588 427.209346 L 334.571950 427.174250 L 338.334550 426.516650 L 338.549417 426.476545 L 342.278817 425.735945 L 342.492747 425.690897 L 346.187847 424.868297 L 346.400359 424.818418 L 350.059859 423.915018 L 350.270985 423.860320 L 353.893785 422.877220 L 354.103860 422.817613 L 357.688560 421.755813 L 357.896687 421.691561 L 361.442387 420.552261 L 361.649150 420.483197 L 365.154350 419.267497 L 365.359604 419.193658 L 368.823204 417.902558 L 369.026184 417.824236 L 372.447084 416.459036 L 372.648663 416.375897 L 376.025463 414.937597 L 376.225197 414.849799 L 379.556897 413.339399 L 379.755092 413.246784 L 383.040292 411.665284 L 383.235227 411.568677 L 386.472927 409.917677 L 386.667048 409.815850 L 389.855848 408.095950 L 390.047519 407.989699 L 393.186319 406.202099 L 393.375325 406.091553 L 396.462825 404.237653 L 396.650120 404.122220 L 399.685320 402.202720 L 399.870148 402.082809 L 402.851648 400.099009 L 403.034278 399.974402 L 405.960878 397.927302 L 406.140405 397.798593 L 409.011005 395.689593 L 409.188703 395.555809 L 412.002103 393.385609 L 412.176991 393.247401 L 414.931891 391.017301 C 414.989855 390.970379 415.047265 390.922775 415.104109 390.874501 L 417.799309 388.585601 C 417.856478 388.537050 417.913071 388.487823 417.969075 388.437931 L 420.603375 386.091131 C 420.659368 386.041249 420.714768 385.990706 420.769565 385.939511 L 423.341865 383.536311 C 423.397096 383.484711 423.451710 383.432453 423.505694 383.379549 L 426.014694 380.920749 C 426.068887 380.867640 426.122442 380.813884 426.175347 380.759492 L 428.619847 378.246292 C 428.673059 378.191585 428.725610 378.136238 428.777488 378.080264 L 431.156288 375.513664 C 431.208389 375.457450 431.259807 375.400608 431.310533 375.343149 L 433.622533 372.724249 C 433.673544 372.666466 433.723851 372.608064 433.773442 372.549056 L 436.017242 369.879156 C 436.067144 369.819777 436.116317 369.759790 436.164749 369.699207 L 438.339249 366.979207 C 438.387962 366.918274 438.435923 366.856744 438.483120 366.794629 L 440.587120 364.025629 C 440.634501 363.963273 440.681109 363.900333 440.726933 363.836824 L 442.759233 361.020224 C 442.805508 360.956092 442.850980 360.891383 442.895638 360.826115 L 444.854938 357.962615 C 444.899730 357.897152 444.943700 357.831131 444.986838 357.764567 L 446.872138 354.855467 C 446.915659 354.788313 446.958330 354.720611 447.000140 354.652378 L 448.810040 351.698678 C 448.852092 351.630050 448.893271 351.560890 448.933566 351.491215 L 450.666866 348.494115 C 450.707380 348.424061 450.746997 348.353492 450.785708 348.282425 L 452.441308 345.243025 C 452.480287 345.171466 452.518345 345.099407 452.555470 345.026869 L 454.132170 341.946169 C 454.169550 341.873132 454.205982 341.799615 454.241457 341.725634 L 455.737957 338.604834 C 455.773622 338.530460 455.808316 338.455625 455.842031 338.380347 L 457.257231 335.220547 C 457.291253 335.144583 457.324276 335.068175 457.356290 334.991344 L 458.688790 331.793444 C 458.720860 331.716478 458.751916 331.639093 458.781948 331.561310 L 460.030848 328.326710 C 460.061175 328.248166 460.090455 328.169222 460.118683 328.089900 L 461.282483 324.819500 C 461.310794 324.739944 461.338042 324.660015 461.364221 324.579733 L 462.441921 321.274833 C 462.468315 321.193894 462.493619 321.112604 462.517828 321.030984 L 463.508028 317.692484 C 463.532317 317.610592 463.555500 317.528376 463.577572 317.445859 L 464.479272 314.074759 C 464.501449 313.991847 464.522502 313.908638 464.542424 313.825156 L 465.354324 310.422956 C 465.374355 310.339016 465.393242 310.254808 465.410979 310.170354 L 466.131879 306.737754 C 466.149680 306.652995 466.166320 306.567996 466.181797 306.482782 L 466.810497 303.021082 C 466.826046 302.935468 466.840417 302.849644 466.853608 302.763635 L 467.388808 299.273935 C 467.402018 299.187804 467.414042 299.101495 467.424877 299.015033 L 467.865577 295.498233 C 467.876459 295.411388 467.886141 295.324396 467.894620 295.237283 L 468.239420 291.694683 C 468.247908 291.607481 468.255188 291.520165 468.261260 291.432761 L 468.509060 287.865661 C 468.515155 287.777919 468.520032 287.690096 468.523688 287.602219 L 468.535188 287.325819 L 459.043400 286.930900 L 459.043400 296.430900 L 592.677800 296.430900 L 592.677800 286.930900 L 583.183569 286.599887 L 583.175069 286.843687 L 592.669300 287.174700 L 583.180512 286.713278 Z M 602.158088 287.636122 L 602.163531 287.505713 L 602.172031 287.261913 C 602.359366 281.888706 598.054272 277.430900 592.677800 277.430900 L 459.043400 277.430900 C 453.950309 277.430900 449.763334 281.447293 449.551612 286.535981 L 449.540112 286.812381 L 459.031900 287.207300 L 449.554740 286.548939 L 449.306940 290.116039 L 458.784100 290.774400 L 449.328780 289.854117 L 448.983980 293.396717 L 458.439300 294.317000 L 449.013023 293.135767 L 448.572323 296.652567 L 457.998600 297.833800 L 448.608392 296.393665 L 448.073192 299.883365 L 457.463400 301.323500 L 448.116303 299.625918 L 447.487603 303.087618 L 456.834700 304.785200 L 447.537521 302.832646 L 446.816621 306.265246 L 456.113800 308.217800 L 446.873276 306.012644 L 446.061376 309.414844 L 455.301900 311.620000 L 446.124528 309.165241 L 445.222828 312.536341 L 454.400200 314.991100 L 445.292372 312.289716 L 444.302172 315.628216 L 453.410000 318.329600 L 444.378079 315.384367 L 443.300379 318.689267 L 452.332300 321.634500 L 443.382117 318.449500 L 442.218317 321.719900 L 451.168500 324.904900 L 442.306152 321.483090 L 441.057252 324.717690 L 449.919600 328.139500 L 441.150410 324.485556 L 439.817910 327.683456 L 448.587100 331.337400 L 439.916969 327.454253 L 438.501769 330.614053 L 447.171900 334.497200 L 438.605843 330.389566 L 437.109343 333.510366 L 445.675400 337.618000 L 437.218630 333.289831 L 435.641930 336.370531 L 444.098700 340.698700 L 435.756092 336.154375 L 434.100492 339.193775 L 442.443100 343.738100 L 434.219334 338.982085 L 432.486034 341.979185 L 440.709800 346.735200 L 432.609560 341.771722 L 430.799660 344.725422 L 438.899900 349.688900 L 430.927662 344.522333 L 429.042362 347.431433 L 437.014600 352.598000 L 429.174262 347.233385 L 427.214962 350.096885 L 435.055300 355.461500 L 427.351367 349.902776 L 425.319067 352.719376 L 433.023000 358.278100 L 425.458880 352.530571 L 423.354880 355.299571 L 430.919000 361.047100 L 423.498751 355.114993 L 421.324251 357.834993 L 428.744500 363.767100 L 421.471758 357.655044 L 419.227958 360.324944 L 426.500700 366.437000 L 419.378867 360.149751 L 417.066867 362.768651 L 424.188700 369.055900 L 417.221112 362.598136 L 414.842312 365.164736 L 421.809900 371.622500 L 414.999953 364.998708 L 412.555453 367.511908 L 419.365400 374.135700 L 412.716106 367.350651 L 410.207106 369.809451 L 416.856400 376.594500 L 410.370935 369.652689 L 407.798635 372.055889 L 414.284100 378.997700 L 407.964825 371.904269 L 405.330525 374.251069 L 411.649800 381.344500 L 405.500291 374.103399 L 402.805091 376.392299 L 408.954600 383.633400 L 402.977309 376.249499 L 400.222409 378.479599 L 406.199700 385.863500 L 400.397297 378.341391 L 397.583897 380.511591 L 403.386300 388.033700 L 397.761595 380.377807 L 394.890995 382.486807 L 400.515700 390.142700 L 395.070522 382.358098 L 392.143922 384.405198 L 397.589100 392.189800 L 392.326552 384.280591 L 389.345052 386.264391 L 394.607600 394.173600 L 389.529880 386.144480 L 386.494680 388.063980 L 391.572400 396.093100 L 386.681975 387.948547 L 383.594475 389.802447 L 388.484900 397.947000 L 383.783481 389.691901 L 380.644681 391.479501 L 385.346100 399.734600 L 380.836352 391.373250 L 377.647552 393.093150 L 382.157300 401.454500 L 377.841673 392.991323 L 374.603973 394.642323 L 378.919600 403.105500 L 374.798908 394.545716 L 371.513708 396.127216 L 375.634400 404.687000 L 371.711903 396.034601 L 368.380203 397.545001 L 372.302700 406.197400 L 368.579937 397.457203 L 365.203137 398.895503 L 368.925900 407.635700 L 365.404716 398.812364 L 361.983816 400.177564 L 365.505000 409.000900 L 362.186796 400.099242 L 358.723196 401.390342 L 362.041400 410.292000 L 358.928450 401.316503 L 355.423250 402.532203 L 358.536200 411.507700 L 355.630013 402.463139 L 352.084313 403.602439 L 354.990500 412.647000 L 352.292440 403.538187 L 348.707740 404.599987 L 351.405800 413.708800 L 348.917815 404.540380 L 345.295015 405.523480 L 347.783000 414.691900 L 345.506141 405.468782 L 341.846641 406.372182 L 344.123500 415.595300 L 342.059153 406.322303 L 338.364053 407.144903 L 340.428400 416.417900 L 338.577983 407.099855 L 334.848583 407.840455 L 336.699000 417.158500 L 335.063450 407.800350 L 331.300850 408.457950 L 332.936400 417.816100 L 331.516212 408.422854 L 327.721712 408.996554 L 329.141900 418.389800 L 327.938985 408.966266 L 324.113685 409.454566 L 325.316600 418.878100 L 324.331231 409.429341 L 320.476431 409.831341 L 321.461800 419.280100 L 320.694645 409.811126 L 316.811545 410.125726 L 317.578700 419.594700 L 317.030780 410.110514 L 313.120580 410.336414 L 313.668500 419.820600 L 313.339015 410.326315 L 309.402815 410.462915 L 309.732300 419.957200 L 309.622532 410.457834 L 306.853232 410.489834 L 306.963000 419.989200 L 316.463000 419.989200 L 316.463000 286.933700 C 316.463000 278.456872 306.202808 274.224305 300.226117 280.235610 L 108.913717 472.656010 C 105.229560 476.361504 105.229561 482.346699 108.913719 486.052192 L 300.226119 678.472492 C 306.202810 684.483794 316.463000 680.251227 316.463000 671.774400 L 316.463000 541.895400 L 306.963000 541.895400 L 307.127855 551.393970 L 310.066355 551.342970 L 310.175855 551.340438 L 313.907055 551.232638 L 314.016534 551.228843 L 317.735934 551.078443 L 317.845767 551.073365 L 321.552867 550.880465 L 321.662769 550.874107 L 325.357269 550.638907 L 325.465944 550.631363 L 329.147544 550.354563 L 329.256979 550.345699 L 332.925579 550.027199 L 333.034817 550.017079 L 336.689917 549.657179 L 336.798877 549.645816 L 340.440277 549.244816 L 340.549192 549.232185 L 344.176692 548.790285 L 344.285094 548.776446 L 347.898294 548.294046 L 348.007128 548.278875 L 351.605828 547.755975 L 351.713362 547.739721 L 355.297162 547.177021 L 355.405605 547.159351 L 358.974305 546.556651 L 359.081894 546.537844 L 362.635194 545.895644 L 362.742887 545.875538 L 366.280587 545.193938 L 366.387249 545.172754 L 369.908849 544.452354 L 370.016042 544.429781 L 373.521442 543.670481 L 373.627734 543.646819 L 377.116634 542.849119 L 377.223335 542.824074 L 380.695335 541.987974 L 380.801059 541.961873 L 384.255959 541.087873 L 384.362006 541.060394 L 387.799506 540.148494 L 387.903801 540.120191 L 391.323701 539.171191 L 391.429180 539.141264 L 394.830980 538.154864 L 394.935537 538.123895 L 398.319237 537.100495 L 398.423304 537.068368 L 401.788304 536.008368 L 401.892154 535.974998 L 405.238454 534.878498 L 405.341734 534.843999 L 408.668834 533.711399 L 408.771698 533.675723 L 412.079498 532.507223 L 412.182183 532.470284 L 415.470283 531.266084 L 415.572220 531.228088 L 418.840320 529.988588 L 418.942216 529.949271 L 422.190016 528.674571 L 422.291292 528.634150 L 425.518592 527.324550 L 425.619099 527.283093 L 428.825599 525.938993 L 428.926030 525.896215 L 432.111430 524.517715 L 432.211210 524.473853 L 435.375310 523.061253 L 435.474738 523.016177 L 438.617038 521.569777 L 438.715699 521.523676 L 441.836099 520.043776 L 441.934746 519.996293 L 445.032846 518.482993 L 445.130585 518.434555 L 448.206185 516.888255 L 448.303561 516.838594 L 451.356361 515.259494 L 451.453262 515.208661 L 454.482862 513.597061 L 454.579154 513.545125 L 457.585454 511.901225 L 457.680928 511.848303 L 460.663628 510.172503 L 460.759365 510.117981 L 463.717965 508.410281 L 463.812305 508.355102 L 466.746805 506.616002 L 466.840976 506.559455 L 469.750876 504.789155 L 469.844423 504.731500 L 472.729423 502.930300 L 472.822485 502.871446 L 475.682485 501.039446 L 475.774830 500.979535 L 478.609430 499.117135 L 478.701194 499.056079 L 481.510194 497.163479 L 481.601754 497.101010 L 484.384654 495.178410 L 484.474779 495.115373 L 487.231579 493.163273 L 487.321861 493.098547 L 490.052061 491.116947 L 490.141347 491.051345 L 492.844747 489.040645 L 492.933572 488.973769 L 495.609972 486.934069 L 495.698018 486.866150 L 498.346918 484.797950 L 498.434344 484.728861 L 501.055644 482.632261 L 501.142326 482.562092 L 503.735626 480.437492 L 503.821791 480.366047 L 506.386891 478.213547 L 506.472326 478.140991 L 509.008926 475.960891 L 509.093925 475.886957 L 511.601625 473.679457 L 511.685278 473.604939 L 514.163978 471.370539 L 514.247488 471.294354 L 516.696788 469.033054 L 516.779234 468.956024 L 519.198934 466.668224 L 519.280896 466.589798 L 521.670596 464.275698 L 521.751770 464.196145 L 524.111170 461.856045 L 524.191402 461.775512 L 526.520402 459.409612 L 526.599827 459.327955 L 528.898027 456.936655 L 528.977047 456.853434 L 531.244047 454.436834 L 531.321941 454.352789 L 533.557641 451.911189 L 533.634687 451.826020 L 535.838787 449.359720 L 535.915239 449.273119 L 538.087339 446.782319 L 538.162912 446.694583 L 540.302712 444.179583 L 540.377112 444.091052 L 542.484512 441.552152 L 542.558292 441.462149 L 544.632792 438.899649 L 544.705486 438.808721 L 546.746986 436.222821 L 546.819208 436.130167 L 548.827308 433.520867 L 548.897903 433.427962 L 550.872403 430.796062 L 550.942791 430.701012 L 552.883291 428.046212 L 552.952051 427.950910 L 554.858351 425.274010 L 554.926596 425.176899 L 556.798396 422.477699 L 556.865426 422.379738 L 558.702426 419.658738 L 558.768507 419.559522 L 560.570407 416.816922 L 560.635380 416.716661 L 562.401980 413.952661 L 562.465921 413.851213 L 564.196821 411.066213 L 564.259617 410.963736 L 565.954617 408.157936 L 566.016497 408.054015 L 567.675197 405.227615 L 567.735753 405.122906 L 569.358053 402.276106 L 569.417489 402.170242 L 571.002889 399.303642 L 571.061235 399.196526 L 572.609635 396.309926 L 572.666640 396.201996 L 574.177640 393.296096 L 574.233491 393.186971 L 575.706891 390.261771 L 575.761550 390.151482 L 577.197050 387.207182 L 577.250494 387.095730 L 578.647694 384.132730 L 578.699735 384.020480 L 580.058435 381.039080 L 580.109152 380.925837 L 581.429152 377.926137 L 581.478695 377.811512 L 582.759495 374.793912 L 582.807411 374.678930 L 584.049011 371.643630 L 584.095887 371.526832 L 585.297687 368.474032 L 585.342821 368.357129 L 586.504821 365.287229 L 586.548789 365.168692 L 587.670489 362.081792 L 587.712753 361.963033 L 588.794053 358.859633 L 588.835116 358.739190 L 589.875516 355.619290 L 589.914875 355.498580 L 590.914275 352.362580 L 590.952225 352.240673 L 591.910225 349.088773 L 591.946497 348.966490 L 592.862997 345.798890 L 592.897797 345.675500 L 593.772297 342.492800 L 593.805610 342.368260 L 594.637810 339.170260 L 594.669336 339.045657 L 595.459136 335.832857 L 595.489122 335.707197 L 596.236122 332.479797 L 596.264389 332.353779 L 596.968389 329.112179 L 596.995189 328.984559 L 597.655589 325.728859 L 597.680365 325.602315 L 598.297465 322.332915 L 598.320827 322.204295 L 598.893827 318.921295 L 598.915323 318.792949 L 599.444223 315.496649 L 599.464075 315.367226 L 599.948375 312.057926 L 599.966403 311.928533 L 600.406003 308.606433 L 600.422305 308.476347 L 600.816805 305.141847 L 600.831307 305.011564 L 601.180507 301.664764 L 601.193250 301.533859 L 601.496750 298.175159 L 601.507675 298.044153 L 601.765275 294.673653 L 601.774394 294.542381 L 601.985794 291.160481 L 601.993088 291.029222 L 602.158088 287.636122 Z" transform="scale(1.000000,1.000000) translate(-102.000000,-230.000000)" fill="#ff0000" opacity="1.000000"></path>
    </g>
</svg>