<?xml version="1.0" encoding="UTF-8" standalone="yes"?>
<!DOCTYPE svg PUBLIC "-//W3C//DTD SVG 1.1//EN" "http://www.w3.org/Graphics/SVG/1.1/DTD/svg11.dtd">

<svg width="500" height="500" viewBox="0 0 500 500" xmlns="http://www.w3.org/2000/svg" xmlns:xlink="http://www.w3.org/1999/xlink" version="1.1" baseProfile="full">
    <g transform="scale(1.000000,-1.000000) translate(0,-500)">
        <path d="M 192.312393 193.420380 L 1.000000 1.000000 L 1.000000 385.840759 Z" transform="scale(1.000000,1.000000) translate(295.877605,55.933735)" fill="#ffffff" opacity="1.000000"></path>
        <path d="M 134.850329 276.276285 L 135.098129 279.843385 L 135.442929 283.385985 L 135.883629 286.902785 L 136.418929 290.392485 L 137.047529 293.854185 L 137.768429 297.286785 L 138.580329 300.688985 L 139.482029 304.060085 L 140.472329 307.398585 L 141.549929 310.703485 L 142.713829 313.973885 L 143.962629 317.208485 L 145.295229 320.406385 L 146.710329 323.566185 L 148.206829 326.686985 L 149.783529 329.767685 L 151.439129 332.807085 L 153.172529 335.804185 L 154.982429 338.757885 L 156.867629 341.666985 L 158.827029 344.530485 L 160.859229 347.347085 L 162.963229 350.116085 L 165.137729 352.836085 L 167.381629 355.505985 L 169.693529 358.124885 L 172.072329 360.691485 L 174.516829 363.204685 L 177.025829 365.663485 L 179.598129 368.066685 L 182.232429 370.413485 L 184.927729 372.702385 L 187.682629 374.932485 L 190.495929 377.102685 L 193.366529 379.211685 L 196.293129 381.258785 L 199.274629 383.242585 L 202.309829 385.162085 L 205.397329 387.015985 L 208.536129 388.803585 L 211.725029 390.523485 L 214.962629 392.174485 L 218.247829 393.755985 L 221.579529 395.266385 L 224.956329 396.704685 L 228.377229 398.069885 L 231.840829 399.360985 L 235.346129 400.576685 L 238.891729 401.715985 L 242.476529 402.777785 L 246.099229 403.760885 L 249.758729 404.664285 L 253.453829 405.486885 L 257.183229 406.227485 L 260.945829 406.885085 L 264.740329 407.458785 L 268.565629 407.947085 L 272.420429 408.349085 L 276.303529 408.663685 L 280.213829 408.889585 L 284.149929 409.026185 L 288.110829 409.071885 L 289.634329 409.054285 L 289.634329 530.989285 L 287.723729 530.978285 L 283.980729 530.913285 L 280.249429 530.805485 L 276.530129 530.655085 L 272.823129 530.462185 L 269.128629 530.227285 L 265.446929 529.950285 L 261.778429 529.631785 L 258.123229 529.271885 L 254.481829 528.870785 L 250.854329 528.428985 L 247.241129 527.946585 L 243.642529 527.423785 L 240.058629 526.860985 L 236.489929 526.258285 L 232.936629 525.616085 L 229.399029 524.934585 L 225.877329 524.213985 L 222.371929 523.454785 L 218.883129 522.656985 L 215.411029 521.820885 L 211.956129 520.946985 L 208.518629 520.035285 L 205.098829 519.086085 L 201.696929 518.099685 L 198.313329 517.076285 L 194.948229 516.016285 L 191.601929 514.919685 L 188.274829 513.787185 L 184.967029 512.618685 L 181.679029 511.414485 L 178.410929 510.174985 L 175.163029 508.900285 L 171.935729 507.590685 L 168.729229 506.246585 L 165.543829 504.868085 L 162.379829 503.455485 L 159.237429 502.009085 L 156.117129 500.529185 L 153.018929 499.015885 L 149.943329 497.469585 L 146.890629 495.890485 L 143.860929 494.278885 L 140.854629 492.634985 L 137.872029 490.959185 L 134.913329 489.251485 L 131.978929 487.512385 L 129.069029 485.742085 L 126.183929 483.940785 L 123.323929 482.108885 L 120.489329 480.246485 L 117.680429 478.353885 L 114.897429 476.431285 L 112.140629 474.479085 L 109.410429 472.497585 L 106.707029 470.486785 L 104.030729 468.447185 L 101.381729 466.378985 L 98.760529 464.282385 L 96.167129 462.157785 L 93.602029 460.005185 L 91.065529 457.825185 L 88.557729 455.617685 L 86.079029 453.383285 L 83.629729 451.121985 L 81.210029 448.834185 L 78.820329 446.520085 L 76.460929 444.179985 L 74.131929 441.814085 L 71.833829 439.422785 L 69.566729 437.006185 L 67.331029 434.564585 L 65.127029 432.098285 L 62.954929 429.607485 L 60.815029 427.092485 L 58.707629 424.553585 L 56.633129 421.991085 L 54.591629 419.405185 L 52.583529 416.795885 L 50.609029 414.163985 L 48.668529 411.509185 L 46.762229 408.832285 L 44.890429 406.133085 L 43.053429 403.412085 L 41.251529 400.669485 L 39.484929 397.905485 L 37.754029 395.120485 L 36.059129 392.314685 L 34.400329 389.488285 L 32.778129 386.641485 L 31.192629 383.774885 L 29.644229 380.888285 L 28.133229 377.982385 L 26.659829 375.057185 L 25.224429 372.112885 L 23.827129 369.149885 L 22.468429 366.168485 L 21.148529 363.168785 L 19.867629 360.151185 L 18.626129 357.115885 L 17.424229 354.063085 L 16.262229 350.993185 L 15.140529 347.906285 L 14.059229 344.802885 L 13.018829 341.682985 L 12.019429 338.546985 L 11.061329 335.395085 L 10.144929 332.227485 L 9.270529 329.044685 L 8.438229 325.846785 L 7.648429 322.633985 L 6.901429 319.406585 L 6.197529 316.164985 L 5.536929 312.909285 L 4.919929 309.639885 L 4.346929 306.356885 L 3.818029 303.060585 L 3.333729 299.751285 L 2.894129 296.429185 L 2.499629 293.094685 L 2.150529 289.747885 L 1.846929 286.389185 L 1.589329 283.018685 L 1.377929 279.636785 L 1.213029 276.243685 L 1.204529 275.999985 L 134.838829 275.999985 Z" transform="scale(1.000000,1.000000) translate(9.958271,-219.068985)" fill="#ffffff" opacity="1.000000"></path>
        <path d="M 136.331440 287.865661 L 136.579240 291.432761 C 136.585312 291.520165 136.592592 291.607481 136.601080 291.694683 L 136.945880 295.237283 C 136.954359 295.324396 136.964041 295.411388 136.974923 295.498233 L 137.415623 299.015033 C 137.426469 299.101583 137.438507 299.187980 137.451732 299.274198 L 137.987032 302.763898 C 138.000198 302.849731 138.014541 302.935380 138.030056 303.020821 L 138.658656 306.482521 C 138.674146 306.567822 138.690802 306.652908 138.708621 306.737754 L 139.429521 310.170354 C 139.447258 310.254808 139.466145 310.339016 139.486176 310.422956 L 140.298076 313.825156 C 140.317998 313.908638 140.339051 313.991847 140.361228 314.074759 L 141.262928 317.445859 C 141.285022 317.528460 141.308230 317.610760 141.332547 317.692735 L 142.322847 321.031235 C 142.347008 321.112687 142.372261 321.193812 142.398598 321.274586 L 143.476198 324.579486 C 143.502429 324.659933 143.529733 324.740025 143.558103 324.819743 L 144.722003 328.090143 C 144.750176 328.169303 144.779397 328.248086 144.809660 328.326472 L 146.058460 331.561072 C 146.088551 331.639014 146.119670 331.716556 146.151807 331.793677 L 147.484407 334.991577 C 147.516359 335.068253 147.549315 335.144507 147.583267 335.220319 L 148.998367 338.380119 C 149.032114 338.455473 149.066842 338.530385 149.102543 338.604834 L 150.599043 341.725634 C 150.634518 341.799615 150.670950 341.873132 150.708330 341.946169 L 152.285030 345.026869 C 152.322155 345.099407 152.360213 345.171466 152.399192 345.243025 L 154.054792 348.282425 C 154.093541 348.353561 154.133198 348.424199 154.173753 348.494321 L 155.907153 351.491421 C 155.947410 351.561026 155.988549 351.630117 156.030560 351.698678 L 157.840460 354.652378 C 157.882230 354.720545 157.924859 354.788183 157.968337 354.855274 L 159.853537 357.764374 C 159.896756 357.831067 159.940810 357.897214 159.985689 357.962801 L 161.945089 360.826301 C 161.989665 360.891446 162.035051 360.956032 162.081237 361.020044 L 164.113437 363.836644 C 164.159303 363.900214 164.205955 363.963214 164.253380 364.025629 L 166.357380 366.794629 C 166.404577 366.856744 166.452538 366.918274 166.501251 366.979207 L 168.675751 369.699207 C 168.724227 369.759844 168.773444 369.819885 168.823392 369.879316 L 171.067292 372.549216 C 171.116796 372.608117 171.167013 372.666415 171.217933 372.724096 L 173.529833 375.342996 C 173.580601 375.400507 173.632065 375.457400 173.684212 375.513664 L 176.063012 378.080264 C 176.114890 378.136238 176.167441 378.191585 176.220653 378.246292 L 178.665153 380.759492 C 178.718058 380.813884 178.771613 380.867640 178.825806 380.920749 L 181.334806 383.379549 C 181.388790 383.432453 181.443404 383.484711 181.498635 383.536311 L 184.070935 385.939511 C 184.125732 385.990706 184.181132 386.041249 184.237125 386.091131 L 186.871425 388.437931 C 186.927472 388.487862 186.984109 388.537126 187.041324 388.585713 L 189.736624 390.874613 L 189.908709 391.017301 L 192.663609 393.247401 L 192.838368 393.385509 L 195.651668 395.555709 L 195.829495 395.689593 L 198.700095 397.798593 L 198.879622 397.927302 L 201.806222 399.974402 L 201.988852 400.099009 L 204.970352 402.082809 L 205.155180 402.202720 L 208.190380 404.122220 L 208.377675 404.237653 L 211.465175 406.091553 L 211.654181 406.202099 L 214.792981 407.989699 L 214.984761 408.096009 L 218.173661 409.815909 L 218.367567 409.917623 L 221.605167 411.568623 L 221.800208 411.665284 L 225.085408 413.246784 L 225.283603 413.339399 L 228.615303 414.849799 L 228.815037 414.937597 L 232.191837 416.375897 L 232.393416 416.459036 L 235.814316 417.824236 L 236.017296 417.902558 L 239.480896 419.193658 L 239.686230 419.267524 L 243.191530 420.483224 L 243.398139 420.552237 L 246.943739 421.691537 L 247.152009 421.755833 L 250.736809 422.817633 L 250.946751 422.877203 L 254.569451 423.860303 L 254.780641 423.915018 L 258.440141 424.818418 L 258.652653 424.868297 L 262.347753 425.690897 L 262.561683 425.735945 L 266.291083 426.476545 L 266.505950 426.516650 L 270.268550 427.174250 L 270.483912 427.209346 L 274.278412 427.783046 L 274.495685 427.813334 L 278.320985 428.301634 L 278.538531 428.326859 L 282.393331 428.728859 L 282.611545 428.749074 L 286.494645 429.063674 L 286.713894 429.078887 L 290.624194 429.304787 L 290.842607 429.314884 L 294.778707 429.451484 L 294.998436 429.456566 L 297.767836 429.488566 C 303.057106 429.549683 307.377600 425.278823 307.377600 419.989200 L 307.377600 286.933700 L 291.140716 293.631788 L 482.453016 486.052188 L 482.453017 472.656010 L 291.140717 665.076310 L 307.377600 671.774400 L 307.377600 541.895300 C 307.377600 536.712987 303.224303 532.486839 298.042773 532.396736 L 295.104173 532.345636 L 294.939000 541.844200 L 295.213093 532.348155 L 291.481793 532.240455 L 291.207700 541.736500 L 291.591545 532.244258 L 287.872245 532.093858 L 287.488400 541.586100 L 287.982081 532.098936 L 284.275081 531.906036 L 283.781400 541.393200 L 284.384202 531.912344 L 280.689702 531.677444 L 280.086900 541.158300 L 280.799637 531.685074 L 277.117937 531.408074 L 276.405200 540.881300 L 277.226901 531.416903 L 273.558401 531.098403 L 272.736700 540.562800 L 273.667592 531.108518 L 270.012392 530.748618 L 269.081500 540.202900 L 270.121890 530.760041 L 266.480490 530.358841 L 265.440100 539.801700 L 266.588380 530.371353 L 262.960880 529.929653 L 261.812600 539.360000 L 263.069794 529.943554 L 259.456594 529.461154 L 258.199400 538.877600 L 259.565210 529.476294 L 255.966610 528.953494 L 254.600800 538.354800 L 256.074577 528.969813 L 252.490677 528.407013 L 251.016900 537.792000 L 252.598905 528.424649 L 249.030205 527.821949 L 247.448200 537.189300 L 249.137794 527.840756 L 245.584494 527.198556 L 243.894900 536.547100 L 245.691982 527.218622 L 242.154382 526.537122 L 240.357300 535.865600 L 242.261704 526.558439 L 238.740004 525.837839 L 236.835600 535.145000 L 238.846489 525.860264 L 235.341089 525.101064 L 233.330200 534.385800 L 235.448196 525.124910 L 231.959396 524.327010 L 229.841400 533.587900 L 232.065223 524.351851 L 228.593123 523.515851 L 226.369300 532.751900 L 228.698908 523.541964 L 225.244008 522.668064 L 222.914400 531.878000 L 225.349806 522.695473 L 221.912306 521.783773 L 219.476900 530.966300 L 222.017667 521.812366 L 218.597867 520.863166 L 216.057100 530.017100 L 218.702709 520.892915 L 215.300809 519.906515 L 212.655200 529.030700 L 215.405511 519.937527 L 212.021911 518.914127 L 209.271600 528.007300 L 212.125827 518.946208 L 208.760727 517.886208 L 205.906500 526.947300 L 208.865141 517.919762 L 205.518841 516.823062 L 202.560200 525.850600 L 205.621149 516.857236 L 202.294049 515.724836 L 199.233100 524.718200 L 202.397398 515.760677 L 199.089598 514.592177 L 195.925300 523.549700 L 199.192371 514.629148 L 195.904371 513.424948 L 192.637300 522.345500 L 196.006220 513.462912 L 192.738120 512.223412 L 189.369200 521.106000 L 192.839924 512.262693 L 189.592024 510.987993 L 186.121300 519.831300 L 189.693392 511.028450 L 186.466092 509.718850 L 182.894000 518.521700 L 186.566599 509.760307 L 183.360099 508.416207 L 179.687500 517.177600 L 183.460530 508.458985 L 180.275130 507.080485 L 176.502100 515.799100 L 180.375012 507.124392 L 177.211012 505.711792 L 173.338100 514.386500 L 177.310234 505.756775 L 174.167834 504.310375 L 170.195700 512.940100 L 174.266706 504.356574 L 171.146406 502.876674 L 167.075400 511.460200 L 171.244837 502.924054 L 168.146637 501.410754 L 163.977200 509.946900 L 168.244485 501.459245 L 165.168885 499.912945 L 160.901600 508.400600 L 165.266373 499.962665 L 162.213673 498.383565 L 157.848900 506.821500 L 162.310347 498.434278 L 159.280647 496.822678 L 154.819200 505.209900 L 159.377054 496.874675 L 156.370754 495.230775 L 151.812900 503.566000 L 156.466347 495.283764 L 153.483747 493.607964 L 148.830300 501.890200 L 153.579244 493.662349 L 150.620544 491.954649 L 145.871600 500.182500 L 150.715127 492.009970 L 147.780727 490.270870 L 142.937200 498.443400 L 147.874776 490.327345 L 144.964876 488.557045 L 140.027300 496.673100 L 145.058498 488.614748 L 142.173398 486.813448 L 137.142200 494.871800 L 142.266186 486.872127 L 139.406186 485.040227 L 134.282200 493.039900 L 139.498730 485.100265 L 136.664130 483.237865 L 131.447600 491.177500 L 136.756024 483.299008 L 133.947124 481.406408 L 128.638700 489.284900 L 134.038423 481.468699 L 131.255423 479.546099 L 125.855700 487.362300 L 131.345866 479.609360 L 128.589066 477.657160 L 123.098900 485.410100 L 128.678977 477.721619 L 125.948777 475.740119 L 120.368700 483.428600 L 126.038428 475.805990 L 123.335028 473.795190 L 117.665300 481.417800 L 123.423629 473.861899 L 120.747329 471.822299 L 114.989000 479.378200 L 120.835281 471.890143 L 118.186281 469.821943 L 112.340000 477.310000 L 118.273982 469.891249 L 115.652782 467.794649 L 109.718800 475.213400 L 115.739187 467.864595 L 113.145787 465.739995 L 107.125400 473.088800 L 113.232258 465.811693 L 110.667158 463.659093 L 104.560300 470.936200 L 110.752403 463.731489 L 108.215903 461.551489 L 102.023800 468.756200 L 108.300784 461.625319 L 105.792984 459.417819 L 99.516000 466.548700 L 105.876778 459.492461 L 103.398078 457.258061 L 97.037300 464.314300 L 103.481588 457.334246 L 101.032288 455.072946 L 94.588000 462.053000 L 101.114734 455.149976 L 98.695034 452.862176 L 92.168300 459.765200 L 98.776996 452.940602 L 96.387296 450.626502 L 89.778600 457.451100 L 96.468470 450.706055 L 94.109070 448.365955 L 87.419200 455.111000 L 94.189302 448.446488 L 91.860302 446.080588 L 85.090200 452.745100 L 91.939870 446.162394 L 89.641770 443.771094 L 82.792100 450.353800 L 89.720504 443.854014 L 87.453404 441.437414 L 80.525000 447.937200 L 87.531441 441.521611 L 85.295741 439.080011 L 78.289300 445.495600 L 85.372930 439.165340 L 83.168930 436.699040 L 76.085300 443.029300 L 83.245239 436.785481 L 81.073139 434.294681 L 73.913200 440.538500 L 81.148570 434.382250 L 79.008670 431.867250 L 71.773300 438.023500 L 79.083212 431.955948 L 76.975812 429.417048 L 69.665900 435.484600 L 77.049592 429.507051 L 74.975092 426.944551 L 67.591400 432.922100 L 75.047786 427.035479 L 73.006286 424.449579 L 65.549900 430.336200 L 73.078508 424.542233 L 71.070408 421.932933 L 63.541800 427.726900 L 71.141003 422.025838 L 69.166503 419.393938 L 61.567300 425.095000 L 69.236891 419.488988 L 67.296391 416.834188 L 59.626800 422.440200 L 67.365151 416.929490 L 65.458851 414.252590 L 57.720500 419.763300 L 65.527096 414.349701 L 63.655296 411.650501 L 55.848700 417.064100 L 63.722326 411.748462 L 61.885326 409.027462 L 54.011700 414.343100 L 61.951407 409.126678 L 60.149507 406.384078 L 52.209800 411.600500 L 60.214480 406.484339 L 58.447880 403.720339 L 50.443200 408.836500 L 58.511821 403.821787 L 56.780921 401.036787 L 48.712300 406.051500 L 56.843845 401.139476 L 55.148945 398.333676 L 47.017400 403.245700 L 55.210570 398.437170 L 53.551770 395.610770 L 45.358600 400.419300 L 53.612578 395.715913 L 51.990378 392.869113 L 43.736400 397.572500 L 52.049566 392.974536 L 50.464066 390.107936 L 42.150900 394.705900 L 50.522535 390.215274 L 48.974135 387.328674 L 40.602500 391.819300 L 49.031140 387.436604 L 47.520140 384.530704 L 39.091500 388.913400 L 47.575991 384.639829 L 46.102591 381.714629 L 37.618100 385.988200 L 46.157364 381.825153 L 44.721964 378.880853 L 36.182700 383.043900 L 44.775182 378.991833 L 43.377882 376.028833 L 34.785400 380.080900 L 43.430035 376.141320 L 42.071335 373.159920 L 33.426700 377.099500 L 42.122159 373.273405 L 40.802259 370.273705 L 32.106800 374.099800 L 40.851591 370.387843 L 39.570691 367.370243 L 30.825900 371.082200 L 39.618813 367.485718 L 38.377313 364.450418 L 29.584400 368.046900 L 38.423989 364.566717 L 37.222089 361.513917 L 28.382500 364.994100 L 37.267321 361.631071 L 36.105321 358.561171 L 27.220500 361.924200 L 36.149289 358.679708 L 35.027589 355.592808 L 26.098800 358.837300 L 35.069853 355.711567 L 33.988553 352.608167 L 25.017500 355.733900 L 34.029616 352.728610 L 32.989216 349.608710 L 23.977100 352.614000 L 33.028575 349.729420 L 32.029175 346.593420 L 22.977700 349.478000 L 32.067044 346.715063 L 31.108944 343.563163 L 22.019600 346.326100 L 31.145373 343.685975 L 30.228973 340.518375 L 21.103200 343.158500 L 30.263791 340.641841 L 29.389391 337.459041 L 20.228800 339.975700 L 29.422521 337.582900 L 28.590221 334.385000 L 19.396500 336.777800 L 28.621836 334.509943 L 27.832036 331.297143 L 18.606700 333.565000 L 27.862022 331.422803 L 27.115022 328.195403 L 17.859700 330.337600 L 27.143348 328.321694 L 26.439448 325.080094 L 17.155800 327.096000 L 26.466078 325.206892 L 25.805478 321.951192 L 16.495200 323.840300 L 25.830417 322.078561 L 25.213417 318.809161 L 15.878200 320.570900 L 25.236727 318.937505 L 24.663727 315.654505 L 15.305200 317.287900 L 24.685223 315.782851 L 24.156323 312.486551 L 14.776300 313.991600 L 24.176175 312.615974 L 23.691875 309.306674 L 14.292000 310.682300 L 23.709903 309.436067 L 23.270303 306.113967 L 13.852400 307.360200 L 23.286605 306.244053 L 22.892105 302.909553 L 13.457900 304.025700 L 22.906637 303.040116 L 22.557537 299.693316 L 13.108800 300.678900 L 22.570225 299.823662 L 22.266625 296.464962 L 12.805200 297.320200 L 22.277575 296.596247 L 22.019975 293.225747 L 12.547600 293.949700 L 22.029094 293.357019 L 21.817694 289.975119 L 12.336200 290.567800 L 21.825001 290.106657 L 21.660101 286.713557 L 12.171300 287.174700 L 21.665531 286.843687 L 21.657031 286.599887 L 12.162800 286.930900 L 12.162800 296.430900 L 145.797100 296.430900 L 145.797100 286.930900 L 136.305312 287.325819 L 136.316812 287.602219 C 136.320468 287.690096 136.325345 287.777919 136.331440 287.865661 Z M 155.285760 286.548939 L 145.808600 287.207300 L 155.300388 286.812381 L 155.288888 286.535981 C 155.077166 281.447293 150.890191 277.430900 145.797100 277.430900 L 12.162800 277.430900 C 6.786328 277.430900 2.481234 281.888706 2.668569 287.261913 L 2.677069 287.505713 L 2.682499 287.635843 L 2.847399 291.028943 L 2.854706 291.160481 L 3.066106 294.542381 L 3.075225 294.673653 L 3.332825 298.044153 L 3.343775 298.175438 L 3.647375 301.534138 L 3.660063 301.664484 L 4.009163 305.011284 L 4.023695 305.141847 L 4.418195 308.476347 L 4.434497 308.606433 L 4.874097 311.928533 L 4.892125 312.057926 L 5.376425 315.367226 L 5.396277 315.496649 L 5.925177 318.792949 L 5.946673 318.921295 L 6.519673 322.204295 L 6.542983 322.332639 L 7.159983 325.602039 L 7.184922 325.729408 L 7.845522 328.985108 L 7.872152 329.111906 L 8.576052 332.353506 L 8.604378 332.479797 L 9.351378 335.707197 L 9.381364 335.832857 L 10.171164 339.045657 L 10.202779 339.170600 L 11.035079 342.368500 L 11.068209 342.492359 L 11.942609 345.675159 L 11.977427 345.798625 L 12.893827 348.966225 L 12.930256 349.089037 L 13.888356 352.240937 L 13.926225 352.362580 L 14.925625 355.498580 L 14.964984 355.619290 L 16.005384 358.739190 L 16.046447 358.859633 L 17.127747 361.963033 L 17.170011 362.081792 L 18.291711 365.168692 L 18.335679 365.287229 L 19.497679 368.357129 L 19.542911 368.474283 L 20.744811 371.527083 L 20.791487 371.643382 L 22.032987 374.678682 L 22.081109 374.794157 L 23.362009 377.811757 L 23.411341 377.925895 L 24.731241 380.925595 L 24.782065 381.039080 L 26.140765 384.020480 L 26.192918 384.132967 L 27.590218 387.095967 L 27.643436 387.206947 L 29.078836 390.151247 L 29.133609 390.261771 L 30.607009 393.186971 L 30.662860 393.296096 L 32.173860 396.201996 L 32.230865 396.309926 L 33.779265 399.196526 L 33.837734 399.303864 L 35.423234 402.170464 L 35.482422 402.275887 L 37.104622 405.122687 L 37.165430 405.227830 L 38.824230 408.054230 L 38.885855 408.157724 L 40.580755 410.963524 L 40.643679 411.066213 L 42.374579 413.851213 L 42.438520 413.952661 L 44.205120 416.716661 L 44.270093 416.816922 L 46.071993 419.559522 L 46.138074 419.658738 L 47.975074 422.379738 L 48.042104 422.477699 L 49.913904 425.176899 L 49.982149 425.274010 L 51.888449 427.950910 L 51.957209 428.046212 L 53.897709 430.701012 L 53.968097 430.796062 L 55.942597 433.427962 L 56.013192 433.520867 L 58.021292 436.130167 L 58.093514 436.222821 L 60.135014 438.808721 L 60.207708 438.899649 L 62.282208 441.462149 L 62.355988 441.552152 L 64.463388 444.091052 L 64.537930 444.179750 L 66.677830 446.694750 L 66.753261 446.782319 L 68.925361 449.273119 L 69.001670 449.359560 L 71.205670 451.825860 L 71.282859 451.911189 L 73.518559 454.352789 L 73.596596 454.436986 L 75.863696 456.853586 L 75.942430 456.936506 L 78.240530 459.327806 L 78.320098 459.409612 L 80.649098 461.775512 L 80.729330 461.856045 L 83.088730 464.196145 L 83.169904 464.275698 L 85.559604 466.589798 L 85.641566 466.668224 L 88.061266 468.956024 L 88.143712 469.033054 L 90.593012 471.294354 L 90.676522 471.370539 L 93.155222 473.604939 L 93.239016 473.679581 L 95.746816 475.887081 L 95.831697 475.960911 L 98.368197 478.140911 L 98.453442 478.213307 L 101.018542 480.365907 L 101.105013 480.437605 L 103.698413 482.562205 L 103.784818 482.632151 L 106.406018 484.728751 L 106.493719 484.798057 L 109.142719 486.866257 L 109.230671 486.934101 L 111.906971 488.973701 L 111.995572 489.040410 L 114.698972 491.051210 L 114.788623 491.117081 L 117.518823 493.098581 L 117.608734 493.163040 L 120.365534 495.115240 L 120.455977 495.178501 L 123.238977 497.101101 L 123.330276 497.163392 L 126.139176 499.055992 L 126.231070 499.117135 L 129.065670 500.979535 L 129.158214 501.039573 L 132.018214 502.871473 L 132.111002 502.930152 L 134.996102 504.731452 L 135.089724 504.789155 L 137.999624 506.559455 L 138.093673 506.615930 L 141.028073 508.355030 L 141.122656 508.410351 L 144.081356 510.118051 L 144.176853 510.172436 L 147.159453 511.848236 L 147.255046 511.901225 L 150.261346 513.545125 L 150.357753 513.597122 L 153.387453 515.208722 L 153.484127 515.259435 L 156.536827 516.838535 L 156.634315 516.888255 L 159.709915 518.434555 L 159.807763 518.483046 L 162.905963 519.996346 L 163.004394 520.043726 L 166.124694 521.523626 L 166.223566 521.569825 L 169.365966 523.016225 L 169.465188 523.061208 L 172.629188 524.473808 L 172.729070 524.517715 L 175.914470 525.896215 L 176.014901 525.938993 L 179.221401 527.283093 L 179.321908 527.324550 L 182.549208 528.634150 L 182.650576 528.674607 L 185.898476 529.949307 L 186.000280 529.988588 L 189.268380 531.228088 L 189.370229 531.266052 L 192.658229 532.470252 L 192.761002 532.507223 L 196.068802 533.675723 L 196.172151 533.711564 L 199.499251 534.843964 L 199.601559 534.878138 L 202.947859 535.974838 L 203.052273 536.008392 L 206.417373 537.068392 L 206.521289 537.100473 L 209.904889 538.123873 L 210.009591 538.154885 L 213.411491 539.141285 L 213.516333 539.171034 L 216.936133 540.120234 L 217.041494 540.148827 L 220.478994 541.060527 L 220.584792 541.087936 L 224.039692 541.961836 L 224.145477 541.987949 L 227.617577 542.823949 L 227.723404 542.848790 L 231.212204 543.646690 L 231.319311 543.670536 L 234.824711 544.429736 L 234.931196 544.452161 L 238.452896 545.172761 L 238.560218 545.194078 L 242.097818 545.875578 L 242.205306 545.895644 L 245.758606 546.537844 L 245.866195 546.556651 L 249.434895 547.159351 L 249.543123 547.176987 L 253.127023 547.739787 L 253.234990 547.756106 L 256.833590 548.278906 L 256.942206 548.294046 L 260.555406 548.776446 L 260.664320 548.790347 L 264.291820 549.232047 L 264.399710 549.244559 L 268.041110 549.645759 L 268.150608 549.657182 L 271.805808 550.017082 L 271.914999 550.027197 L 275.583499 550.345697 L 275.692463 550.354526 L 279.374163 550.631526 L 279.484098 550.639156 L 283.178598 550.874056 L 283.287719 550.880364 L 286.994719 551.073264 L 287.104555 551.078342 L 290.823855 551.228742 L 290.933607 551.232545 L 294.664907 551.340245 L 294.773827 551.342764 L 297.712427 551.393864 L 297.877600 541.895300 L 288.377600 541.895300 L 288.377600 671.774400 C 288.377600 680.251228 298.637792 684.483795 304.614483 678.472490 L 495.926783 486.052190 C 499.610938 482.346697 499.610939 476.361505 495.926784 472.656012 L 304.614484 280.235612 C 298.637795 274.224304 288.377600 278.456871 288.377600 286.933700 L 288.377600 419.989200 L 297.877600 419.989200 L 297.987364 410.489834 L 295.217964 410.457834 L 295.108200 419.957200 L 295.437693 410.462916 L 291.501593 410.326316 L 291.172100 419.820600 L 291.720006 410.336413 L 287.809706 410.110513 L 287.261800 419.594700 L 288.028955 410.125726 L 284.145855 409.811126 L 283.378700 419.280100 L 284.364069 409.831341 L 280.509269 409.429341 L 279.523900 418.878100 L 280.726815 409.454566 L 276.901515 408.966266 L 275.698600 418.389800 L 277.118788 408.996554 L 273.324288 408.422854 L 271.904100 417.816100 L 273.539650 408.457950 L 269.777050 407.800350 L 268.141500 417.158500 L 269.991917 407.840455 L 266.262517 407.099855 L 264.412100 416.417900 L 266.476447 407.144903 L 262.781347 406.322303 L 260.717000 415.595300 L 262.993859 406.372182 L 259.334359 405.468782 L 257.057500 414.691900 L 259.545549 405.523497 L 255.922849 404.540397 L 253.434800 413.708800 L 256.132791 404.599967 L 252.547991 403.538167 L 249.850000 412.647000 L 252.756261 403.602463 L 249.210661 402.463163 L 246.304400 411.507700 L 249.417270 402.532176 L 245.911970 401.316476 L 242.799100 410.292000 L 246.117304 401.390342 L 242.653704 400.099242 L 239.335500 409.000900 L 242.856684 400.177564 L 239.435784 398.812364 L 235.914600 407.635700 L 239.637363 398.895503 L 236.260563 397.457203 L 232.537800 406.197400 L 236.460297 397.545001 L 233.128597 396.034601 L 229.206100 404.687000 L 233.326792 396.127216 L 230.041592 394.545716 L 225.920900 403.105500 L 230.236633 394.642377 L 226.999033 392.991377 L 222.683300 401.454500 L 227.192939 393.093091 L 224.004039 391.373191 L 219.494400 399.734600 L 224.195819 391.479501 L 221.057019 389.691901 L 216.355600 397.947000 L 221.246025 389.802447 L 218.158525 387.948547 L 213.268100 396.093100 L 218.345820 388.063980 L 215.310620 386.144480 L 210.232900 394.173600 L 215.495448 386.264391 L 212.513948 384.280591 L 207.251400 392.189800 L 212.696578 384.405198 L 209.769978 382.358098 L 204.324800 390.142700 L 209.949505 382.486807 L 207.078905 380.377807 L 201.454200 388.033700 L 207.256732 380.511691 L 204.443432 378.341491 L 198.640900 385.863500 L 204.618191 378.479599 L 201.863291 376.249499 L 195.886000 383.633400 L 202.035376 376.392187 L 199.340076 374.103287 L 193.190700 381.344500 L 199.509975 374.251069 L 196.875675 371.904269 L 190.556400 378.997700 L 197.041865 372.055889 L 194.469565 369.652689 L 187.984100 376.594500 L 194.633394 369.809451 L 192.124394 367.350651 L 185.475100 374.135700 L 192.285047 367.511908 L 189.840547 364.998708 L 183.030600 371.622500 L 189.998188 365.164736 L 187.619388 362.598136 L 180.651800 369.055900 L 187.773767 362.768804 L 185.461867 360.149904 L 178.339900 366.437000 L 185.612508 360.324784 L 183.368608 357.654884 L 176.096000 363.767100 L 183.516249 357.834993 L 181.341749 355.114993 L 173.921500 361.047100 L 181.485620 355.299571 L 179.381620 352.530571 L 171.817500 358.278100 L 179.521563 352.719556 L 177.489363 349.902956 L 169.785300 355.461500 L 177.625511 350.096699 L 175.666111 347.233199 L 167.825900 352.598000 L 175.798263 347.431626 L 173.913063 344.522526 L 165.940700 349.688900 L 174.040940 344.725422 L 172.231040 341.771722 L 164.130800 346.735200 L 172.354447 341.978979 L 170.621047 338.981879 L 162.397400 343.738100 L 170.740008 339.193775 L 169.084408 336.154375 L 160.741800 340.698700 L 169.198570 336.370531 L 167.621870 333.289831 L 159.165100 337.618000 L 167.731157 333.510366 L 166.234657 330.389566 L 157.668600 334.497200 L 166.338833 330.614281 L 164.923733 327.454481 L 156.253500 331.337400 L 165.022593 327.683223 L 163.689993 324.485323 L 154.920900 328.139500 L 163.783340 324.717928 L 162.534540 321.483328 L 153.672100 324.904900 L 162.622197 321.719657 L 161.458297 318.449257 L 152.508200 321.634500 L 161.540202 318.689514 L 160.462602 315.384614 L 151.430600 318.329600 L 160.538353 315.627965 L 159.548053 312.289465 L 150.440300 314.991100 L 159.617672 312.536341 L 158.715972 309.165241 L 149.538600 311.620000 L 158.779124 309.414844 L 157.967224 306.012644 L 148.726700 308.217800 L 158.023879 306.265246 L 157.302979 302.832646 L 148.005800 304.785200 L 157.352944 303.087879 L 156.724344 299.626179 L 147.377200 301.323500 L 156.767368 299.883102 L 156.232068 296.393402 L 146.841900 297.833800 L 156.268177 296.652567 L 155.827477 293.135767 L 146.401200 294.317000 L 155.856520 293.396717 L 155.511720 289.854117 L 146.056400 290.774400 L 155.533560 290.116039 L 155.285760 286.548939 Z" transform="scale(1.000000,1.000000) translate(-1.000000,-230.000000)" fill="#ff0000" opacity="1.000000"></path>
    </g>
</svg>