<?xml version="1.0" encoding="UTF-8" standalone="yes"?>
<!DOCTYPE svg PUBLIC "-//W3C//DTD SVG 1.1//EN" "http://www.w3.org/Graphics/SVG/1.1/DTD/svg11.dtd">

<svg width="500" height="500" viewBox="0 0 500 500" xmlns="http://www.w3.org/2000/svg" xmlns:xlink="http://www.w3.org/1999/xlink" version="1.1" baseProfile="full">
    <g transform="scale(1.000000,-1.000000) translate(0,-500)">
        <path d="M 279.164291 323.948679 L 113.598168 1.000000 L 136.702041 227.845884 L 1.000000 229.251993 L 68.356232 427.906439 L 180.548226 454.168011 L 135.559710 320.815457 Z" transform="scale(1.000000,1.000000) translate(113.297955,20.748006)" fill="#ffffff" opacity="1.000000"></path>
        <path d="M 297.915982 330.362598 L 132.349882 7.413998 C 127.557765 -1.933371 113.380668 2.260461 114.444992 12.710577 L 137.548792 239.556377 L 146.901469 229.094310 L 11.199469 230.500410 C 4.736343 230.567379 0.225528 236.929223 2.300990 243.050411 L 69.657190 441.704911 C 70.710890 444.812601 73.293792 447.156466 76.488893 447.904366 L 188.680893 474.165966 C 195.932499 475.863403 202.228380 468.936047 199.847645 461.879194 L 154.859145 328.526594 L 145.650376 341.061140 L 289.254976 344.194340 C 296.448402 344.351288 301.198481 336.765349 297.915982 330.362598 Z M 281.008418 339.030602 L 289.669424 325.198860 L 146.064824 322.065660 C 139.480092 321.921993 134.750654 328.359484 136.856055 334.600206 L 181.844555 467.952806 L 193.011307 455.666034 L 80.819307 429.404434 L 87.651010 435.603889 L 20.294810 236.949389 L 11.396331 249.499390 L 147.098331 248.093290 C 152.686132 248.035391 157.017216 243.190566 156.451008 237.631223 L 133.347208 10.785423 L 115.442318 16.082002 L 281.008418 339.030602 Z" transform="scale(1.000000,1.000000) translate(103.000000,10.000000)" fill="#ff0000" opacity="1.000000"></path>
    </g>
</svg>