<?xml version="1.0" encoding="UTF-8" standalone="yes"?>
<!DOCTYPE svg PUBLIC "-//W3C//DTD SVG 1.1//EN" "http://www.w3.org/Graphics/SVG/1.1/DTD/svg11.dtd">

<svg width="500" height="500" viewBox="0 0 500 500" xmlns="http://www.w3.org/2000/svg" xmlns:xlink="http://www.w3.org/1999/xlink" version="1.1" baseProfile="full">
    <g transform="scale(1.000000,-1.000000) translate(0,-500)">
        <path d="M 133.023066 1.000000 L 265.046133 132.262857 L 1.000000 132.262857 Z" transform="scale(1.000000,1.000000) translate(217.572432,33.512834)" fill="#ffffff" opacity="1.000000"></path>
        <path d="M 340.052491 202.648171 L 339.887191 207.690171 L 339.613491 212.698971 L 339.232491 217.673071 L 338.745591 222.610871 L 338.154191 227.510771 L 337.459591 232.371371 L 336.663091 237.191071 L 335.766091 241.968271 L 334.769791 246.701471 L 333.675691 251.389171 L 332.484991 256.029671 L 331.199191 260.621571 L 329.819391 265.163371 L 328.346991 269.653371 L 326.783491 274.090071 L 325.129991 278.472071 L 323.387991 282.797671 L 321.558791 287.065271 L 319.643591 291.273571 L 317.643891 295.420771 L 315.560991 299.505471 L 313.396091 303.526071 L 311.150691 307.481071 L 308.826091 311.368971 L 306.423491 315.188071 L 303.944391 318.936971 L 301.389991 322.614071 L 298.761691 326.217871 L 296.060791 329.746671 L 293.288691 333.199171 L 290.446691 336.573571 L 287.535991 339.868571 L 284.558191 343.082471 L 281.514391 346.213771 L 278.405991 349.260871 L 275.234291 352.222371 L 272.000691 355.096571 L 268.706591 357.881971 L 265.353091 360.577071 L 261.941791 363.180371 L 258.473791 365.690171 L 254.950591 368.105071 L 251.373391 370.423471 L 247.743591 372.643771 L 244.062591 374.764571 L 240.331591 376.784171 L 236.551991 378.701171 L 232.725091 380.513871 L 228.852191 382.220871 L 224.934791 383.820571 L 220.974091 385.311371 L 216.971391 386.691771 L 212.928091 387.960271 L 208.845491 389.115271 L 204.724891 390.155271 L 200.567791 391.078671 L 196.375291 391.883971 L 192.148891 392.569571 L 187.889791 393.134071 L 183.599491 393.575771 L 179.279091 393.893171 L 174.930191 394.084771 L 170.553891 394.148971 L 166.177591 394.084771 L 161.828691 393.893171 L 157.508391 393.575771 L 153.217991 393.134071 L 148.958891 392.569571 L 144.732491 391.883971 L 140.539991 391.078671 L 136.382891 390.155271 L 132.262291 389.115271 L 128.179691 387.960271 L 124.136391 386.691771 L 120.133691 385.311371 L 116.172991 383.820571 L 112.255591 382.220871 L 108.382691 380.513871 L 104.555891 378.701171 L 100.776291 376.784171 L 97.045291 374.764571 L 93.364191 372.643771 L 89.734391 370.423471 L 86.157291 368.105071 L 82.633991 365.690171 L 79.165991 363.180371 L 75.754691 360.577071 L 72.401191 357.881971 L 69.107091 355.096571 L 65.873491 352.222371 L 62.701891 349.260871 L 59.593491 346.213771 L 56.549691 343.082471 L 53.571791 339.868571 L 50.661191 336.573571 L 47.819091 333.199171 L 45.046991 329.746671 L 42.346091 326.217871 L 39.717791 322.614071 L 37.163491 318.936971 L 34.684291 315.188071 L 32.281791 311.368971 L 29.957091 307.481071 L 27.711691 303.526071 L 25.546891 299.505471 L 23.463891 295.420771 L 21.464191 291.273571 L 19.549091 287.065271 L 17.719791 282.797671 L 15.977791 278.472071 L 14.324291 274.090071 L 12.760791 269.653371 L 11.288391 265.163371 L 9.908691 260.621571 L 8.622791 256.029671 L 7.432091 251.389171 L 6.337991 246.701471 L 5.341691 241.968271 L 4.444691 237.191071 L 3.648191 232.371371 L 2.953591 227.510771 L 2.362191 222.610871 L 1.875291 217.673071 L 1.494391 212.698971 L 1.220591 207.690171 L 1.055291 202.648171 L 0.999991 197.574471 L 96.977791 197.574471 L 97.001791 199.883671 L 97.073491 202.178471 L 97.192291 204.458171 L 97.357591 206.721971 L 97.568891 208.969371 L 97.825491 211.199471 L 98.126991 213.411671 L 98.472591 215.605271 L 98.861791 217.779571 L 99.294091 219.933771 L 99.768891 222.067271 L 100.285591 224.179371 L 100.843591 226.269371 L 101.442391 228.336471 L 102.081291 230.379971 L 102.759791 232.399271 L 103.477291 234.393671 L 104.233191 236.362371 L 105.026991 238.304771 L 105.857991 240.220071 L 106.725791 242.107571 L 107.629591 243.966671 L 108.568991 245.796571 L 109.543391 247.596671 L 110.552191 249.366171 L 111.594691 251.104371 L 112.670491 252.810571 L 113.778991 254.484171 L 114.919491 256.124371 L 116.091491 257.730471 L 117.294491 259.301771 L 118.527691 260.837671 L 119.790791 262.337271 L 121.082991 263.800071 L 122.403791 265.225171 L 123.752691 266.612071 L 125.128991 267.959871 L 126.532091 269.268071 L 127.961591 270.535771 L 129.416791 271.762471 L 130.897091 272.947271 L 132.401991 274.089571 L 133.930891 275.188671 L 135.483191 276.243871 L 137.058291 277.254371 L 138.655591 278.219571 L 140.274591 279.138771 L 141.914791 280.011271 L 143.575391 280.836371 L 145.255991 281.613271 L 146.955891 282.341271 L 148.674591 283.019771 L 150.411491 283.648071 L 152.166091 284.225471 L 153.937691 284.751071 L 155.725791 285.224471 L 157.529691 285.644671 L 159.348991 286.011271 L 161.182991 286.323271 L 163.031191 286.580171 L 164.892891 286.781271 L 166.767691 286.925671 L 168.654891 287.012871 L 170.553891 287.042071 L 172.452891 287.012871 L 174.340091 286.925671 L 176.214891 286.781271 L 178.076591 286.580171 L 179.924791 286.323271 L 181.758791 286.011271 L 183.578091 285.644671 L 185.382091 285.224471 L 187.170091 284.751071 L 188.941691 284.225471 L 190.696291 283.648071 L 192.433191 283.019771 L 194.151891 282.341271 L 195.851791 281.613271 L 197.532391 280.836371 L 199.193091 280.011271 L 200.833191 279.138771 L 202.452191 278.219571 L 204.049591 277.254371 L 205.624691 276.243871 L 207.176891 275.188671 L 208.705791 274.089571 L 210.210691 272.947271 L 211.690991 271.762471 L 213.146191 270.535771 L 214.575691 269.268071 L 215.978891 267.959871 L 217.355191 266.612071 L 218.703991 265.225171 L 220.024791 263.800071 L 221.317091 262.337271 L 222.580091 260.837671 L 223.813391 259.301771 L 225.016291 257.730471 L 226.188291 256.124371 L 227.328791 254.484171 L 228.437291 252.810571 L 229.513091 251.104371 L 230.555591 249.366171 L 231.564391 247.596671 L 232.538791 245.796571 L 233.478191 243.966671 L 234.381991 242.107571 L 235.249791 240.220071 L 236.080891 238.304771 L 236.874591 236.362371 L 237.630591 234.393671 L 238.348091 232.399271 L 239.026591 230.379971 L 239.665491 228.336471 L 240.264191 226.269371 L 240.822191 224.179371 L 241.338891 222.067271 L 241.813691 219.933771 L 242.245991 217.779571 L 242.635191 215.605271 L 242.980891 213.411671 L 243.282291 211.199471 L 243.538891 208.969371 L 243.750191 206.721971 L 243.915491 204.458171 L 244.034291 202.178471 L 244.105991 199.883671 L 244.129991 197.574471 L 340.107891 197.574471 Z" transform="scale(1.000000,1.000000) translate(58.476509,60.361929)" fill="#ffffff" opacity="1.000000"></path>
        <path d="M 88.977816 1.000000 L 8.999999 1.000000 C 4.581722 1.000000 1.000000 4.581722 1.000000 9.000001 L 1.000000 152.558909 C 1.000000 156.977187 4.581722 160.558909 8.999999 160.558909 L 88.977816 160.558909 C 93.396093 160.558909 96.977815 156.977187 96.977815 152.558909 L 96.977815 9.000001 C 96.977815 4.581722 93.396093 1.000000 88.977816 1.000000 Z" transform="scale(1.000000,1.000000) translate(301.606591,108.084780)" fill="#ffffff" opacity="1.000000"></path>
        <path d="M 88.977813 1.000000 L 9.000001 1.000000 C 4.581722 1.000000 1.000000 4.581722 1.000000 9.000000 L 1.000000 221.911714 C 1.000000 226.329992 4.581722 229.911714 9.000001 229.911714 L 88.977813 229.911714 C 93.396091 229.911714 96.977814 226.329992 96.977814 221.911714 L 96.977814 9.000000 C 96.977814 4.581722 93.396091 1.000000 88.977813 1.000000 Z" transform="scale(1.000000,1.000000) translate(58.476509,33.512834)" fill="#ffffff" opacity="1.000000"></path>
        <path d="M 98.839384 20.945428 L 99.633784 21.066628 L 101.066600 11.675300 L 98.701000 20.876057 L 99.467600 21.073157 L 101.833200 11.872400 L 98.567061 20.793293 L 99.302061 21.062393 L 102.568200 12.141500 L 98.445958 20.700537 L 99.145258 21.037337 L 103.267500 12.478300 L 98.334253 20.596987 L 98.993853 20.997787 L 103.927100 12.879100 L 98.238373 20.487541 L 98.854273 20.948041 L 104.543000 13.339600 L 98.153656 20.369983 L 98.721756 20.886283 L 105.111100 13.855900 L 98.081333 20.245922 L 98.597733 20.814022 L 105.627500 14.424000 L 98.019059 20.112727 L 98.479559 20.728627 L 106.088000 15.039900 L 97.968767 19.972248 L 98.369467 20.631848 L 106.488700 15.699500 L 97.930141 19.822735 L 98.267041 20.522035 L 106.825600 16.398800 L 97.904315 19.663869 L 98.173315 20.398869 L 107.094600 17.133800 L 97.893768 19.499111 L 98.090868 20.265811 L 107.291700 17.900500 L 97.900575 19.334648 L 98.021875 20.128948 L 107.413000 18.694800 L 97.925085 19.173835 L 97.966385 19.991835 L 107.454300 19.512800 L 97.954300 19.512800 L 97.954300 232.424500 L 107.454300 232.424500 L 97.966385 231.945465 L 97.925085 232.763465 L 107.413000 233.242500 L 98.021875 231.808352 L 97.900575 232.602652 L 107.291700 234.036800 L 98.090868 231.671489 L 97.893768 232.438189 L 107.094600 234.803500 L 98.172457 231.540775 L 98.123857 231.673675 C 95.857138 237.872173 100.446046 244.436400 107.046000 244.436400 L 107.454300 244.436400 L 107.454300 234.936400 L 97.954813 235.035130 L 97.978813 237.344330 L 97.982934 237.542278 L 98.054634 239.837078 L 98.062873 240.034794 L 98.181673 242.314494 L 98.194025 242.511937 L 98.359325 244.775737 L 98.375812 244.973166 L 98.587112 247.220566 L 98.607669 247.417225 L 98.864269 249.647325 L 98.889020 249.844292 L 99.190520 252.056492 L 99.219253 252.252081 L 99.564853 254.445681 L 99.597733 254.641096 L 99.986933 256.815396 L 100.024000 257.010673 L 100.456300 259.164873 L 100.497457 259.359393 L 100.972257 261.492893 L 101.017522 261.686690 L 101.534222 263.798790 L 101.583597 263.991828 L 102.141597 266.081828 L 102.195245 266.274599 L 102.794045 268.341699 L 102.851727 268.533250 L 103.490627 270.576750 L 103.552559 270.767729 L 104.231059 272.787029 L 104.297178 272.977114 L 105.014678 274.971514 L 105.085068 275.160829 L 105.840968 277.129529 L 105.915706 277.318139 L 106.709506 279.260539 L 106.788443 279.447942 L 107.619443 281.363242 L 107.703060 281.550405 L 108.570860 283.437905 L 108.658433 283.623094 L 109.562233 285.482194 L 109.654691 285.667227 L 110.594091 287.497127 L 110.690955 287.680842 L 111.665355 289.480942 L 111.766887 289.663680 L 112.775687 291.433180 L 112.881649 291.614362 L 113.924149 293.352562 L 114.035230 293.533172 L 115.111030 295.239372 L 115.226759 295.418429 L 116.335259 297.092029 L 116.455767 297.269582 L 117.596267 298.909782 L 117.721943 299.086197 L 118.893943 300.692297 L 119.024886 300.867469 L 120.227886 302.438769 L 120.363298 302.611469 L 121.596498 304.147369 L 121.738210 304.319680 L 123.001310 305.819280 C 123.049356 305.876323 123.098073 305.932798 123.147449 305.988693 L 124.439649 307.451493 C 124.489713 307.508166 124.540451 307.564239 124.591853 307.619700 L 125.912653 309.044800 C 125.964480 309.100720 126.016978 309.156014 126.070137 309.210670 L 127.419037 310.597570 C 127.472801 310.652848 127.527235 310.707470 127.582329 310.761423 L 128.958629 312.109223 C 129.014118 312.163563 129.070272 312.217221 129.127077 312.270184 L 130.530177 313.578384 C 130.587916 313.632218 130.646325 313.685330 130.705388 313.737708 L 132.134888 315.005408 C 132.194307 315.058102 132.254385 315.110049 132.315107 315.161236 L 133.770307 316.387936 C 133.831881 316.439841 133.894112 316.490962 133.956986 316.541285 L 135.437286 317.726085 C 135.500828 317.776942 135.565021 317.826981 135.629849 317.876189 L 137.134749 319.018489 C 137.200288 319.068237 137.266472 319.117132 137.333282 319.165160 L 138.862182 320.264260 C 138.929730 320.312820 138.997914 320.360490 139.066715 320.407258 L 140.619015 321.462458 C 140.688696 321.509825 140.759004 321.556263 140.829920 321.601759 L 142.405020 322.612259 C 142.476602 322.658182 142.548798 322.703142 142.621588 322.747127 L 144.218888 323.712327 C 144.292550 323.756839 144.366814 323.800348 144.441658 323.842841 L 146.060658 324.762041 C 146.136380 324.805033 146.212690 324.846981 146.289565 324.887875 L 147.929765 325.760375 C 148.007315 325.801627 148.085433 325.841802 148.164097 325.880888 L 149.824697 326.705988 C 149.904456 326.745618 149.984768 326.784124 150.065609 326.821495 L 151.746209 327.598395 C 151.827804 327.636114 151.909929 327.672673 151.992561 327.708061 L 153.692461 328.436061 C 153.775817 328.471759 153.859681 328.506262 153.944025 328.539559 L 155.662725 329.218059 C 155.747857 329.251667 155.833469 329.284043 155.919536 329.315176 L 157.656436 329.943476 C 157.743319 329.974905 157.830656 330.005065 157.918419 330.033945 L 159.673019 330.611345 C 159.761777 330.640553 159.850960 330.668450 159.940540 330.695027 L 161.712140 331.220627 C 161.801994 331.247285 161.892237 331.272612 161.982840 331.296599 L 163.770940 331.769999 C 163.862636 331.794275 163.954690 331.817177 164.047072 331.838697 L 165.850972 332.258897 C 165.943544 332.280460 166.036435 332.300634 166.129612 332.319409 L 167.948912 332.686009 C 168.043087 332.704986 168.137544 332.722533 168.232251 332.738645 L 170.066251 333.050645 C 170.161130 333.066786 170.256248 333.081484 170.351574 333.094734 L 172.199774 333.351634 C 172.295479 333.364937 172.391382 333.376779 172.487449 333.387156 L 174.349149 333.588256 C 174.445908 333.598708 174.542822 333.607673 174.639856 333.615146 L 176.514656 333.759546 C 176.611577 333.767011 176.708606 333.772988 176.805711 333.777475 L 178.692911 333.864675 C 178.790335 333.869177 178.887823 333.872178 178.985340 333.873677 L 180.884340 333.902877 C 180.981708 333.904374 181.079092 333.904374 181.176460 333.902877 L 183.075460 333.873677 C 183.172977 333.872178 183.270465 333.869177 183.367889 333.864675 L 185.255089 333.777475 C 185.352194 333.772988 185.449223 333.767011 185.546144 333.759546 L 187.420944 333.615146 C 187.517978 333.607673 187.614892 333.598708 187.711651 333.588256 L 189.573351 333.387156 C 189.669418 333.376779 189.765321 333.364937 189.861026 333.351634 L 191.709226 333.094734 C 191.804552 333.081484 191.899670 333.066786 191.994549 333.050645 L 193.828549 332.738645 C 193.923256 332.722533 194.017713 332.704986 194.111888 332.686009 L 195.931188 332.319409 C 196.024327 332.300641 196.117180 332.280477 196.209714 332.258923 L 198.013714 331.838723 C 198.106177 331.817186 198.198312 331.794264 198.290088 331.769965 L 200.078088 331.296565 C 200.168648 331.272588 200.258848 331.247273 200.348660 331.220627 L 202.120260 330.695027 C 202.209840 330.668450 202.299023 330.640553 202.387781 330.611345 L 204.142381 330.033945 C 204.230144 330.005065 204.317481 329.974905 204.404364 329.943476 L 206.141264 329.315176 C 206.227331 329.284043 206.312943 329.251667 206.398075 329.218059 L 208.116775 328.539559 C 208.201119 328.506262 208.284983 328.471759 208.368339 328.436061 L 210.068239 327.708061 C 210.150871 327.672673 210.232996 327.636114 210.314591 327.598395 L 211.995191 326.821495 C 212.075963 326.784156 212.156207 326.745683 212.235899 326.706089 L 213.896599 325.880989 C 213.975404 325.841836 214.053661 325.801590 214.131347 325.760262 L 215.771447 324.887762 C 215.848251 324.846904 215.924489 324.804993 216.000142 324.762041 L 217.619142 323.842841 C 217.693910 323.800391 217.768099 323.756927 217.841687 323.712463 L 219.439087 322.747263 C 219.511953 322.703235 219.584224 322.658230 219.655880 322.612259 L 221.230980 321.601759 C 221.301976 321.556211 221.372363 321.509720 221.442121 321.462298 L 222.994321 320.407098 C 223.063042 320.360381 223.131147 320.312764 223.198618 320.264260 L 224.727518 319.165160 C 224.794328 319.117132 224.860512 319.068237 224.926051 319.018489 L 226.430951 317.876189 C 226.495779 317.826981 226.559972 317.776942 226.623514 317.726085 L 228.103814 316.541285 C 228.166688 316.490962 228.228919 316.439841 228.290493 316.387936 L 229.745693 315.161236 C 229.806415 315.110049 229.866493 315.058102 229.925912 315.005408 L 231.355412 313.737708 C 231.414391 313.685405 231.472717 313.632369 231.530376 313.578614 L 232.933576 312.270414 C 232.990465 312.217376 233.046701 312.163642 233.102271 312.109223 L 234.478571 310.761423 C 234.533748 310.707388 234.588265 310.652682 234.642109 310.597318 L 235.990909 309.210418 C 236.043983 309.155844 236.096400 309.100634 236.148147 309.044800 L 237.468947 307.619700 C 237.520267 307.564328 237.570924 307.508346 237.620909 307.451767 L 238.913209 305.988967 C 238.962750 305.932890 239.011627 305.876229 239.059829 305.818997 L 240.322829 304.319397 L 240.464066 304.147662 L 241.697366 302.611762 L 241.833246 302.438467 L 243.036146 300.867167 L 243.166857 300.692297 L 244.338857 299.086197 L 244.464533 298.909782 L 245.605033 297.269582 L 245.725541 297.092029 L 246.834041 295.418429 L 246.949770 295.239372 L 248.025570 293.533172 L 248.136651 293.352562 L 249.179151 291.614362 L 249.285113 291.433180 L 250.293913 289.663680 L 250.395445 289.480942 L 251.369845 287.680842 L 251.466709 287.497127 L 252.406109 285.667227 L 252.498567 285.482194 L 253.402367 283.623094 L 253.489940 283.437905 L 254.357740 281.550405 L 254.441190 281.363625 L 255.272290 279.448325 L 255.351552 279.260151 L 256.145252 277.317751 L 256.219682 277.129922 L 256.975682 275.161222 L 257.046222 274.971514 L 257.763722 272.977114 L 257.829841 272.787029 L 258.508341 270.767729 L 258.570273 270.576750 L 259.209173 268.533250 L 259.266973 268.341292 L 259.865673 266.274192 L 259.919203 266.081828 L 260.477203 263.991828 L 260.526578 263.798790 L 261.043278 261.686690 L 261.088543 261.492893 L 261.563343 259.359393 L 261.604500 259.164873 L 262.036800 257.010673 L 262.073867 256.815396 L 262.463067 254.641096 L 262.495881 254.446098 L 262.841581 252.252498 L 262.870437 252.056074 L 263.171837 249.843874 L 263.196531 249.647325 L 263.453131 247.417225 L 263.473688 247.220566 L 263.684988 244.973166 L 263.701475 244.775737 L 263.866775 242.511937 L 263.879127 242.314494 L 263.997927 240.034794 L 264.006166 239.837078 L 264.077866 237.542278 L 264.081987 237.344330 L 264.105987 235.035130 L 264.106500 142.775600 C 264.106500 137.528895 259.853205 133.275600 254.606500 133.275600 L 170.572400 133.275600 L 177.270491 149.512482 L 309.293491 18.249682 L 295.897312 18.249685 L 427.920412 149.512485 L 434.618500 133.275600 L 350.584400 133.275600 C 345.337695 133.275600 341.084400 137.528895 341.084400 142.775600 L 341.084400 237.643600 L 350.584400 237.643600 L 341.096476 237.164758 L 341.058776 237.911758 C 341.052471 238.036677 341.048634 238.161708 341.047267 238.286778 L 341.029567 239.906278 L 350.529000 240.010100 L 341.034101 239.698813 L 340.868801 244.740813 L 350.363700 245.052100 L 340.877852 244.533757 L 340.604152 249.542557 L 350.090000 250.060900 L 340.617747 249.335356 L 340.236747 254.309456 L 349.709000 255.035000 L 340.254851 254.102758 L 339.767951 259.040558 L 349.222100 259.972800 L 339.790549 258.834446 L 339.199149 263.734346 L 348.630700 264.872700 L 339.226242 263.528764 L 338.531642 268.389364 L 347.936100 269.733300 L 338.563227 268.184346 L 337.766727 273.004046 L 347.139600 274.553000 L 337.802766 272.799852 L 336.905766 277.577052 L 346.242600 279.330200 L 336.946312 277.373407 L 335.950012 282.106607 L 345.246300 284.063400 L 335.994941 281.904151 L 334.900841 286.591851 L 344.152200 288.751100 L 334.950289 286.389993 L 333.759589 291.030493 L 342.961500 293.391600 L 333.813377 290.829990 L 332.527577 295.421890 L 341.675700 297.983500 L 332.585913 295.222020 L 331.206113 299.763820 L 340.295900 302.525300 L 331.268879 299.565081 L 329.796479 304.055081 L 338.823500 307.015300 L 329.863575 303.857809 L 328.300075 308.294509 L 337.260000 311.452000 L 328.371727 308.098107 L 326.718227 312.480107 L 335.606500 315.834000 L 326.794257 312.285145 L 325.052257 316.610745 L 333.864500 320.159600 L 325.132792 316.416972 L 323.303592 320.684572 L 332.035300 324.427200 L 323.388628 320.492094 L 321.473428 324.700394 L 330.120100 328.635500 L 321.562924 324.509395 L 319.563224 328.656595 L 328.120400 332.782700 L 319.657214 328.467091 L 317.574314 332.551791 L 326.037500 336.867400 L 317.672991 332.363514 L 315.508091 336.384114 L 323.872600 340.888000 L 315.611185 336.197689 L 313.365785 340.152689 L 321.627200 344.843000 L 313.473495 339.967848 L 311.148895 343.855748 L 319.302600 348.730900 L 311.261472 343.672218 L 308.858872 347.491318 L 316.900000 352.550000 L 308.975904 347.309896 L 306.496804 351.058796 L 314.420900 356.298900 L 306.618739 350.878911 L 304.064339 354.556011 L 311.866500 359.976000 L 304.190965 354.378129 L 301.562665 357.981929 L 309.238200 363.579800 L 301.694283 357.805779 L 298.993383 361.334579 L 306.537300 367.108600 L 299.129629 361.160793 L 296.357529 364.613293 L 303.765200 370.561100 L 296.498968 364.441306 L 293.656968 367.815706 L 300.923200 373.935500 L 293.803330 367.646029 L 290.892630 370.941029 L 298.012500 377.230500 L 291.043900 370.773828 L 288.066100 373.987728 L 295.034700 380.444400 L 288.222684 373.822736 L 285.178884 376.954036 L 291.990900 383.575700 L 285.340612 376.791625 L 282.232212 379.838725 L 288.882500 386.622800 L 282.399018 379.679136 L 279.227318 382.640636 L 285.710800 389.584300 L 279.399480 382.483790 L 276.165880 385.357990 L 282.477200 392.458500 L 276.343207 385.204251 L 273.049107 387.989651 L 279.183100 395.243900 L 273.231951 387.838914 L 269.878451 390.534014 L 275.829600 397.939000 L 270.066288 390.386899 L 266.654988 392.990199 L 272.418300 400.542300 L 266.848656 392.846258 L 263.380656 395.356058 L 268.950300 403.052100 L 263.579306 395.216130 L 260.056106 397.631030 L 265.427100 405.467000 L 260.260337 397.494888 L 256.683137 399.813288 L 261.849900 407.785400 L 256.892730 399.681298 L 253.262930 401.901598 L 258.220100 410.005700 L 253.477526 401.774176 L 249.796526 403.894976 L 254.539100 412.126500 L 250.016762 403.771953 L 246.285762 405.791553 L 250.808100 414.146100 L 246.510863 405.673571 L 242.731263 407.590571 L 247.028500 416.063100 L 242.961757 407.477554 L 239.134857 409.290254 L 243.201600 417.875800 L 239.370085 409.182728 L 235.497185 410.889728 L 239.328700 419.582800 L 235.737214 410.787845 L 231.819814 412.387545 L 235.411300 421.182500 L 232.064732 412.291466 L 228.104032 413.782266 L 231.450600 422.673300 L 228.353370 413.692366 L 224.350670 415.072766 L 227.447900 424.053700 L 224.604141 414.989317 L 220.560841 416.257817 L 223.404600 425.322200 L 220.818475 416.180977 L 216.735875 417.335977 L 219.322000 426.477200 L 216.997194 417.266050 L 212.876594 418.306050 L 215.201400 427.517200 L 213.141411 418.243234 L 208.984311 419.166634 L 211.044300 428.440600 L 209.252288 419.111147 L 205.059788 419.916447 L 206.851800 429.245900 L 205.330610 419.868481 L 201.104210 420.554081 L 202.625400 429.931500 L 201.377188 420.513859 L 197.118088 421.078359 L 198.366300 430.496000 L 197.393387 421.045950 L 193.103087 421.487650 L 194.076000 430.937700 L 193.379954 421.463233 L 189.059554 421.780633 L 189.755600 431.255100 L 189.337463 421.764306 L 184.988563 421.955906 L 185.406700 431.446700 L 185.267351 421.947722 L 180.891051 422.011922 L 181.030400 431.510900 L 181.169749 422.011922 L 176.793449 421.947722 L 176.654100 431.446700 L 177.072237 421.955906 L 172.723337 421.764306 L 172.305200 431.255100 L 173.001262 421.780634 L 168.680962 421.463234 L 167.984900 430.937700 L 168.957790 421.487648 L 164.667390 421.045948 L 163.694500 430.496000 L 164.942712 421.078359 L 160.683612 420.513859 L 159.435400 429.931500 L 160.956590 420.554081 L 156.730190 419.868481 L 155.209000 429.245900 L 157.001012 419.916447 L 152.808512 419.111147 L 151.016500 428.440600 L 153.076489 419.166634 L 148.919389 418.243234 L 146.859400 427.517200 L 149.184206 418.306050 L 145.063606 417.266050 L 142.738800 426.477200 L 145.324925 417.335977 L 141.242325 416.180977 L 138.656200 425.322200 L 141.499959 416.257817 L 137.456659 414.989317 L 134.612900 424.053700 L 137.710130 415.072766 L 133.707430 413.692366 L 130.610200 422.673300 L 133.956768 413.782266 L 129.996068 412.291466 L 126.649500 421.182500 L 130.240986 412.387545 L 126.323586 410.787845 L 122.732100 419.582800 L 126.563615 410.889728 L 122.690715 409.182728 L 118.859200 417.875800 L 122.926030 409.290295 L 119.099230 407.477595 L 115.032400 416.063100 L 119.329637 407.590571 L 115.550037 405.673571 L 111.252800 414.146100 L 115.775138 405.791553 L 112.044138 403.771953 L 107.521800 412.126500 L 112.264278 403.894920 L 108.583178 401.774120 L 103.840700 410.005700 L 108.797870 401.901598 L 105.168070 399.681298 L 100.210900 407.785400 L 105.377764 399.813354 L 101.800664 397.494954 L 96.633800 405.467000 L 102.004690 397.630959 L 98.481390 395.216059 L 93.110500 403.052100 L 98.680144 395.356058 L 95.212144 392.846258 L 89.642500 400.542300 L 95.405812 392.990199 L 91.994512 390.386899 L 86.231200 397.939000 L 92.182349 390.534014 L 88.828849 387.838914 L 82.877700 395.243900 L 89.011693 387.989651 L 85.717593 385.204251 L 79.583600 392.458500 L 85.894920 385.357990 L 82.661320 382.483790 L 76.350000 389.584300 L 82.833591 382.640738 L 79.661991 379.679238 L 73.178400 386.622800 L 79.828688 379.838725 L 76.720288 376.791625 L 70.070000 383.575700 L 76.882016 376.954036 L 73.838216 373.822736 L 67.026200 380.444400 L 73.994692 373.987611 L 71.016792 370.773711 L 64.048300 377.230500 L 71.168278 370.941150 L 68.257678 367.646150 L 61.137700 373.935500 L 68.403826 367.815580 L 65.561726 364.441180 L 58.295600 370.561100 L 65.703271 364.613293 L 62.931171 361.160793 L 55.523500 367.108600 L 63.067417 361.334579 L 60.366517 357.805779 L 52.822600 363.579800 L 60.498135 357.981929 L 57.869835 354.378129 L 50.194300 359.976000 L 57.996561 354.556154 L 55.442261 350.879054 L 47.640000 356.298900 L 55.563999 351.058648 L 53.084799 347.309748 L 45.160800 352.550000 L 53.202023 347.491469 L 50.799523 343.672369 L 42.758300 348.730900 L 50.911912 343.855594 L 48.587212 339.967694 L 40.433600 344.843000 L 48.695015 340.152689 L 46.449615 336.197689 L 38.188200 340.888000 L 46.552796 336.384275 L 44.387996 332.363675 L 36.023400 336.867400 L 44.486502 332.551626 L 42.403502 328.466926 L 33.940400 332.782700 L 42.497576 328.656595 L 40.497876 324.509395 L 31.940700 328.635500 L 40.587450 324.700564 L 38.672350 320.492264 L 30.025600 324.427200 L 38.757234 320.684399 L 36.927934 316.416799 L 28.196300 320.159600 L 37.008543 316.610745 L 35.266543 312.285145 L 26.454300 315.834000 L 35.342573 312.480107 L 33.689073 308.098107 L 24.800800 311.452000 L 33.760725 308.294509 L 32.197225 303.857809 L 23.237300 307.015300 L 32.264321 304.055081 L 30.791921 299.565081 L 21.764900 302.525300 L 30.854743 299.764004 L 29.475043 295.222204 L 20.385200 297.983500 L 29.533271 295.421705 L 28.247371 290.829805 L 19.099300 293.391600 L 28.301211 291.030493 L 27.110511 286.389993 L 17.908600 288.751100 L 27.159959 286.591851 L 26.065859 281.904151 L 16.814500 284.063400 L 26.110788 282.106607 L 25.114488 277.373407 L 15.818200 279.330200 L 25.155034 277.577052 L 24.258034 272.799852 L 14.921200 274.553000 L 24.294073 273.004046 L 23.497573 268.184346 L 14.124700 269.733300 L 23.529158 268.389364 L 22.834558 263.528764 L 13.430100 264.872700 L 22.861651 263.734346 L 22.270251 258.834446 L 12.838700 259.972800 L 22.292849 259.040558 L 21.805949 254.102758 L 12.351800 255.035000 L 21.824068 254.309645 L 21.443168 249.335545 L 11.970900 250.060900 L 21.456738 249.542368 L 21.182938 244.533568 L 11.697100 245.052100 L 21.191999 244.740813 L 21.026699 239.698813 L 11.531800 240.010100 L 21.031236 239.906562 L 20.975936 234.832862 L 11.476500 234.936400 L 11.476500 244.436400 L 11.884700 244.436400 C 18.484654 244.436400 23.073562 237.872173 20.806843 231.673675 L 20.758243 231.540775 L 11.836100 234.803500 L 21.036932 232.438189 L 20.839832 231.671489 L 11.639000 234.036800 L 21.030301 232.603808 L 20.909101 231.809508 L 11.517800 233.242500 L 21.005715 232.763465 L 20.964415 231.945465 L 11.476500 232.424500 L 20.976500 232.424500 L 20.976500 19.512800 L 11.476500 19.512800 L 20.964415 19.991835 L 21.005715 19.173835 L 11.517800 18.694800 L 20.909101 20.127792 L 21.030301 19.333492 L 11.639000 17.900500 L 20.839832 20.265811 L 21.036932 19.499111 L 11.836100 17.133800 L 20.757385 20.398869 L 21.026385 19.663869 L 12.105100 16.398800 L 20.663659 20.522035 L 21.000559 19.822735 L 12.442000 15.699500 L 20.561233 20.631848 L 20.961933 19.972248 L 12.842700 15.039900 L 20.450549 20.729420 L 20.911149 20.113520 L 13.303300 14.424000 L 20.333683 20.813344 L 20.849983 20.245244 L 13.819600 13.855900 L 20.208944 20.886283 L 20.777044 20.369983 L 14.387700 13.339600 L 20.076427 20.948041 L 20.692327 20.487541 L 15.003600 12.879100 L 19.936847 20.997787 L 20.596447 20.596987 L 15.663200 12.478300 L 19.785442 21.037337 L 20.484742 20.700537 L 16.362500 12.141500 L 19.628639 21.062393 L 20.363639 20.793293 L 17.097500 11.872400 L 19.462811 21.073232 L 20.229511 20.876132 L 17.864200 11.675300 L 19.297192 21.066601 L 20.091492 20.945401 L 18.658500 11.554100 L 19.137535 21.042015 L 19.955535 21.000715 L 19.476500 11.512800 L 19.476500 21.012800 L 99.454300 21.012800 L 99.454300 11.512800 L 98.975206 21.000712 L 99.793106 21.042012 L 100.272200 11.554100 L 98.839384 20.945428 Z M 101.705016 2.162772 C 101.388936 2.114549 101.070624 2.082313 100.751294 2.066188 L 99.933394 2.024888 C 99.773823 2.016831 99.614074 2.012800 99.454300 2.012800 L 19.476500 2.012800 C 19.316745 2.012800 19.157016 2.016830 18.997465 2.024885 L 18.179465 2.066185 C 17.860056 2.082312 17.541665 2.114558 17.225508 2.162799 L 16.431208 2.283999 C 16.117448 2.331875 15.806285 2.395444 15.498889 2.474468 L 14.732189 2.671568 C 14.427462 2.749906 14.126816 2.843334 13.831361 2.951507 L 13.096361 3.220607 C 12.805260 3.327185 12.519551 3.447948 12.240258 3.582463 L 11.540958 3.919263 C 11.263649 4.052821 10.992995 4.199778 10.729953 4.359613 L 10.070353 4.760413 C 9.810506 4.918307 9.558389 5.088585 9.314873 5.270659 L 8.698973 5.731159 C 8.456350 5.912564 8.222544 6.105471 7.998356 6.309217 L 7.430256 6.825517 C 7.206497 7.028874 6.992574 7.242797 6.789217 7.466556 L 6.272917 8.034656 C 6.069392 8.258600 5.876684 8.492141 5.695451 8.734480 L 5.234851 9.350380 C 5.052344 9.594423 4.881686 9.847106 4.723467 10.107552 L 4.322767 10.767152 C 4.163334 11.029597 4.016720 11.299619 3.883441 11.576265 L 3.546541 12.275565 C 3.411670 12.555516 3.290616 12.841915 3.183815 13.133731 L 2.914815 13.868731 C 2.806808 14.163842 2.713511 14.464131 2.635268 14.768489 L 2.438168 15.535189 C 2.359144 15.842585 2.295575 16.153748 2.247699 16.467508 L 2.126499 17.261808 C 2.078258 17.577965 2.046012 17.896356 2.029885 18.215765 L 1.988585 19.033765 C 1.980530 19.193316 1.976500 19.353045 1.976500 19.512800 L 1.976500 232.424500 C 1.976500 232.584255 1.980530 232.743984 1.988585 232.903535 L 2.029885 233.721535 C 2.046012 234.040944 2.078258 234.359335 2.126499 234.675492 L 2.247699 235.469792 C 2.295575 235.783552 2.359144 236.094715 2.438168 236.402111 L 2.635268 237.168811 C 2.713304 237.472363 2.806314 237.771867 2.913957 238.066225 L 2.962557 238.199125 L 11.884700 234.936400 L 11.884700 225.436400 L 11.476500 225.436400 C 6.189314 225.436400 1.919441 229.753066 1.977064 235.039938 L 2.032364 240.113638 L 2.036901 240.321387 L 2.202201 245.363387 L 2.211262 245.570632 L 2.485062 250.579432 L 2.498632 250.786255 L 2.879532 255.760355 L 2.897651 255.967242 L 3.384551 260.905042 L 3.407149 261.111154 L 3.998549 266.011054 L 4.025642 266.216636 L 4.720242 271.077236 L 4.751827 271.282254 L 5.548327 276.101954 L 5.584366 276.306148 L 6.481366 281.083348 L 6.521912 281.286993 L 7.518212 286.020193 L 7.563141 286.222649 L 8.657241 290.910349 L 8.706689 291.112207 L 9.897389 295.752707 L 9.951229 295.953395 L 11.237129 300.545295 L 11.295357 300.744796 L 12.675057 305.286596 L 12.737879 305.485519 L 14.210279 309.975519 L 14.277375 310.172791 L 15.840875 314.609491 L 15.912527 314.805893 L 17.566027 319.187893 L 17.642057 319.382855 L 19.384057 323.708455 L 19.464666 323.902401 L 21.293966 328.170001 L 21.378850 328.362136 L 23.293950 332.570436 L 23.383524 332.761605 L 25.383224 336.908805 L 25.477298 337.098474 L 27.560298 341.183174 L 27.658804 341.371125 L 29.823604 345.391725 L 29.926785 345.578311 L 32.172185 349.533311 L 32.279988 349.718306 L 34.604688 353.606206 L 34.717077 353.789431 L 37.119577 357.608531 L 37.236801 357.790252 L 39.716001 361.539152 L 39.837739 361.718746 L 42.392039 365.395846 L 42.518765 365.573871 L 45.147065 369.177671 L 45.278683 369.353821 L 47.979583 372.882621 L 48.115829 373.056407 L 50.887929 376.508907 L 51.029474 376.681020 L 53.871574 380.055420 C 53.919623 380.112468 53.968343 380.168949 54.017722 380.224850 L 56.928322 383.519850 C 56.978152 383.576261 57.028651 383.632078 57.079808 383.687289 L 60.057708 386.901189 C 60.109207 386.956769 60.161369 387.011731 60.214184 387.066064 L 63.257984 390.197364 C 63.311238 390.252149 63.365152 390.306290 63.419712 390.359775 L 66.528112 393.406875 C 66.583030 393.460710 66.638600 393.513876 66.694809 393.566362 L 69.866409 396.527862 C 69.923189 396.580880 69.980617 396.633200 70.038680 396.684810 L 73.272280 399.559010 C 73.330754 399.610984 73.389867 399.662235 73.449607 399.712749 L 76.743707 402.498149 C 76.804026 402.549153 76.864979 402.599403 76.926551 402.648886 L 80.280051 405.343986 C 80.342045 405.393809 80.404662 405.442851 80.467888 405.491101 L 83.879188 408.094401 C 83.943132 408.143200 84.007693 408.191184 84.072856 408.238342 L 87.540856 410.748142 C 87.606507 410.795654 87.672764 410.842325 87.739610 410.888141 L 91.262910 413.303041 C 91.330331 413.349252 91.398345 413.394590 91.466936 413.439046 L 95.044036 415.757446 C 95.113357 415.802374 95.183260 415.846397 95.253730 415.889502 L 98.883530 418.109802 C 98.954532 418.153233 99.026103 418.195729 99.098222 418.237280 L 102.779322 420.358080 C 102.852155 420.400041 102.925541 420.441034 102.999462 420.481047 L 106.730462 422.500647 C 106.804966 422.540976 106.880006 422.580307 106.955563 422.618629 L 110.735163 424.535629 C 110.811453 424.574323 110.888262 424.611985 110.965570 424.648605 L 114.792370 426.461305 C 114.870317 426.498227 114.948762 426.534086 115.027685 426.568872 L 118.900585 428.275872 C 118.980125 428.310929 119.060142 428.344893 119.140614 428.377755 L 123.058014 429.977455 C 123.139206 430.010610 123.220853 430.042639 123.302932 430.073534 L 127.263632 431.564334 C 127.346323 431.595458 127.429444 431.625428 127.512970 431.654234 L 131.515670 433.034634 C 131.599766 433.063635 131.684264 433.091455 131.769141 433.118083 L 135.812441 434.386583 C 135.897953 434.413410 135.983839 434.439026 136.070075 434.463423 L 140.152675 435.618423 C 140.239445 435.642971 140.326560 435.666282 140.413994 435.688350 L 144.534594 436.728350 C 144.622562 436.750552 144.710843 436.771493 144.799411 436.791166 L 148.956511 437.714566 C 149.045566 437.734347 149.134901 437.752845 149.224488 437.770053 L 153.416988 438.575353 C 153.507026 438.592648 153.597309 438.608638 153.687810 438.623319 L 157.914210 439.308919 C 158.005003 439.323647 158.096006 439.337056 158.187188 439.349141 L 162.446288 439.913641 C 162.537900 439.925783 162.629683 439.936588 162.721610 439.946052 L 167.012010 440.387752 C 167.104162 440.397239 167.196448 440.405378 167.288838 440.412166 L 171.609138 440.729566 C 171.701695 440.736365 171.794347 440.741809 171.887063 440.745894 L 176.235963 440.937494 C 176.328847 440.941586 176.421786 440.944314 176.514751 440.945678 L 180.891051 441.009878 C 180.983945 441.011241 181.076855 441.011241 181.169749 441.009878 L 185.546049 440.945678 C 185.639014 440.944314 185.731953 440.941586 185.824837 440.937494 L 190.173737 440.745894 C 190.266448 440.741809 190.359094 440.736366 190.451646 440.729567 L 194.772046 440.412167 C 194.864449 440.405378 194.956748 440.397238 195.048913 440.387750 L 199.339213 439.946050 C 199.431132 439.936586 199.522908 439.925782 199.614512 439.913641 L 203.873612 439.349141 C 203.964794 439.337056 204.055797 439.323647 204.146590 439.308919 L 208.372990 438.623319 C 208.463491 438.608638 208.553774 438.592648 208.643812 438.575353 L 212.836312 437.770053 C 212.925899 437.752845 213.015234 437.734347 213.104289 437.714566 L 217.261389 436.791166 C 217.349957 436.771493 217.438238 436.750552 217.526206 436.728350 L 221.646806 435.688350 C 221.734240 435.666282 221.821355 435.642971 221.908125 435.618423 L 225.990725 434.463423 C 226.076961 434.439026 226.162847 434.413410 226.248359 434.386583 L 230.291659 433.118083 C 230.376536 433.091455 230.461034 433.063635 230.545130 433.034634 L 234.547830 431.654234 C 234.631356 431.625428 234.714477 431.595458 234.797168 431.564334 L 238.757868 430.073534 C 238.839947 430.042639 238.921594 430.010610 239.002786 429.977455 L 242.920186 428.377755 C 243.000658 428.344893 243.080675 428.310929 243.160215 428.275872 L 247.033115 426.568872 C 247.112008 426.534099 247.190425 426.498254 247.268343 426.461346 L 251.095243 424.648646 C 251.172580 424.612014 251.249418 424.574338 251.325737 424.535629 L 255.105337 422.618629 C 255.180894 422.580307 255.255934 422.540976 255.330438 422.500647 L 259.061438 420.481047 C 259.135391 420.441016 259.208810 420.400005 259.281674 420.358024 L 262.962674 418.237224 C 263.034761 418.195691 263.106299 418.153214 263.177270 418.109802 L 266.807070 415.889502 C 266.877505 415.846418 266.947375 415.802417 267.016663 415.757512 L 270.593863 413.439112 C 270.662523 413.394612 270.730606 413.349228 270.798094 413.302970 L 274.321294 410.888070 C 274.388104 410.842276 274.454327 410.795630 274.519944 410.748142 L 277.987944 408.238342 C 278.053107 408.191184 278.117668 408.143200 278.181612 408.094401 L 281.592912 405.491101 C 281.656138 405.442851 281.718755 405.393809 281.780749 405.343986 L 285.134249 402.648886 C 285.195821 402.599403 285.256774 402.549153 285.317093 402.498149 L 288.611193 399.712749 C 288.670933 399.662235 288.730046 399.610984 288.788520 399.559010 L 292.022120 396.684810 C 292.080146 396.633233 292.137538 396.580947 292.194282 396.527964 L 295.365982 393.566464 C 295.422228 393.513945 295.477834 393.460745 295.532788 393.406875 L 298.641188 390.359775 C 298.695748 390.306290 298.749662 390.252149 298.802916 390.197364 L 301.846716 387.066064 C 301.899568 387.011693 301.951766 386.956692 302.003300 386.901072 L 304.981100 383.687172 C 305.032183 383.632039 305.082610 383.576301 305.132370 383.519971 L 308.043070 380.224971 C 308.092523 380.168989 308.141314 380.112426 308.189432 380.055294 L 311.031432 376.680894 L 311.172871 376.508907 L 313.944971 373.056407 L 314.081217 372.882621 L 316.782117 369.353821 L 316.913735 369.177671 L 319.542035 365.573871 L 319.668661 365.395989 L 322.223061 361.718889 L 322.344996 361.539004 L 324.824096 357.790104 L 324.941128 357.608682 L 327.343728 353.789582 L 327.456305 353.606052 L 329.780905 349.718152 L 329.888615 349.533311 L 332.134015 345.578311 L 332.237109 345.391886 L 334.402009 341.371286 L 334.500686 341.183009 L 336.583586 337.098309 L 336.677576 336.908805 L 338.677276 332.761605 L 338.766772 332.570606 L 340.681972 328.362306 L 340.767008 328.169828 L 342.596208 323.902228 L 342.676743 323.708455 L 344.418743 319.382855 L 344.494773 319.187893 L 346.148273 314.805893 L 346.219925 314.609491 L 347.783425 310.172791 L 347.850521 309.975519 L 349.322921 305.485519 L 349.385687 305.286780 L 350.765487 300.744980 L 350.823823 300.545110 L 352.109623 295.953210 L 352.163411 295.752707 L 353.354111 291.112207 L 353.403559 290.910349 L 354.497659 286.222649 L 354.542588 286.020193 L 355.538888 281.286993 L 355.579434 281.083348 L 356.476434 276.306148 L 356.512473 276.101954 L 357.308973 271.282254 L 357.340558 271.077236 L 358.035158 266.216636 L 358.062251 266.011054 L 358.653651 261.111154 L 358.676249 260.905042 L 359.163149 255.967242 L 359.181253 255.760544 L 359.562253 250.786444 L 359.575848 250.579243 L 359.849548 245.570443 L 359.858599 245.363387 L 360.023899 240.321387 L 360.028433 240.113922 L 360.046133 238.494422 L 350.546700 238.390600 L 360.034624 238.869442 L 360.072324 238.122442 C 360.080374 237.962955 360.084400 237.803290 360.084400 237.643600 L 360.084400 142.775600 L 350.584400 152.275600 L 434.618500 152.275600 C 443.095330 152.275600 447.327896 142.015405 441.316588 136.038715 L 309.293488 4.775915 C 305.587994 1.091761 299.602802 1.091762 295.897309 4.775918 L 163.874309 136.038718 C 157.863005 142.015408 162.095572 152.275600 170.572400 152.275600 L 254.606500 152.275600 L 245.106500 142.775600 L 245.106500 234.936400 L 245.083013 237.146870 L 254.582500 237.245600 L 245.087134 236.948922 L 245.015434 239.243722 L 254.510800 239.540400 L 245.023673 239.046006 L 244.904873 241.325706 L 254.392000 241.820100 L 244.917225 241.128263 L 244.751925 243.392063 L 254.226700 244.083900 L 244.768412 243.194634 L 244.557112 245.442034 L 254.015400 246.331300 L 244.577669 245.245375 L 244.321069 247.475475 L 253.758800 248.561400 L 244.345763 247.278926 L 244.044363 249.491126 L 253.457400 250.773600 L 244.073219 249.294702 L 243.727519 251.488302 L 253.111700 252.967200 L 243.760333 251.293304 L 243.371133 253.467604 L 252.722500 255.141500 L 243.408200 253.272327 L 242.975900 255.426527 L 252.290200 257.295700 L 243.017057 255.232007 L 242.542257 257.365507 L 251.815400 259.429200 L 242.587522 257.171710 L 242.070822 259.283810 L 251.298700 261.541300 L 242.120197 259.090772 L 241.562197 261.180772 L 250.740700 263.631300 L 241.615727 260.988408 L 241.017027 263.055508 L 250.142000 265.698400 L 241.074827 262.863550 L 240.435927 264.907050 L 249.503100 267.741900 L 240.497859 264.716071 L 239.819359 266.735371 L 248.824600 269.761200 L 239.885478 266.545286 L 239.167978 268.539686 L 248.107100 271.755600 L 239.238518 268.349978 L 238.482518 270.318678 L 247.351100 273.724300 L 238.556948 270.130849 L 237.763248 272.073249 L 246.557400 275.666700 L 237.842510 271.885075 L 237.011410 273.800375 L 245.726300 277.582000 L 237.094860 273.613595 L 236.227060 275.501095 L 244.858500 279.469500 L 236.314633 275.315906 L 235.410833 277.175006 L 243.954700 281.328600 L 235.503291 276.989973 L 234.563891 278.819873 L 243.015300 283.158500 L 234.660755 278.636158 L 233.686355 280.436258 L 242.040900 284.958600 L 233.787887 280.253520 L 232.779087 282.023020 L 241.032100 286.728100 L 232.885049 281.841838 L 231.842549 283.580038 L 239.989600 288.466300 L 231.953630 283.399428 L 230.877830 285.105628 L 238.913800 290.172500 L 230.993559 284.926571 L 229.885059 286.600171 L 237.805300 291.846100 L 230.005567 286.422618 L 228.865067 288.062818 L 236.664800 293.486300 L 228.990743 287.886403 L 227.818743 289.492503 L 235.492800 295.092400 L 227.949454 289.317633 L 226.746554 290.888933 L 234.289900 296.663700 L 226.882434 290.715638 L 225.649134 292.251538 L 233.056600 298.199600 L 225.790371 292.079803 L 224.527371 293.579403 L 231.793600 299.699200 L 224.673991 293.409433 L 223.381691 294.872233 L 230.501300 301.162000 L 223.533653 294.704300 L 222.212853 296.129400 L 229.180500 302.587100 L 222.370091 295.963782 L 221.021291 297.350682 L 227.831700 303.974000 L 221.184829 297.186577 L 219.808529 298.534377 L 226.455400 305.321800 L 219.977224 298.373186 L 218.574024 299.681386 L 225.052200 306.630000 L 218.748988 299.522292 L 217.319488 300.789992 L 223.622700 307.897700 L 217.499707 300.634164 L 216.044507 301.860864 L 222.167500 309.124400 L 216.231186 301.707515 L 214.750886 302.892315 L 220.687200 310.309200 L 214.943449 302.742211 L 213.438549 303.884511 L 219.182300 311.451500 L 213.637082 303.737840 L 212.108182 304.836940 L 217.653400 312.550600 L 212.312479 304.694102 L 210.760279 305.749302 L 216.101200 313.605800 L 210.971420 305.609841 L 209.396320 306.620341 L 214.526100 314.616300 L 209.613113 306.485337 L 208.015713 307.450537 L 212.928700 315.581500 L 208.238258 307.320159 L 206.619258 308.239359 L 211.309700 316.500700 L 206.847953 308.113638 L 205.207853 308.986138 L 209.669600 317.373200 L 205.442601 308.865411 L 203.781901 309.690511 L 208.008900 318.198300 L 204.022609 309.575105 L 202.342009 310.352005 L 206.328300 318.975200 L 202.588361 310.242339 L 200.888461 310.970339 L 204.628400 319.703200 L 201.140025 310.866841 L 199.421325 311.545341 L 202.909700 320.381700 L 199.678136 311.448224 L 197.941236 312.076524 L 201.172800 321.010000 L 198.203219 311.986055 L 196.448619 312.563455 L 199.418200 321.587400 L 196.716140 312.479773 L 194.944540 313.005373 L 197.646600 322.113000 L 195.215112 312.929435 L 193.427112 313.402835 L 195.858600 322.586400 L 193.703486 313.334077 L 191.899486 313.754277 L 194.054600 323.006600 L 192.178012 313.693791 L 190.358712 314.060391 L 192.235300 323.373200 L 190.642051 314.007755 L 188.808051 314.319755 L 190.401300 323.685200 L 189.093374 314.275666 L 187.245174 314.532566 L 188.553100 323.942100 L 187.532849 314.497044 L 185.671149 314.698144 L 186.691400 324.143200 L 185.961856 314.671254 L 184.087056 314.815654 L 184.816600 324.287600 L 184.378111 314.797725 L 182.490911 314.884925 L 182.929400 324.374800 L 182.783340 314.875923 L 180.884340 314.905123 L 181.030400 324.404000 L 181.176460 314.905123 L 179.277460 314.875923 L 179.131400 324.374800 L 179.569889 314.884925 L 177.682689 314.797725 L 177.244200 324.287600 L 177.973744 314.815654 L 176.098944 314.671254 L 175.369400 324.143200 L 176.389651 314.698144 L 174.527951 314.497044 L 173.507700 323.942100 L 174.815626 314.532566 L 172.967426 314.275666 L 171.659500 323.685200 L 173.252749 314.319755 L 171.418749 314.007755 L 169.825500 323.373200 L 171.702088 314.060391 L 169.882788 313.693791 L 168.006200 323.006600 L 170.161428 313.754303 L 168.357528 313.334103 L 166.202300 322.586400 L 168.633660 313.402801 L 166.845560 312.929401 L 164.414200 322.113000 L 167.116260 313.005373 L 165.344660 312.479773 L 162.642600 321.587400 L 165.612181 312.563455 L 163.857581 311.986055 L 160.888000 321.010000 L 164.119564 312.076524 L 162.382664 311.448224 L 159.151100 320.381700 L 162.639475 311.545341 L 160.920775 310.866841 L 157.432400 319.703200 L 161.172339 310.970339 L 159.472439 310.242339 L 155.732500 318.975200 L 159.718791 310.352005 L 158.038191 309.575105 L 154.051900 318.198300 L 158.279103 309.690612 L 156.618503 308.865512 L 152.391300 317.373200 L 156.852835 308.986025 L 155.212635 308.113525 L 150.751100 316.500700 L 155.441542 308.239359 L 153.822542 307.320159 L 149.132100 315.581500 L 154.045312 307.450673 L 152.448012 306.485473 L 147.534800 314.616300 L 152.664580 306.620341 L 151.089480 305.609841 L 145.959700 313.605800 L 151.300385 305.749142 L 149.748085 304.693942 L 144.407400 312.550600 L 149.952618 304.836940 L 148.423718 303.737840 L 142.878500 311.451500 L 148.622251 303.884511 L 147.117351 302.742211 L 141.373600 310.309200 L 147.309914 302.892315 L 145.829614 301.707515 L 139.893300 309.124400 L 146.016293 301.860864 L 144.561093 300.634164 L 138.438100 307.897700 L 144.741312 300.789992 L 143.311812 299.522292 L 137.008600 306.630000 L 143.487023 299.681616 L 142.083923 298.373416 L 135.605500 305.321800 L 142.252371 298.534377 L 140.876071 297.186577 L 134.229200 303.974000 L 141.039363 297.350430 L 139.690463 295.963530 L 132.880300 302.587100 L 139.847947 296.129400 L 138.527147 294.704300 L 131.559500 301.162000 L 138.679351 294.872507 L 137.387151 293.409707 L 130.267300 299.699200 L 137.533290 293.579120 L 136.270190 292.079520 L 129.004200 298.199600 L 136.411902 292.251831 L 135.178702 290.715931 L 127.771000 296.663700 L 135.314114 290.888631 L 134.111114 289.317331 L 126.568000 295.092400 L 134.242057 289.492503 L 133.070057 287.886403 L 125.396000 293.486300 L 133.195733 288.062818 L 132.055233 286.422618 L 124.255500 291.846100 L 132.175741 286.600171 L 131.067241 284.926571 L 123.147000 290.172500 L 131.182970 285.105628 L 130.107170 283.399428 L 122.071200 288.466300 L 130.218251 283.580038 L 129.175751 281.841838 L 121.028700 286.728100 L 129.281713 282.023020 L 128.272913 280.253520 L 120.019900 284.958600 L 128.374445 280.436258 L 127.400045 278.636158 L 119.045500 283.158500 L 127.496909 278.819873 L 126.557509 276.989973 L 118.106100 281.328600 L 126.649967 277.175006 L 125.746167 275.315906 L 117.202300 279.469500 L 125.833740 275.501095 L 124.965940 273.613595 L 116.334500 277.582000 L 125.049557 273.800758 L 124.218557 271.885458 L 115.503500 275.666700 L 124.297494 272.072861 L 123.503694 270.130461 L 114.709700 273.724300 L 123.578432 270.319071 L 122.822532 268.350371 L 113.953800 271.755600 L 122.892922 268.539686 L 122.175422 266.545286 L 113.236300 269.761200 L 122.241541 266.735371 L 121.563041 264.716071 L 112.557800 267.741900 L 121.624973 264.907050 L 120.986073 262.863550 L 111.918900 265.698400 L 121.043755 263.055101 L 120.444955 260.988001 L 111.320100 263.631300 L 120.498603 261.180772 L 119.940603 259.090772 L 110.762100 261.541300 L 119.989978 259.283810 L 119.473278 257.171710 L 110.245400 259.429200 L 119.518543 257.365507 L 119.043743 255.232007 L 109.770600 257.295700 L 119.084900 255.426527 L 118.652600 253.272327 L 109.338300 255.141500 L 118.689667 253.467604 L 118.300467 251.293304 L 108.949100 252.967200 L 118.333347 251.488719 L 117.987747 249.295119 L 108.603500 250.773600 L 118.016480 249.490708 L 117.714980 247.278508 L 108.302000 248.561400 L 117.739731 247.475475 L 117.483131 245.245375 L 108.045400 246.331300 L 117.503688 245.442034 L 117.292388 243.194634 L 107.834100 244.083900 L 117.308875 243.392063 L 117.143575 241.128263 L 107.668800 241.820100 L 117.155927 241.325706 L 117.037127 239.046006 L 107.550000 239.540400 L 117.045366 239.243722 L 116.973666 236.948922 L 107.478300 237.245600 L 116.977787 237.146870 L 116.953787 234.837670 C 116.899660 229.629762 112.662489 225.436400 107.454300 225.436400 L 107.046000 225.436400 L 107.046000 234.936400 L 115.968143 238.199125 L 116.016743 238.066225 C 116.124386 237.771867 116.217396 237.472363 116.295432 237.168811 L 116.492532 236.402111 C 116.571459 236.095092 116.634969 235.784316 116.682825 235.470948 L 116.804125 234.676648 C 116.852464 234.360111 116.884768 234.041334 116.900915 233.721535 L 116.942215 232.903535 C 116.950270 232.743984 116.954300 232.584255 116.954300 232.424500 L 116.954300 19.512800 C 116.954300 19.353045 116.950270 19.193316 116.942215 19.033765 L 116.900915 18.215765 C 116.884768 17.895966 116.852464 17.577189 116.804125 17.260652 L 116.682825 16.466352 C 116.634969 16.152984 116.571459 15.842208 116.492532 15.535189 L 116.295432 14.768489 C 116.217189 14.464131 116.123892 14.163842 116.015885 13.868731 L 115.746885 13.133731 C 115.640084 12.841915 115.519030 12.555516 115.384159 12.275565 L 115.047259 11.576265 C 114.913980 11.299619 114.767366 11.029597 114.607933 10.767152 L 114.207233 10.107552 C 114.049186 9.847388 113.878725 9.594970 113.696441 9.351173 L 113.235941 8.735273 C 113.054353 8.492406 112.861241 8.258373 112.657267 8.033978 L 112.140867 7.465878 C 111.937694 7.242365 111.723977 7.028668 111.500444 6.825517 L 110.932344 6.309217 C 110.708156 6.105471 110.474350 5.912564 110.231727 5.731159 L 109.615827 5.270659 C 109.372311 5.088585 109.120194 4.918307 108.860347 4.760413 L 108.200747 4.359613 C 107.937705 4.199778 107.667051 4.052821 107.389742 3.919263 L 106.690442 3.582463 C 106.411149 3.447948 106.125440 3.327185 105.834339 3.220607 L 105.099339 2.951507 C 104.803978 2.843368 104.503428 2.749965 104.198800 2.671643 L 103.432200 2.474543 C 103.124653 2.395469 102.813334 2.331866 102.499416 2.283972 L 101.705016 2.162772 Z" transform="scale(1.000000,1.000000) translate(48.000000,23.000000)" fill="#ff0000" opacity="1.000000"></path>
    </g>
</svg>