<?xml version="1.0" encoding="UTF-8" standalone="yes"?>
<!DOCTYPE svg PUBLIC "-//W3C//DTD SVG 1.1//EN" "http://www.w3.org/Graphics/SVG/1.1/DTD/svg11.dtd">

<svg width="200" height="200" viewBox="0 0 200 200" xmlns="http://www.w3.org/2000/svg" xmlns:xlink="http://www.w3.org/1999/xlink" version="1.1" baseProfile="full">
    <defs>
        <radialGradient id="15944032440068048" cx="94" cy="94" r="99" fx="94" fy="94" gradientUnits="userSpaceOnUse">
            <stop offset="0%" style="stop-color:#ff0000;stop-opacity:0.000000"></stop>
            <stop offset="100%" style="stop-color:#ff0000;stop-opacity:1.000000"></stop>
        </radialGradient>
        <radialGradient id="15944672439706976" cx="77" cy="77" r="55" fx="77" fy="77" gradientUnits="userSpaceOnUse">
            <stop offset="0%" style="stop-color:#939393;stop-opacity:0.000000"></stop>
            <stop offset="100%" style="stop-color:#000000;stop-opacity:1.000000"></stop>
        </radialGradient>
    </defs>
    <g transform="scale(1.000000,-1.000000) translate(0,-200)">
        <path d="M 117.896314 151.534600 L 159.949487 159.949487 L 151.534600 117.896314 L 151.534600 117.896314 L 187.220908 94.110454 L 151.534600 70.324594 L 151.534600 70.324594 L 159.949487 28.271420 L 117.896314 36.686308 L 117.896314 36.686308 L 94.110454 1.000000 L 70.324594 36.686308 L 70.324594 36.686308 L 28.271420 28.271421 L 36.686308 70.324594 L 36.686308 70.324594 L 1.000000 94.110454 L 36.686308 117.896314 L 36.686308 117.896314 L 28.271421 159.949487 L 70.324594 151.534600 L 70.324594 151.534600 L 94.110454 187.220908 L 117.896314 151.534600 Z" transform="scale(1.000000,1.000000) translate(5.889550,5.889546)" fill="url(#15944032440068048)" opacity="1.000000"></path>
        <path d="M 118.785800 37.575800 L 160.839000 29.160900 L 152.424100 71.214100 L 188.110400 94.999900 L 152.424100 118.785800 L 160.839000 160.839000 L 118.785800 152.424100 L 95.000000 188.110400 L 71.214100 152.424100 L 29.160900 160.839000 L 37.575800 118.785800 L 1.889500 95.000000 L 37.575800 71.214100 L 29.160900 29.160900 L 71.214100 37.575800 L 95.000000 1.889500 Z M 77.694300 41.895000 L 76.974500 42.817000 L 76.139700 43.608400 L 75.207200 44.262000 L 74.194300 44.770700 L 73.118400 45.127200 L 71.996800 45.324400 L 70.846900 45.355100 L 69.686000 45.212100 L 39.089800 39.089800 L 45.212100 69.686000 L 45.355100 70.846900 L 45.324400 71.996800 L 45.127200 73.118400 L 44.770700 74.194300 L 44.262000 75.207200 L 43.608400 76.139700 L 42.817000 76.974500 L 41.895000 77.694300 L 15.931100 94.999900 L 41.895000 112.305500 L 42.817000 113.025300 L 43.608400 113.860100 L 44.262000 114.792600 L 44.770700 115.805500 L 45.127200 116.881400 L 45.324400 118.003000 L 45.355100 119.152900 L 45.212100 120.313800 L 39.089800 150.910000 L 69.686000 144.787700 L 70.846900 144.644700 L 71.996800 144.675400 L 73.118400 144.872600 L 74.194300 145.229100 L 75.207200 145.737800 L 76.139700 146.391400 L 76.974500 147.182800 L 77.694300 148.104800 L 94.999900 174.068700 L 112.305500 148.104800 L 113.025300 147.182800 L 113.860100 146.391400 L 114.792600 145.737800 L 115.805500 145.229100 L 116.881400 144.872600 L 118.003000 144.675400 L 119.152900 144.644700 L 120.313800 144.787700 L 150.910000 150.910000 L 144.787700 120.313800 L 144.644700 119.152900 L 144.675400 118.003000 L 144.872600 116.881400 L 145.229100 115.805500 L 145.737800 114.792600 L 146.391400 113.860100 L 147.182800 113.025300 L 148.104800 112.305500 L 174.068700 94.999900 L 148.104800 77.694300 L 147.182800 76.974500 L 146.391400 76.139700 L 145.737800 75.207200 L 145.229100 74.194300 L 144.872600 73.118400 L 144.675400 71.996800 L 144.644700 70.846900 L 144.787700 69.686000 L 150.910000 39.089800 L 120.313800 45.212100 L 119.152900 45.355100 L 118.003000 45.324400 L 116.881400 45.127200 L 115.805500 44.770700 L 114.792600 44.262000 L 113.860100 43.608400 L 113.025300 42.817000 L 112.305500 41.895000 L 94.999900 15.931100 Z" transform="scale(1.000000,1.000000) translate(5.000000,5.000000)" fill="#000000" opacity="1.000000"></path>
        <path d="M 97.353900 2.431200 L 97.691100 2.556500 L 97.994700 2.765200 L 98.248100 3.057500 L 121.476700 37.907700 L 162.544600 29.690000 L 162.930500 29.662500 L 163.292800 29.729600 L 163.619800 29.879400 L 163.899600 30.100200 L 164.120400 30.380000 L 164.270200 30.707000 L 164.337300 31.069300 L 164.309800 31.455200 L 156.092100 72.523100 L 190.942300 95.751700 L 191.234600 96.005100 L 191.443300 96.308700 L 191.568600 96.645900 L 191.610300 96.999800 L 191.568600 97.353800 L 191.443300 97.691000 L 191.234600 97.994600 L 190.942300 98.248000 L 156.092000 121.476600 L 164.309800 162.544600 L 164.337300 162.930500 L 164.270200 163.292800 L 164.120400 163.619800 L 163.899600 163.899600 L 163.619800 164.120400 L 163.292800 164.270200 L 162.930500 164.337300 L 162.544600 164.309800 L 121.476700 156.092100 L 98.248100 190.942300 L 97.994700 191.234600 L 97.691100 191.443300 L 97.353900 191.568600 L 97.000000 191.610300 L 96.646000 191.568600 L 96.308800 191.443300 L 96.005200 191.234600 L 95.751800 190.942300 L 72.523200 156.092000 L 31.455200 164.309800 L 31.069300 164.337300 L 30.707000 164.270200 L 30.380000 164.120400 L 30.100200 163.899600 L 29.879400 163.619800 L 29.729600 163.292800 L 29.662500 162.930500 L 29.690000 162.544600 L 37.907700 121.476700 L 3.057500 98.248100 L 2.765200 97.994700 L 2.556500 97.691100 L 2.431200 97.353900 L 2.389500 97.000000 L 2.431200 96.646000 L 2.556500 96.308800 L 2.765200 96.005200 L 3.057500 95.751800 L 37.907800 72.523200 L 29.690000 31.455200 L 29.662500 31.069300 L 29.729600 30.707000 L 29.879400 30.380000 L 30.100200 30.100200 L 30.380000 29.879400 L 30.707000 29.729600 L 31.069300 29.662500 L 31.455200 29.690000 L 72.523200 37.907800 L 95.751800 3.057500 L 96.005200 2.765200 L 96.308800 2.556500 L 96.646000 2.431200 L 97.000000 2.389500 Z M 73.214100 39.575800 L 31.160900 31.160900 L 39.575800 73.214100 L 3.889500 97.000000 L 39.575800 120.785800 L 31.160900 162.839000 L 73.214100 154.424100 L 97.000000 190.110400 L 120.785800 154.424100 L 162.839000 162.839000 L 154.424100 120.785800 L 190.110400 96.999900 L 154.424100 73.214100 L 162.839000 31.160900 L 120.785800 39.575800 L 97.000000 3.889500 Z" transform="scale(1.000000,1.000000) translate(3.000000,3.000000)" fill="#939393" opacity="1.000000"></path>
        <path d="M 80.505426 148.211929 L 77.134626 153.269229 L 73.763726 148.211929 L 77.134526 145.517329 Z M 84.568926 142.115429 L 82.683326 141.081729 L 88.194126 136.676429 Z M 71.585726 141.081729 L 69.700226 142.115329 L 66.075226 136.676729 Z M 90.947426 130.468029 L 77.134526 138.040029 L 63.321726 130.468029 L 77.134526 119.426329 Z M 129.084926 130.200229 L 130.040126 130.391429 L 130.888126 130.561129 L 130.969926 130.969929 L 127.377526 130.251129 L 128.273326 130.037829 Z M 24.231226 128.273329 L 24.068826 129.084929 L 23.877626 130.040129 L 23.707926 130.888129 L 23.299226 130.969929 L 24.018026 127.377829 Z M 38.554626 116.813429 L 39.765626 127.675029 L 26.891326 130.251129 L 24.845626 123.241629 L 26.403026 115.458629 Z M 130.251126 127.377729 L 123.241426 129.423429 L 114.503426 127.674929 L 115.714426 116.813429 L 127.866126 115.458629 Z M 67.560426 120.047329 L 58.354826 125.093729 L 57.685326 124.089229 L 53.289726 124.968829 L 47.368426 121.722829 L 51.801526 125.266629 L 46.949826 126.237429 L 44.389426 117.463929 Z M 107.319226 126.237429 L 102.467426 125.266529 L 106.900626 121.722729 L 100.979226 124.968729 L 96.583826 124.089229 L 95.914326 125.093729 L 86.708526 120.047329 L 109.879626 117.463929 Z M 111.219126 37.930929 L 85.512926 35.064929 L 112.698026 42.998529 L 120.159326 68.564929 L 117.463926 44.389429 L 126.237426 46.949829 L 125.017826 53.044629 L 120.912226 47.908729 L 124.672826 54.768829 L 124.089226 57.685329 L 125.904226 58.895129 L 117.337826 74.521929 L 104.701126 58.713829 L 115.352326 78.143929 L 105.511626 96.095429 L 117.186726 81.490329 L 125.093726 95.914329 L 124.089226 96.583829 L 124.968726 100.979229 L 121.722726 106.900629 L 125.266526 102.467429 L 126.428526 108.274329 L 116.338126 111.219129 L 119.204126 85.512929 L 111.270526 112.698029 L 86.492926 119.929129 L 80.568326 116.681329 L 95.555226 104.701029 L 77.134526 114.799029 L 58.713826 104.701129 L 73.700726 116.681329 L 67.776126 119.929129 L 42.998526 112.698029 L 35.064926 85.512929 L 37.930926 111.219129 L 27.840626 108.274329 L 29.002526 102.467629 L 32.546226 106.900629 L 29.300326 100.979429 L 30.179926 96.583829 L 29.175326 95.914229 L 37.587726 80.568329 L 49.567926 95.555229 L 39.470026 77.134529 L 49.568026 58.713829 L 37.587726 73.700729 L 34.339926 67.776129 L 41.571026 42.998529 L 68.756126 35.064929 L 43.049926 37.930929 L 45.994726 27.840629 L 53.044526 29.251329 L 47.908726 33.356829 L 54.768726 29.596329 L 57.685326 30.179929 L 58.354926 29.175329 L 73.700726 37.587729 L 58.713826 49.567929 L 77.134526 39.470029 L 95.555226 49.568029 L 80.568326 37.587729 L 95.914226 29.175329 L 96.583826 30.179929 L 99.500426 29.596329 L 106.360326 33.356829 L 101.224526 29.251329 L 108.274326 27.840629 Z M 137.486626 78.143929 L 130.468026 90.947429 L 120.047526 77.911629 L 130.316926 65.064929 Z M 34.842726 77.134529 L 23.801026 90.947329 L 16.229026 77.134529 L 23.801026 63.321629 Z M 141.304826 85.109229 L 136.676426 88.194129 L 140.425226 83.504529 Z M 17.592426 88.193929 L 12.153726 84.568829 L 13.187326 82.683329 Z M 153.269226 77.134629 L 147.401426 81.045629 L 144.896126 77.911629 L 148.211926 73.763729 Z M 8.751726 77.134529 L 6.057126 80.505329 L 0.999926 77.134529 L 6.057226 73.763729 Z M 142.115326 69.700229 L 140.576326 72.507729 L 134.017326 64.302729 Z M 13.187326 71.585729 L 12.153726 69.700229 L 17.592326 66.075229 Z M 34.221726 67.560529 L 29.175326 58.354929 L 30.179926 57.685329 L 29.300326 53.289729 L 32.546326 47.368429 L 29.002526 51.801529 L 28.031726 46.949829 L 36.805126 44.389429 Z M 38.810426 26.403029 L 37.455626 38.554629 L 26.594126 39.765629 L 24.018026 26.891329 L 31.027526 24.845629 Z M 129.423426 31.027729 L 127.675026 39.765629 L 116.813426 38.554629 L 115.458626 26.403029 L 127.377726 24.018029 Z M 90.126126 24.457529 L 77.134526 34.842729 L 64.142926 24.457529 L 77.134526 17.335729 Z M 130.251126 26.891529 L 130.037826 25.995729 L 130.200226 25.184129 L 130.391426 24.228929 L 130.561026 23.381029 L 130.969926 23.299229 Z M 26.891326 24.018029 L 25.995726 24.231229 L 25.184126 24.068829 L 24.228926 23.877629 L 23.381026 23.707929 L 23.299226 23.299229 Z M 89.966526 20.251929 L 82.582526 14.349229 L 85.109126 12.964229 Z M 71.686526 14.349229 L 64.302826 20.251629 L 69.160026 12.964229 Z M 81.045626 6.867629 L 77.134426 9.994129 L 73.223526 6.867829 L 77.134626 0.999929 Z" transform="scale(1.000000,1.000000) translate(22.865374,22.865371)" fill="url(#15944672439706976)" opacity="1.000000"></path>
    </g>
</svg>